<?xml version="1.0" standalone="no"?>
<!DOCTYPE svg PUBLIC "-//W3C//DTD SVG 1.1//EN" "http://www.w3.org/Graphics/SVG/1.1/DTD/svg11.dtd" >
<svg>
<metadata>
Created by FontForge 20100429 at Wed Jan 20 13:09:49 2016
 By fontface
Copyright(c) Source-Han-Light
</metadata>
<defs>
<font id="Source-Han-Light" horiz-adv-x="1000" >
  <font-face 
    font-family="Source-Han-Light"
    font-weight="400"
    font-stretch="normal"
    units-per-em="1000"
    panose-1="2 1 6 0 3 1 1 1 1 1"
    ascent="860"
    descent="-140"
    x-height="533"
    cap-height="729"
    bbox="-38 -277 973 849"
    underline-thickness="40"
    underline-position="-60"
    unicode-range="U+0022-7559"
  />
<missing-glyph 
 />
    <glyph glyph-name=".notdef" 
 />
    <glyph glyph-name=".notdef" 
 />
    <glyph glyph-name="quotedbl" unicode="&#x22;" horiz-adv-x="415" 
d="M92 685l-1 82h66l-1 -82l-11 -168h-41zM257 685l-1 82h66l-1 -82l-12 -168h-40z" />
    <glyph glyph-name="numbersign" unicode="#" horiz-adv-x="535" 
d="M130 235h-90v45h96l23 182h-97v46h101l28 212h43l-27 -212h161l28 212h43l-28 -212h90v-46h-94l-22 -182h94v-45h-101l-27 -235h-44l28 235h-161l-29 -235h-43zM341 280l23 182h-162l-23 -182h162z" />
    <glyph glyph-name="percent" unicode="%" horiz-adv-x="897" 
d="M43 515q0 227 158 227t158 -227q0 -231 -158 -231t-158 231zM311 515q0 187 -110 187q-109 0 -109 -187q0 -191 109 -191q110 0 110 191zM627 742h46l-406 -755h-46zM537 217q0 228 159 228q158 0 158 -228q0 -230 -158 -230q-159 0 -159 230zM805 217q0 188 -109 188
q-110 0 -110 -188q0 -190 110 -190q109 0 109 190z" />
    <glyph glyph-name="parenleft" unicode="(" horiz-adv-x="315" 
d="M242 -193q-71 115 -107 233q-39 127 -39 268t39 269q36 118 107 233l36 -19q-132 -214 -132 -483q0 -271 132 -483z" />
    <glyph glyph-name="parenright" unicode=")" horiz-adv-x="315" 
d="M37 -175q132 212 132 483q0 269 -132 483l36 19q71 -115 107 -233q39 -128 39 -269t-39 -268q-36 -118 -107 -233z" />
    <glyph glyph-name="asterisk" unicode="*" horiz-adv-x="443" 
d="M115 525l61 100l-102 40l12 38l107 -29l9 115h40l7 -114l107 28l12 -38l-102 -40l62 -100l-33 -23l-73 92l-74 -92z" />
    <glyph glyph-name="plus" unicode="+" horiz-adv-x="535" 
d="M242 342h-205v47h205v222h51v-222h204v-47h-204v-222h-51v222z" />
    <glyph glyph-name="comma" unicode="," horiz-adv-x="250" 
d="M53 -138q87 45 88 134q-3 -1 -6 -1h-6q-52 0 -52 51q0 50 53 50q60 0 60 -86q0 -125 -120 -186z" />
    <glyph glyph-name="hyphen" unicode="-" horiz-adv-x="333" 
d="M45 301h246v-49h-246v49z" />
    <glyph glyph-name="period" unicode="." horiz-adv-x="250" 
d="M74 41q0 55 51 55t51 -55q0 -54 -51 -54t-51 54z" />
    <glyph glyph-name="slash" unicode="/" horiz-adv-x="394" 
d="M339 786h48l-330 -963h-47z" />
    <glyph glyph-name="zero" unicode="0" horiz-adv-x="535" 
d="M53 367q0 375 215 375q214 0 214 -375q0 -380 -214 -380q-215 0 -215 380zM424 367q0 326 -156 326q-157 0 -157 -326q0 -331 157 -331q156 0 156 331z" />
    <glyph glyph-name="one" unicode="1" horiz-adv-x="535" 
d="M92 51h165v593h-127v39q83 14 139 46h47v-678h152v-51h-376v51z" />
    <glyph glyph-name="two" unicode="2" horiz-adv-x="535" 
d="M45 36q182 157 265 278q80 116 80 217q0 72 -36 115q-39 47 -113 47q-45 0 -89 -26q-39 -24 -73 -65l-37 35q46 50 90 75q53 30 115 30q94 0 149 -57q53 -57 53 -152q0 -109 -83 -233q-39 -58 -98 -123q-55 -60 -131 -131q39 3 61 4q34 2 59 2h227v-52h-439v36z" />
    <glyph glyph-name="three" unicode="3" horiz-adv-x="535" 
d="M119 19q-25 13 -49 32q-20 15 -39 36l33 39q38 -41 77 -61q52 -28 115 -28q71 0 116 43q46 43 46 113q0 77 -56 119q-61 45 -186 45v49q113 0 168 45q48 40 48 111q0 130 -138 132q-90 -1 -160 -77l-34 40q42 39 85 60q52 25 110 26q87 -1 141 -46q56 -49 56 -131
q0 -68 -38 -115q-35 -45 -96 -65v-5q70 -15 113 -62q47 -52 47 -126q0 -93 -63 -151q-62 -55 -157 -55q-77 0 -139 32z" />
    <glyph glyph-name="four" unicode="4" horiz-adv-x="535" 
d="M341 257v269q0 53 6 121h-5q-27 -52 -58 -101l-198 -289h255zM501 208h-103v-208h-57v208h-322v37l322 484h57v-472h103v-49z" />
    <glyph glyph-name="five" unicode="5" horiz-adv-x="535" 
d="M116 17q-25 13 -49 31q-19 14 -39 34l32 41q38 -40 76 -59q50 -27 115 -27q71 0 120 53q50 56 50 142q0 187 -167 187q-37 0 -69 -12q-26 -10 -60 -34l-38 23l25 333h333v-51h-281l-21 -245q58 35 122 35q96 0 153 -56q63 -62 63 -178q0 -113 -70 -183q-66 -64 -158 -64
q-76 0 -137 30z" />
    <glyph glyph-name="six" unicode="6" horiz-adv-x="535" 
d="M393 88q39 53 39 132q0 84 -35 131q-38 51 -113 51q-40 0 -80 -23q-48 -28 -87 -81q7 -124 50 -191q46 -71 127 -71q59 0 99 52zM441 634q-47 58 -119 58q-90 0 -143 -75q-61 -86 -63 -263q77 95 176 95q198 0 198 -229q0 -101 -59 -168q-57 -65 -138 -65q-108 0 -170 92
q-64 94 -64 265q0 106 22 186q20 74 58 123q68 89 182 89q92 0 155 -70z" />
    <glyph glyph-name="seven" unicode="7" horiz-adv-x="535" 
d="M205 0q9 220 56 372q48 156 156 306h-369v51h440v-35q-123 -161 -171 -325q-22 -78 -34 -172q-11 -82 -15 -197h-63z" />
    <glyph glyph-name="eight" unicode="8" horiz-adv-x="535" 
d="M109 42q-64 55 -64 139q0 69 44 128q37 48 95 80v4q-44 30 -69 67q-31 46 -31 99q0 79 54 130q54 50 134 50q89 0 142 -54q51 -53 51 -137q0 -53 -35 -108q-27 -42 -65 -73v-5q26 -16 46 -31q23 -19 39 -40q39 -51 39 -119q0 -79 -60 -131q-62 -54 -158 -54
q-98 0 -162 55zM411 546q0 62 -37 103q-39 43 -103 43q-57 0 -94 -38q-37 -37 -37 -95q0 -66 57 -112q23 -18 58 -35q25 -12 67 -29q89 74 89 163zM387 74q44 39 44 99q0 74 -65 123q-26 19 -67 38q-17 8 -39 17l-41 16q-55 -32 -85 -77q-34 -49 -34 -106q0 -64 48 -107
q49 -43 123 -43q71 0 116 40z" />
    <glyph glyph-name="nine" unicode="9" horiz-adv-x="535" 
d="M420 434q-5 123 -48 190q-47 70 -130 70q-59 0 -99 -53q-39 -53 -39 -132q0 -83 35 -130q38 -52 111 -52q93 0 170 107zM96 95q50 -58 127 -58q84 0 135 76q28 41 44 105q17 68 19 159q-80 -97 -178 -97q-197 0 -197 229q0 101 59 168q57 65 138 65q108 0 170 -86
q65 -90 65 -252q0 -111 -21 -195q-20 -77 -57 -129q-67 -93 -178 -93q-50 0 -92 20q-38 17 -69 50z" />
    <glyph glyph-name="colon" unicode=":" horiz-adv-x="250" 
d="M74 459q0 55 51 55t51 -55q0 -54 -51 -54t-51 54zM74 41q0 55 51 55t51 -55q0 -54 -51 -54t-51 54z" />
    <glyph glyph-name="greater" unicode="&#x3e;" horiz-adv-x="535" 
d="M37 212l252 97l148 56v5l-400 153v54l460 -182v-55l-460 -182v54z" />
    <glyph glyph-name="A" unicode="A" horiz-adv-x="587" 
d="M419 293l-44 132q-21 60 -41 124q-18 55 -39 126h-4l-38 -126q-17 -55 -41 -124l-45 -132h252zM435 245h-284l-83 -245h-60l255 729h62l255 -729h-64z" />
    <glyph glyph-name="B" unicode="B" horiz-adv-x="642" 
d="M106 729h201q114 0 177 -42q66 -46 66 -135q0 -125 -112 -159v-5q156 -27 156 -175q0 -103 -74 -159q-72 -54 -198 -54h-216v729zM288 411q202 0 202 134q0 135 -196 135h-128v-269h122zM308 50q227 0 227 163q0 150 -227 150h-142v-313h142z" />
    <glyph glyph-name="C" unicode="C" horiz-adv-x="627" 
d="M147 89q-87 103 -87 276t88 276q86 101 226 101q60 0 114 -27q46 -23 78 -61l-34 -39q-65 73 -158 73q-116 0 -183 -87q-68 -86 -68 -234q0 -150 67 -238t181 -88q101 0 181 88l34 -38q-90 -104 -218 -104q-137 0 -221 102z" />
    <glyph glyph-name="D" unicode="D" horiz-adv-x="672" 
d="M106 729h172q165 0 251 -97q83 -94 83 -265q0 -172 -83 -267q-86 -100 -250 -100h-173v729zM272 51q139 0 211 87q66 82 66 229t-66 227q-71 85 -211 85h-106v-628h106z" />
    <glyph glyph-name="E" unicode="E" horiz-adv-x="573" 
d="M106 729h403v-51h-343v-266h289v-51h-289v-309h354v-52h-414v729z" />
    <glyph glyph-name="F" unicode="F" horiz-adv-x="532" 
d="M106 729h402v-51h-342v-281h289v-51h-289v-346h-60v729z" />
    <glyph glyph-name="G" unicode="G" horiz-adv-x="673" 
d="M148 89q-88 103 -88 276t91 276q88 101 234 101q67 0 123 -28q43 -22 79 -60l-35 -39q-31 34 -67 52q-44 21 -99 21q-121 0 -192 -87q-71 -86 -71 -234q0 -151 68 -238q69 -88 191 -88q103 0 155 52v219h-169v51h227v-293q-78 -83 -219 -83q-142 0 -228 102z" />
    <glyph glyph-name="H" unicode="H" horiz-adv-x="710" 
d="M106 729h60v-316h379v316h59v-729h-59v361h-379v-361h-60v729z" />
    <glyph glyph-name="I" unicode="I" horiz-adv-x="272" 
d="M106 729h60v-729h-60v729z" />
    <glyph glyph-name="J" unicode="J" horiz-adv-x="517" 
d="M42 96l45 30q50 -85 138 -85q128 0 128 167v521h60v-527q0 -97 -42 -152q-48 -63 -144 -63q-125 0 -185 109z" />
    <glyph glyph-name="K" unicode="K" horiz-adv-x="623" 
d="M106 729h60v-396h2l342 396h71l-232 -271l265 -458h-69l-236 411l-143 -165v-246h-60v729z" />
    <glyph glyph-name="L" unicode="L" horiz-adv-x="522" 
d="M106 729h60v-677h332v-52h-392v729z" />
    <glyph glyph-name="M" unicode="M" horiz-adv-x="787" 
d="M106 729h80l207 -579h4l54 160l150 419h80v-729h-57v462q0 39 2 100l5 101h-4l-57 -163l-153 -422h-48l-154 422l-57 163h-4l5 -101q2 -61 2 -100v-462h-55v729z" />
    <glyph glyph-name="N" unicode="N" horiz-adv-x="707" 
d="M106 729h62l298 -501l81 -147h5l-5 108q-3 61 -3 108v432h57v-729h-62l-297 502l-82 146h-5l4 -78q1 -15 1 -26q3 -62 3 -107v-437h-57v729z" />
    <glyph glyph-name="O" unicode="O" horiz-adv-x="726" 
d="M145 90q-85 105 -85 277q0 171 85 274q83 101 217 101q135 0 218 -101q85 -103 85 -274q0 -172 -85 -277q-83 -103 -218 -103q-134 0 -217 103zM537 130q66 89 66 237t-66 235q-66 86 -175 86t-173 -86q-66 -87 -66 -235t66 -237q65 -89 173 -89q109 0 175 89z" />
    <glyph glyph-name="P" unicode="P" horiz-adv-x="612" 
d="M106 729h189q130 0 195 -46q71 -50 71 -159q0 -216 -262 -216h-133v-308h-60v729zM287 358q213 0 213 166q0 86 -54 122q-50 33 -163 33h-117v-321h121z" />
    <glyph glyph-name="Q" unicode="Q" horiz-adv-x="726" 
d="M189 128q65 -90 173 -90q109 0 175 90q66 89 66 239q0 148 -66 235q-66 86 -175 86t-173 -86q-66 -87 -66 -235q0 -150 66 -239zM671 -161q-37 -13 -93 -13q-90 0 -156 46q-62 43 -91 117q-122 12 -195 113q-76 103 -76 265q0 171 85 274q83 101 217 101q135 0 218 -101
q85 -103 85 -274q0 -160 -74 -263q-73 -101 -194 -115q50 -110 187 -110q44 0 74 10z" />
    <glyph glyph-name="R" unicode="R" horiz-adv-x="608" 
d="M166 379h139q196 0 196 155q0 145 -196 145h-139v-300zM509 0l-194 329h-149v-329h-60v729h213q115 0 176 -44q67 -49 67 -151q0 -172 -182 -200l197 -334h-68z" />
    <glyph glyph-name="S" unicode="S" horiz-adv-x="580" 
d="M157 17q-60 28 -106 79l37 42q86 -97 211 -97q80 0 128 39q47 38 47 101q0 60 -37 95q-16 15 -41 29q-18 9 -51 24l-109 48q-30 13 -51 26q-28 16 -47 36q-50 49 -50 120q0 80 62 132q60 51 154 51q63 0 119 -25q50 -23 87 -63l-34 -39q-71 73 -172 73q-155 0 -155 -124
q0 -55 42 -91q16 -14 40 -27l151 -67q35 -16 59 -30q29 -18 49 -39q45 -49 45 -125q0 -85 -64 -141q-66 -57 -172 -57q-77 0 -142 30z" />
    <glyph glyph-name="T" unicode="T" horiz-adv-x="584" 
d="M261 678h-229v51h520v-51h-230v-678h-61v678z" />
    <glyph glyph-name="U" unicode="U" horiz-adv-x="705" 
d="M178 50q-36 36 -55 91q-20 61 -20 144v444h60v-441q0 -133 57 -195q47 -52 132 -52q86 0 135 52q58 62 58 195v441h57v-444q0 -83 -21 -144q-19 -55 -55 -91q-63 -63 -174 -63t-174 63z" />
    <glyph glyph-name="V" unicode="V" horiz-adv-x="550" 
d="M4 729h64l206 -663h4l21 63l186 600h61l-237 -729h-66z" />
    <glyph glyph-name="W" unicode="W" horiz-adv-x="857" 
d="M30 729h62l88 -422q12 -54 25 -119q6 -27 12 -59l12 -60h4l56 238l111 422h59l112 -422l56 -238h5l46 238l88 422h59l-160 -729h-68l-129 487q-7 35 -19 83l-19 81h-4l-9 -41l-156 -610h-68z" />
    <glyph glyph-name="X" unicode="X" horiz-adv-x="541" 
d="M236 377l-203 352h66l115 -208l59 -101h4l28 53l141 256h62l-203 -355l218 -374h-65l-154 273l-36 61h-4l-61 -116l-122 -218h-62z" />
    <glyph glyph-name="underscore" unicode="_" horiz-adv-x="554" 
d="M13 -85h528v-47h-528v47z" />
    <glyph glyph-name="a" unicode="a" horiz-adv-x="547" 
d="M108 23q-45 40 -45 111q0 162 340 201q2 70 -22 110q-31 51 -100 51q-48 0 -96 -20q-39 -16 -72 -41l-26 42q18 12 37 23q23 13 47 23q60 24 118 24q90 0 134 -60q38 -53 38 -149v-338h-49l-6 68h-2q-45 -37 -88 -57q-51 -24 -98 -24q-68 0 -110 36zM403 119v173
q-153 -18 -220 -56q-62 -36 -62 -99q0 -52 32 -78q29 -23 77 -23q78 0 173 83z" />
    <glyph glyph-name="b" unicode="b" horiz-adv-x="603" 
d="M156 54h-2l-7 -54h-47v795h58v-228l-3 -102q44 37 86 58q49 24 94 24q104 0 160 -74q54 -72 54 -198q0 -132 -71 -212q-66 -76 -164 -76q-78 0 -158 67zM437 103q50 66 50 172q0 103 -37 159q-41 62 -126 62q-73 0 -166 -85v-308q38 -34 82 -50q36 -15 69 -15
q79 0 128 65z" />
    <glyph glyph-name="c" unicode="c" horiz-adv-x="499" 
d="M126 60q-70 76 -70 206q0 129 74 207q70 74 173 74q48 0 91 -20q32 -15 65 -45l-33 -40q-57 54 -122 54q-80 0 -133 -64q-54 -65 -54 -166q0 -102 51 -165q51 -64 135 -64q39 0 77 18q32 14 62 41l28 -40q-37 -32 -77 -49q-45 -20 -93 -20q-107 0 -174 73z" />
    <glyph glyph-name="d" unicode="d" horiz-adv-x="605" 
d="M116 59q-60 75 -60 207q0 125 71 205q67 76 165 76q45 0 84 -17q32 -14 75 -48l-4 96v217h58v-795h-48l-7 67h-2q-36 -36 -76 -56q-47 -24 -95 -24q-102 0 -161 72zM447 122v308q-74 66 -149 66q-77 0 -128 -66q-52 -66 -52 -164q0 -105 44 -166q45 -62 125 -62
q79 0 160 84z" />
    <glyph glyph-name="e" unicode="e" horiz-adv-x="538" 
d="M129 61q-73 77 -73 205q0 125 72 205q67 76 162 76q206 0 206 -248q0 -22 -3 -42h-378q2 -98 56 -159q53 -62 139 -62q76 0 142 46l22 -43q-39 -24 -72 -36q-46 -16 -98 -16q-106 0 -175 74zM443 303q0 194 -152 194q-68 0 -116 -51q-52 -54 -60 -143h328z" />
    <glyph glyph-name="f" unicode="f" horiz-adv-x="298" 
d="M312 744q-33 15 -63 15q-82 0 -82 -117v-109h121v-49h-121v-484h-58v484h-74v44l74 5v112q0 163 137 163q39 0 80 -18z" />
    <glyph glyph-name="g" unicode="g" horiz-adv-x="543" 
d="M115 -215q-60 40 -60 107q0 73 80 127v5q-48 28 -48 86q0 31 21 60q14 21 38 39v4q-28 23 -47 59q-21 41 -21 86q0 82 56 136q55 53 135 53q37 0 71 -14h182v-48h-120q55 -48 55 -128q0 -82 -55 -135q-53 -53 -133 -53q-48 0 -86 22q-42 -33 -42 -74q0 -67 100 -67h112
q178 0 178 -123q0 -73 -69 -125q-74 -56 -187 -56q-100 0 -160 39zM361 253q40 41 40 105t-39 104q-37 38 -93 38t-94 -38q-39 -40 -39 -104t40 -105q38 -40 93 -40q54 0 92 40zM421 -169q52 37 52 88q0 78 -121 78h-109q-26 0 -67 9q-66 -46 -66 -107q0 -109 172 -109
q83 0 139 41z" />
    <glyph glyph-name="h" unicode="h" horiz-adv-x="589" 
d="M100 795h58l-1 -344q46 46 84 68q48 28 98 28q162 0 162 -206v-341h-58v333q0 162 -117 162q-75 0 -168 -96v-399h-58v795z" />
    <glyph glyph-name="i" unicode="i" horiz-adv-x="257" 
d="M100 533h58v-533h-58v533zM81 704q0 48 49 48t49 -48q0 -46 -49 -46t-49 46z" />
    <glyph glyph-name="j" unicode="j" horiz-adv-x="258" 
d="M-38 -237l13 46l12 -4q6 -2 13 -3q16 -4 30 -4q41 0 57 32q13 25 13 82v621h59v-623q0 -161 -126 -161q-41 0 -71 14zM82 704q0 48 48 48q49 0 49 -48q0 -46 -49 -46q-48 0 -48 46z" />
    <glyph glyph-name="k" unicode="k" horiz-adv-x="521" 
d="M100 795h58v-576h2l255 314h66l-174 -211l202 -322h-64l-172 280l-115 -136v-144h-58v795z" />
    <glyph glyph-name="l" unicode="l" horiz-adv-x="267" 
d="M100 79v716h58v-722q0 -36 24 -36l19 2l9 -46l-16 -4q-10 -2 -23 -2q-71 0 -71 92z" />
    <glyph glyph-name="m" unicode="m" horiz-adv-x="904" 
d="M100 533h48l7 -81h2q39 43 80 67q45 28 88 28q115 0 147 -108q48 52 89 78q47 30 91 30q160 0 160 -206v-341h-58v333q0 162 -115 162q-68 0 -154 -96v-399h-58v333q0 162 -115 162q-70 0 -154 -96v-399h-58v533z" />
    <glyph glyph-name="n" unicode="n" horiz-adv-x="593" 
d="M100 533h48l7 -81h2q47 46 84 67q48 28 98 28q162 0 162 -206v-341h-58v333q0 162 -117 162q-75 0 -168 -96v-399h-58v533z" />
    <glyph glyph-name="o" unicode="o" horiz-adv-x="594" 
d="M128 60q-72 78 -72 206q0 129 72 207q68 74 169 74t169 -74q72 -78 72 -207q0 -128 -72 -206q-68 -73 -169 -73t-169 73zM427 101q51 64 51 165t-51 166q-51 64 -130 64q-78 0 -129 -64q-51 -65 -51 -166t51 -165q50 -64 129 -64t130 64z" />
    <glyph glyph-name="p" unicode="p" horiz-adv-x="605" 
d="M100 533h48l7 -65h2q47 36 84 55q50 24 94 24q104 0 160 -74q54 -72 54 -198q0 -132 -71 -212q-66 -76 -164 -76q-73 0 -157 65l1 -290h-58v771zM437 103q50 66 50 172q0 103 -37 159q-41 62 -126 62q-70 0 -166 -85v-308q40 -34 82 -50q37 -15 69 -15q79 0 128 65z" />
    <glyph glyph-name="q" unicode="q" horiz-adv-x="605" 
d="M447 -35l4 104q-39 -38 -79 -58q-46 -24 -95 -24q-102 0 -161 72q-60 75 -60 207q0 125 71 205q67 76 165 76q45 0 84 -17q33 -14 73 -47h2l7 50h47v-771h-58v203zM447 122v308q-74 66 -149 66q-77 0 -128 -66q-52 -66 -52 -164q0 -105 44 -166q45 -62 125 -62
q79 0 160 84z" />
    <glyph glyph-name="r" unicode="r" horiz-adv-x="359" 
d="M100 533h48l7 -99h2q61 113 151 113q31 0 54 -12l-12 -52q-23 9 -49 9q-39 0 -74 -30q-42 -35 -69 -104v-358h-58v533z" />
    <glyph glyph-name="s" unicode="s" horiz-adv-x="452" 
d="M122 9q-48 19 -87 51l31 42q38 -33 74 -48q43 -19 94 -19q122 0 122 101q0 42 -41 72q-17 13 -42 24q-18 8 -46 18q-39 14 -59 23q-33 14 -54 30q-54 39 -54 100t46 101q48 43 129 43q84 0 155 -57l-30 -40q-31 23 -57 34q-34 14 -70 14q-56 0 -87 -28q-28 -25 -28 -64
t39 -65q15 -11 39 -21l23 -9q6 -3 23 -9l15 -6q10 -3 16 -6q18 -6 30 -12q34 -15 56 -30q55 -41 55 -109q0 -64 -47 -107q-51 -45 -136 -45q-55 0 -109 22z" />
    <glyph glyph-name="t" unicode="t" horiz-adv-x="352" 
d="M142 32q-29 40 -29 120v332h-83v44l85 5l7 154h49v-154h153v-49h-153v-336q0 -55 18 -81q21 -30 71 -30q29 0 65 15l14 -45q-56 -20 -89 -20q-75 0 -108 45z" />
    <glyph glyph-name="u" unicode="u" horiz-adv-x="590" 
d="M92 192v341h58v-334q0 -160 116 -160q79 0 166 104v390h58v-533h-49l-5 88h-3q-43 -49 -82 -73q-46 -28 -98 -28q-161 0 -161 205z" />
    <glyph glyph-name="v" unicode="v" horiz-adv-x="489" 
d="M13 533h63l168 -481h4l27 76q15 43 26 78l116 327h59l-196 -533h-69z" />
    <glyph glyph-name="w" unicode="w" horiz-adv-x="766" 
d="M26 533h62l93 -336l18 -74q10 -42 16 -71h5l38 145l95 336h64l95 -336l19 -74q10 -38 20 -71h4l27 108l101 373h57l-150 -533h-75l-90 321q-5 17 -10 38l-15 57q-2 11 -5 19q-5 22 -10 39h-5q-11 -47 -19 -78q-10 -41 -22 -77l-87 -319h-70z" />
    <glyph glyph-name="x" unicode="x" horiz-adv-x="460" 
d="M195 279l-165 254h64l82 -131q25 -41 57 -88h4l132 219h61l-165 -260l180 -273h-65l-91 141q-26 48 -61 97h-5l-146 -238h-62z" />
    <glyph glyph-name="y" unicode="y" horiz-adv-x="490" 
d="M28 -229l13 49q22 -8 43 -8q46 0 81 39q31 34 52 96l14 45l-218 541h63l151 -400l29 -76h5l36 114l121 362h59l-208 -595q-28 -80 -67 -123q-49 -55 -117 -55q-33 0 -57 11z" />
    <glyph glyph-name="z" unicode="z" horiz-adv-x="453" 
d="M32 31l307 453h-274v49h349v-31l-307 -452h317v-50h-392v31z" />
    <glyph glyph-name="bar" unicode="|" horiz-adv-x="254" 
d="M105 831h44v-1108h-44v1108z" />
    <glyph glyph-name="uni00B0" unicode="&#xb0;" horiz-adv-x="349" 
d="M85 527q-39 38 -39 97q0 60 39 98q37 36 90 36t90 -36q39 -38 39 -98q0 -59 -39 -97q-37 -36 -90 -36t-90 36zM262 624q0 96 -87 96q-88 0 -88 -96q0 -95 88 -95q87 0 87 95z" />
    <glyph glyph-name="quotedblleft" unicode="&#x201c;" 
d="M769 810q-87 -45 -87 -128q13 11 31 11q58 0 58 -60q0 -22 -15 -39q-17 -20 -46 -20q-74 0 -74 87q0 59 37 111q33 46 80 67zM954 810q-86 -45 -88 -128q15 11 32 11q58 0 58 -60q0 -22 -15 -39q-18 -20 -47 -20q-73 0 -73 87q0 60 36 111q33 46 81 67z" />
    <glyph glyph-name="quotedblright" unicode="&#x201d;" 
d="M231 601q87 47 87 128q-12 -10 -31 -10q-58 0 -58 59q0 60 61 60q74 0 74 -87q0 -59 -37 -111q-33 -46 -80 -68zM46 601q86 47 88 128q-13 -10 -32 -10q-58 0 -58 59q0 60 62 60q73 0 73 -87q0 -60 -36 -111q-33 -46 -81 -68z" />
    <glyph glyph-name="uni2103" unicode="&#x2103;" 
d="M98 522q-40 38 -40 97q0 61 40 99q37 36 91 36q53 0 90 -36q39 -38 39 -99q0 -59 -39 -97q-37 -35 -90 -35q-54 0 -91 35zM276 619q0 95 -87 95t-87 -95q0 -93 87 -93t87 93zM506 88q-86 103 -86 275t88 275q86 100 226 100q59 0 113 -27q46 -22 80 -60l-38 -41
q-63 71 -154 71q-115 0 -181 -85q-67 -86 -67 -232t66 -233q66 -86 178 -86q101 0 177 85l37 -40q-89 -103 -216 -103q-138 0 -223 101z" />
    <glyph glyph-name="uni2264" unicode="&#x2264;" 
d="M872 26l-17 -44l-750 302l18 44zM238 481l636 -257l-19 -45l-749 302v4l749 303l19 -46l-636 -257v-4z" />
    <glyph glyph-name="uni3001" unicode="&#x3001;" 
d="M284 -48q-106 130 -225 224l41 37q53 -42 116 -104q58 -57 113 -119z" />
    <glyph glyph-name="uni3002" unicode="&#x3002;" 
d="M299 199q43 -43 43 -104t-43 -104t-104 -43t-104 43t-43 104t43 104t104 43t104 -43zM272 18q31 31 31 77q0 44 -31 76q-32 32 -77 32t-77 -32t-32 -76q0 -45 32 -77q32 -31 77 -31t77 31z" />
    <glyph glyph-name="uni4E00" unicode="&#x4e00;" 
d="M954 416v-53h-905v53h905z" />
    <glyph glyph-name="uni4E09" unicode="&#x4e09;" 
d="M876 735v-48h-750v48h750zM796 407v-48h-610v48h610zM927 56v-48h-860v48h860z" />
    <glyph glyph-name="uni4E0A" unicode="&#x4e0a;" 
d="M940 22v-48h-883v48h384v794h50v-320h388v-48h-388v-426h449z" />
    <glyph glyph-name="uni4E0B" unicode="&#x4e0b;" 
d="M506 711v-189l9 10q95 -46 199 -107q106 -63 166 -107l-31 -44q-55 43 -154 103q-96 59 -189 108v-554h-50v780h-397v48h883v-48h-436z" />
    <glyph glyph-name="uni4E0D" unicode="&#x4e0d;" 
d="M603 712q-16 -29 -37 -61q-17 -26 -42 -61v-662h-50v600q-167 -200 -389 -319q-19 26 -32 39q323 169 491 464h-470v48h853v-48h-324zM600 526q97 -59 193 -130q103 -76 157 -131l-36 -36q-54 55 -155 132q-98 75 -193 134z" />
    <glyph glyph-name="uni4E0E" unicode="&#x4e0e;" 
d="M684 178h-620v46h620v-46zM875 432q0 -1 -1 -10q0 -11 -1 -15q-23 -215 -46 -313q-23 -97 -57 -129q-25 -24 -79 -27q-68 -2 -174 7q-2 26 -17 46q50 -5 108 -6q21 -1 42 -1h29q38 0 51 11q29 24 50 113q22 92 42 279h-652q22 75 51 202q27 114 48 219l47 -6
q-4 -23 -12 -57l-13 -60h576v-47h-586l-24 -109l-25 -97h643z" />
    <glyph glyph-name="uni4E13" unicode="&#x4e13;" 
d="M375 478l-24 -67l-22 -61h458l8 3l37 -22l-133 -131l-148 -143q100 -42 176 -87l-31 -40q-173 106 -431 188l29 34q47 -14 103 -34q51 -18 106 -40l124 116l112 110h-480q14 33 32 81l35 93h-264v46h279q11 29 25 70l18 52q3 10 6 17h-249v46h263q24 69 38 122h50
q-7 -25 -18 -60l-21 -62h395v-46h-410l-47 -139h528v-46h-544z" />
    <glyph glyph-name="uni4E14" unicode="&#x4e14;" 
d="M267 18h472v205h-472v-205zM267 725v-202h472v202h-472zM739 478h-472v-209h472v209zM943 18v-47h-885v47h162v754h568v-754h155z" />
    <glyph glyph-name="uni4E16" unicode="&#x4e16;" 
d="M515 531v-281h223v281h-223zM468 204v327h-209v-485h656v-47h-707v532h-151v46h151v230h51v-230h209v253h47v-253h223v241h48v-241h160v-46h-160v-327h-318z" />
    <glyph glyph-name="uni4E1A" unicode="&#x4e1a;" 
d="M909 568q-41 -88 -86 -174q-51 -96 -94 -160l-39 20q102 158 174 335zM240 243q-46 148 -146 336l45 13q102 -189 149 -331zM936 29v-48h-869v48h291v792h49v-792h189v790h48v-790h292z" />
    <glyph glyph-name="uni4E24" unicode="&#x4e24;" 
d="M602 552v161h-211v-161h211zM649 552h245v-553q0 -52 -39 -64q-22 -6 -68 -7q-37 -2 -113 -2q-3 20 -18 51l56 -2h110q25 1 25 24v507h-200l-4 -51q-3 -29 -8 -54q121 -142 178 -248l-32 -36q-22 43 -66 109q-42 61 -90 123q-19 -75 -51 -138q-38 -72 -95 -129
q-17 21 -35 33q44 42 75 94q28 46 47 100q16 48 24 101q7 45 10 96h-211q-3 -53 -12 -106q78 -100 111 -165l-31 -39q-13 28 -39 70q-23 38 -52 79q-20 -74 -52 -135q-37 -72 -93 -128q-13 18 -35 33q43 42 74 94q28 46 47 100q16 48 24 101q7 45 10 96h-185v-580h-47v626
h234v161h-280v47h874v-47h-288v-161z" />
    <glyph glyph-name="uni4E25" unicode="&#x4e25;" 
d="M416 443h165v285h-165v-285zM932 399h-760v-128q0 -43 -4 -83q-5 -48 -15 -90q-12 -49 -30 -90q-21 -45 -51 -81q-18 22 -36 33q28 33 47 75q16 36 26 80q9 37 12 81q3 34 3 75v172h245v285h-258v44h788v-44h-271v-285h304v-44zM252 474q-24 94 -97 192l41 16
q75 -98 99 -191zM687 489q27 37 59 96q31 54 52 101l48 -19q-30 -54 -60 -102q-35 -57 -61 -93z" />
    <glyph glyph-name="uni4E2A" unicode="&#x4e2a;" 
d="M476 556h48v-629h-48v629zM553 813q-10 -19 -26 -41q81 -110 192 -198q101 -81 241 -153q-19 -13 -35 -41q-135 75 -233 155q-108 89 -192 200q-167 -227 -420 -354l-16 22q-11 12 -20 19q306 143 467 411z" />
    <glyph glyph-name="uni4E2D" unicode="&#x4e2d;" 
d="M845 309v295h-323v-295h323zM473 309v295h-323v-295h323zM894 651v-450h-49v61h-323v-334h-49v334h-323v-66h-47v455h370v181h49v-181h372z" />
    <glyph glyph-name="uni4E30" unicode="&#x4e30;" 
d="M942 175h-418v-247h-49v247h-417v48h417v191h-331v46h331v177h-380v48h380v149h49v-149h378v-48h-378v-177h333v-46h-333v-191h418v-48z" />
    <glyph glyph-name="uni4E3A" unicode="&#x4e3a;" 
d="M291 634q-38 69 -112 150l40 20q76 -79 114 -146zM891 561q-7 -161 -13 -259q-6 -108 -14 -174q-15 -128 -44 -160q-24 -28 -72 -31q-55 -2 -159 5q0 25 -16 49q45 -4 98 -6q18 -1 37 -1h24q32 -1 44 14q25 24 39 144q15 120 26 399h-375q-9 -81 -29 -152
q-24 -83 -63 -156q-45 -82 -109 -153q-72 -78 -168 -142q-11 17 -37 34q93 62 161 135q63 67 106 144q38 69 62 147q20 67 29 143h-329v48h333q3 33 4 69q1 30 1 65v108h48v-108q0 -71 -4 -134h420v-28zM657 179q-46 89 -149 201l39 21q46 -48 87 -101q44 -57 64 -96z" />
    <glyph glyph-name="uni4E3B" unicode="&#x4e3b;" 
d="M569 631q-25 34 -78 83q-48 46 -99 86l37 26q117 -85 180 -167zM944 10v-48h-883v48h414v276h-323v47h323v247h-366v47h784v-47h-368v-247h330v-47h-330v-276h419z" />
    <glyph glyph-name="uni4E48" unicode="&#x4e48;" 
d="M505 799q-161 -248 -398 -432l-17 18q-11 11 -18 17q244 180 385 416zM892 -64q-17 31 -31 53q-19 32 -38 60l-566 -49l-93 -10q-23 -4 -36 -8q-8 24 -21 50q34 8 132 99q26 23 71 68l107 112l124 141q68 81 122 156l49 -23q-124 -163 -248 -297q-131 -142 -253 -244
l582 49q-80 112 -159 202l41 21q77 -85 148 -182q75 -102 112 -172z" />
    <glyph glyph-name="uni4E4B" unicode="&#x4e4b;" 
d="M532 646q-14 31 -44 80q-28 45 -59 87l41 20q32 -42 61 -85q32 -49 46 -79zM846 607q-90 -136 -248 -282t-312 -236q19 -16 44 -32q44 -28 110 -38q53 -9 146 -9q197 0 369 16q-13 -29 -15 -54q-56 -4 -170 -7q-112 -3 -184 -3q-98 0 -156 10q-68 12 -114 43l-52 38
q-26 20 -39 20q-23 0 -59 -35q-30 -29 -74 -86l-37 43q54 60 91 88q46 36 80 36q8 0 17 -3q140 78 290 213q144 128 233 251h-659v47h694l10 4z" />
    <glyph glyph-name="uni4E5D" unicode="&#x4e5d;" 
d="M866 -1q24 0 31 32q7 28 10 135q8 -6 22 -12l24 -10q-5 -115 -20 -151q-16 -40 -65 -40h-124q-50 0 -68 18q-17 17 -17 69v512h-253q-8 -103 -24 -184q-20 -96 -53 -172q-37 -86 -93 -151q-61 -71 -145 -119q-19 23 -40 36q82 44 141 111q54 61 90 141q32 73 51 163
q17 78 24 175h-275v47h278q3 52 4 117v114h51l-1 -114q-2 -67 -5 -117h299v-559q0 -41 39 -41h119z" />
    <glyph glyph-name="uni4E60" unicode="&#x4e60;" 
d="M724 274l-160 -55l-159 -54l-148 -50l-127 -43l-17 49q52 16 123 40l149 48l330 110zM271 603q75 -49 151 -105q82 -61 126 -101l-35 -38q-41 41 -123 104q-74 57 -151 109zM876 721q-1 -106 -3 -184q-1 -87 -3 -153q-3 -140 -9 -221q-10 -158 -36 -193q-25 -33 -70 -36
q-25 -1 -67 0l-82 3q-2 28 -15 47q43 -3 92 -4q17 -1 35 -1h24q26 -2 39 15q22 26 33 182q10 152 15 530h-703v45h750v-30z" />
    <glyph glyph-name="uni4E86" unicode="&#x4e86;" 
d="M880 726q-64 -70 -163 -144q-94 -69 -190 -120v-462q0 -53 -44 -64q-22 -6 -73 -8q-22 -1 -56 -1h-72q-2 10 -8 25q-5 11 -12 24q61 -2 120 -2q45 0 68 1q28 1 28 25v486q171 82 308 216h-686v47h732l11 3z" />
    <glyph glyph-name="uni4E8B" unicode="&#x4e8b;" 
d="M797 215h-276v-92h276v92zM521 257h276v86h-276v-86zM473 507v86h-248v-86h248zM521 593v-86h261v86h-261zM948 215h-104v-178h-47v46h-276v-89q0 -50 -38 -62q-19 -5 -60 -7q-18 -1 -46 -1h-56q-5 20 -18 44q45 -1 92 -1q38 0 53 1q25 1 25 25v90h-335v40h335v92h-417
v42h417v86h-325v40h325v86h-295v163h295v70h-400v42h400v88h48v-88h410v-42h-410v-70h309v-163h-309v-86h323v-126h104v-42z" />
    <glyph glyph-name="uni4E8C" unicode="&#x4e8c;" 
d="M856 687v-50h-711v50h711zM942 87v-51h-883v51h883z" />
    <glyph glyph-name="uni4E8E" unicode="&#x4e8e;" 
d="M942 380h-409v-370q0 -56 -45 -69q-36 -11 -196 -9q-7 23 -21 50q138 -3 183 -1q30 1 30 28v371h-425v47h425v283h-356v47h744v-47h-339v-283h409v-47z" />
    <glyph glyph-name="uni4E92" unicode="&#x4e92;" 
d="M676 243q2 15 4 35q1 4 1 8l11 92q9 73 13 115h-384l-25 -132l-24 -118h404zM944 16v-47h-886v47h587l13 88q7 50 12 93h-461q59 238 100 521h-216v47h821v-47h-553l-31 -179h385l9 3l34 -5q-5 -52 -12 -113q-7 -67 -16 -134l-18 -141q-10 -74 -19 -133h251z" />
    <glyph glyph-name="uni4E9B" unicode="&#x4e9b;" 
d="M662 341q-62 0 -84 18t-22 69v404h48v-211q74 26 137 54q70 31 110 58l41 -36q-54 -30 -135 -64q-71 -29 -153 -57v-149q0 -40 59 -40h186q33 0 43 26q9 24 13 112q16 -13 45 -21q-5 -98 -23 -129q-20 -34 -76 -34h-189zM174 224h667v-47h-667v47zM501 372
q-69 -9 -121 -17q-66 -8 -119 -16l-205 -27l-7 48l72 8v351h46v-345l107 13v445h48v-183h172v-45h-172v-210l178 23zM63 1h875v-47h-875v47z" />
    <glyph glyph-name="uni4EA4" unicode="&#x4ea4;" 
d="M501 696q-21 56 -73 129l45 16q51 -71 74 -127zM925 641h-852v47h852v-47zM668 594q73 -48 145 -108q76 -64 115 -111l-40 -31q-38 48 -112 112q-73 62 -146 112zM377 578q-48 -61 -121 -126q-67 -58 -136 -105l-29 29q-5 5 -9 8q69 41 135 97q70 59 115 115zM711 415
q-58 -154 -171 -263q163 -131 415 -173q-19 -19 -31 -45q-255 50 -420 186q-82 -67 -190 -116q-103 -47 -235 -80q-11 24 -30 45q132 29 234 72q107 46 186 111q-111 106 -172 257l44 15q55 -139 163 -241q107 103 159 246z" />
    <glyph glyph-name="uni4EA6" unicode="&#x4ea6;" 
d="M520 663q-32 76 -90 158l45 15q61 -84 92 -154zM258 476q-52 -191 -143 -307q-20 18 -42 26q44 53 81 131q35 73 57 158zM776 483q118 -182 158 -325l-45 -19q-39 144 -154 329zM936 650v-47h-272v-605q0 -51 -38 -62q-20 -6 -63 -8q-18 -1 -47 -1h-58q-4 19 -18 49
q113 -3 152 -1q23 1 23 23v605h-197v-126q0 -37 -1 -68q-2 -37 -6 -70q-10 -79 -33 -145q-28 -77 -77 -142q-55 -73 -138 -132q-16 23 -36 34q80 56 132 125q47 61 74 134q22 62 31 135q3 31 5 66q1 28 1 63v126h-305v47h871z" />
    <glyph glyph-name="uni4EA7" unicode="&#x4ea7;" 
d="M893 656h-778v46h395q-20 49 -71 115l44 15q53 -63 80 -122l-20 -8h350v-46zM362 473q-27 67 -88 148l40 16q64 -81 90 -145zM922 410h-740v-88q0 -49 -4 -95q-4 -55 -14 -104q-12 -57 -31 -105q-21 -54 -51 -96q-20 22 -39 31q28 40 48 90q17 45 27 97q9 45 13 96
q3 40 3 87v134h476q52 81 87 176l50 -17q-23 -46 -43 -82q-26 -46 -47 -77h265v-47z" />
    <glyph glyph-name="uni4EAB" unicode="&#x4eab;" 
d="M933 695h-867v43h425q-18 44 -46 91l47 11q35 -60 53 -102h388v-43zM246 468h512v111h-512v-111zM198 429v190h609v-190h-609zM943 126h-419v-143q0 -43 -36 -52q-19 -5 -63 -6q-18 -1 -48 -1h-61q-2 9 -7 21q-3 4 -6 10l-5 10q118 -3 154 -1q23 1 23 19v143h-416v44h416
v70q130 24 248 73h-573v42h650l12 3l35 -28q-61 -36 -152 -67q-81 -29 -171 -50v-43h419v-44z" />
    <glyph glyph-name="uni4EBA" unicode="&#x4eba;" 
d="M529 828q0 -7 -1 -27v-32q-2 -42 -5 -78l8 -53q6 -40 15 -79q11 -50 25 -97q17 -56 39 -107q24 -59 54 -110q34 -58 74 -106q45 -52 97 -92q56 -44 121 -73q-21 -16 -35 -39q-97 45 -175 122q-69 67 -121 159q-45 77 -78 170q-13 39 -25 81q-10 37 -19 75
q-16 -88 -43 -166q-31 -91 -76 -167q-52 -87 -121 -154q-76 -74 -173 -123q-12 17 -37 35q76 37 139 90q58 49 105 111q42 57 75 124q29 61 51 129q18 60 31 126q10 56 16 115q5 46 6 96l2 39v31h51z" />
    <glyph glyph-name="uni4EC5" unicode="&#x4ec5;" 
d="M359 812q-49 -117 -114 -222v-661h-47v589q-63 -89 -133 -157q-12 25 -32 44q177 161 279 421zM452 674q29 -133 75 -244q47 -117 111 -207q71 91 122 201q55 117 83 250h-391zM898 712q-30 -162 -91 -298q-58 -128 -141 -229q122 -152 294 -217q-8 -6 -17 -18
q-8 -9 -16 -21q-171 69 -291 221q-67 -75 -149 -132q-77 -55 -164 -91q-7 20 -28 40q176 67 313 220q-69 96 -120 221q-49 120 -82 266h-48v46h499l10 3z" />
    <glyph glyph-name="uni4ECB" unicode="&#x4ecb;" 
d="M291 450h49v-137q0 -58 -7 -102q-8 -56 -30 -102q-24 -53 -68 -96q-48 -49 -120 -87q-14 19 -38 35q69 35 115 80q41 40 65 89q20 41 28 92q6 38 6 91v137zM664 451h49v-527h-49v527zM539 811q-10 -16 -14 -24q72 -102 196 -193q125 -93 249 -133q-23 -23 -35 -44
q-264 97 -434 333q-168 -236 -433 -343q-11 25 -29 44q139 49 267 157q128 106 195 228z" />
    <glyph glyph-name="uni4ECE" unicode="&#x4ece;" 
d="M465 162q-24 53 -73 130q-44 70 -97 143q-25 -166 -70 -286q-49 -131 -127 -223q-6 6 -21 16q-14 10 -24 16q61 66 103 156q40 85 66 196q23 100 37 231q7 59 12 128l8 136l51 -3q-5 -86 -11 -158q-6 -78 -15 -146q60 -76 113 -156q59 -89 85 -147zM711 804
q-7 -98 -15 -173q-10 -87 -22 -158q14 -69 35 -134q24 -74 55 -137q35 -71 79 -126q48 -60 105 -99q-8 -8 -17 -19q-12 -13 -17 -22q-50 37 -93 91q-40 48 -73 109q-31 55 -55 120q-22 57 -39 119q-34 -145 -88 -250q-59 -113 -150 -194q-16 14 -45 32q76 62 129 149
q51 83 84 192q31 100 50 231q8 61 15 131q6 64 11 141z" />
    <glyph glyph-name="uni4ED6" unicode="&#x4ed6;" 
d="M327 816q-45 -113 -107 -218v-670h-47v597q-58 -86 -121 -150q-7 18 -29 42q163 158 260 412zM827 -17q46 0 61 30q14 27 21 120q21 -16 46 -21q-9 -103 -30 -136q-26 -37 -99 -37h-286q-81 0 -109 23q-29 24 -29 94v354l-111 -43l-18 43l129 50v280h47v-262l177 68v286
h46v-268l187 73l18 15l33 -14l-3 -10q0 -75 -1 -133q0 -65 -2 -114q-4 -109 -12 -139q-12 -56 -61 -61q-18 -3 -47 -3q-24 -1 -48 0q-4 27 -14 45q20 -1 50 -1h36q31 0 40 34q7 24 11 116q3 84 3 216l-190 -73v-374h-46v355l-177 -68v-373q0 -43 17 -57q18 -15 72 -15h289z
" />
    <glyph glyph-name="uni4EE3" unicode="&#x4ee3;" 
d="M889 616q-69 82 -176 164l33 23q116 -86 180 -161zM376 806q-51 -113 -116 -212v-666h-49v598q-77 -101 -152 -166l-13 22q-10 15 -17 21q193 161 302 418zM634 480q30 -228 86 -354q60 -138 149 -145q44 -1 62 182q18 -15 41 -23q-15 -118 -39 -168q-24 -48 -62 -46
q-116 7 -188 159q-33 70 -57 171q-23 94 -39 218l-265 -32l-7 45l268 32q-16 147 -23 300h48q6 -158 21 -294l310 37l8 -44z" />
    <glyph glyph-name="uni4EE4" unicode="&#x4ee4;" 
d="M837 350l-30 -31l-181 -184l-76 -75q73 -56 115 -99l-37 -38q-113 116 -307 241l36 33q76 -50 153 -107l124 120l111 112h-571v47h619l8 4zM565 414q-22 33 -69 80q-43 43 -89 79l35 26q47 -35 90 -78q47 -45 69 -78zM555 811q-11 -18 -25 -33q77 -88 202 -174
q122 -85 232 -130q-8 -7 -19 -20q-9 -11 -16 -22q-107 48 -224 133q-122 88 -203 178q-177 -200 -424 -312q-16 21 -34 37q300 131 468 366z" />
    <glyph glyph-name="uni4EE5" unicode="&#x4ee5;" 
d="M538 484q-48 108 -154 240l41 21q106 -128 156 -236zM477 247q1 -4 3 -10l10 -33q-206 -93 -272 -125q-33 -17 -49 -26l-23 -16q-7 18 -27 41q20 11 33 27q19 22 19 50v595h50v-617zM822 793q-6 -96 -14 -171q-9 -83 -21 -151q-27 -145 -76 -246q71 -64 137 -137
q71 -76 107 -129l-41 -31q-32 50 -96 122q-62 71 -128 134q-98 -171 -312 -265q-11 20 -35 42q236 92 330 295q44 96 68 235q11 64 19 143q7 72 12 162z" />
    <glyph glyph-name="uni4EEA" unicode="&#x4eea;" 
d="M666 577q-43 102 -122 210l40 19q85 -113 123 -205zM328 816q-46 -115 -108 -219v-669h-46v596q-59 -87 -122 -150q-8 19 -29 43q163 158 260 412zM900 768q-17 -94 -38 -172q-22 -86 -50 -158q-61 -157 -155 -267q122 -142 301 -205q-23 -20 -35 -41q-180 68 -299 209
q-129 -132 -326 -209q-3 7 -13 19l-16 18q102 38 184 92q78 50 141 116q-81 107 -137 258q-52 139 -86 325l46 7q30 -172 80 -305q53 -143 131 -248q88 107 144 257q26 69 46 150q19 74 34 163z" />
    <glyph glyph-name="uni4EEC" unicode="&#x4eec;" 
d="M284 814q-30 -107 -76 -214v-673h-46v575q-40 -76 -87 -141l-23 34q-4 7 -8 11q60 76 112 190q50 108 83 230zM352 643h47v-717h-47v717zM432 831q80 -107 118 -193l-41 -22q-36 82 -115 197zM914 0q0 -50 -36 -62q-18 -6 -58 -8q-18 -1 -44 -1h-53q-3 23 -18 48
q44 -1 87 -1q36 0 51 1q23 1 23 24v748h-288v45h336v-794z" />
    <glyph glyph-name="uni4EF0" unicode="&#x4ef0;" 
d="M301 821q-33 -103 -81 -204v-690h-46v601q-45 -82 -107 -159l-13 22q-4 7 -8 12l-8 11q138 160 218 419zM606 774q-87 -42 -212 -74v-539l176 62q2 -25 7 -40q-146 -56 -188 -74q-39 -16 -50 -27q-6 18 -25 41q6 3 12 8t11 13q13 19 13 47v536q65 19 120 38q64 24 98 43z
M915 169q0 -45 -32 -57q-26 -9 -140 -9q-1 9 -6 23l-10 23q97 -2 122 0q19 0 19 19v518h-198v-758h-46v802h291v-561z" />
    <glyph glyph-name="uni4EF6" unicode="&#x4ef6;" 
d="M330 816q-46 -120 -101 -219v-669h-47v590q-50 -79 -110 -144l-13 21l-9 12q-4 6 -8 10q153 159 242 412zM943 279h-281v-353h-48v353h-297v47h297v249h-179q-19 -52 -36 -90q-21 -44 -43 -76q-15 13 -41 27q44 60 78 156q30 86 48 194l46 -9q-15 -80 -38 -155h165v199
h48v-199h240v-47h-240v-249h281v-47z" />
    <glyph glyph-name="uni4F18" unicode="&#x4f18;" 
d="M839 628q-52 74 -140 153l34 23q39 -35 78 -76q41 -43 62 -72zM335 817q-45 -121 -109 -233v-657h-46v583q-22 -35 -50 -71q-24 -31 -53 -64q-10 22 -29 45q154 162 241 411zM855 1q24 0 32 28q7 27 10 126q15 -12 43 -21q-4 -107 -19 -141q-16 -37 -63 -37h-130
q-49 0 -66 16q-18 16 -18 64v420h47v-420q0 -35 41 -35h123zM945 592v-47h-371q-7 -100 -22 -180q-16 -94 -43 -168q-30 -83 -74 -147q-48 -69 -113 -116q-5 7 -16 17q-9 8 -19 15q63 44 108 109q43 60 71 139q26 71 42 160q13 77 19 171h-237v47h240q3 54 4 116q1 52 1 114
h47q0 -63 -1 -114q-1 -62 -4 -116h368z" />
    <glyph glyph-name="uni4F19" unicode="&#x4f19;" 
d="M947 628l-61 -145q-36 -81 -65 -130l-42 16q68 119 118 277zM328 352q29 49 51 133q20 73 30 153l44 -7q-10 -84 -29 -158q-22 -88 -51 -140zM333 816q-23 -60 -47 -112q-27 -58 -55 -107v-670h-49v588q-47 -72 -106 -138q-3 7 -13 23l-17 23q153 158 241 407zM653 827
v-107q0 -58 -1 -101q-3 -107 -10 -183q27 -192 98 -301q78 -121 223 -164q-23 -21 -32 -42q-125 43 -200 138q-72 89 -107 236q-29 -138 -96 -224q-73 -96 -206 -150q-5 8 -15 18q-8 9 -17 17q117 48 185 126q63 73 92 184q14 51 22 114q7 57 11 130q3 60 3 146q1 33 1 80
v83h49z" />
    <glyph glyph-name="uni4F1A" unicode="&#x4f1a;" 
d="M91 327h824v-47h-450q-57 -77 -112 -142q-60 -70 -118 -124l516 45q-66 79 -132 139l40 21q155 -138 230 -264l-43 -27q-22 37 -60 87l-509 -46q-60 -6 -86 -10q-21 -4 -34 -8l-12 40l-5 12q23 4 73 54q27 24 78 83l54 66q30 38 55 74h-309v47zM743 518v-45h-481v45h481z
M558 810l-13 -19l-14 -18q70 -80 181 -156q121 -83 242 -127q-16 -16 -34 -43q-118 47 -237 132q-108 78 -180 159q-153 -182 -415 -303q-16 24 -36 39q152 68 271 160q123 94 186 196z" />
    <glyph glyph-name="uni4F20" unicode="&#x4f20;" 
d="M328 816q-43 -111 -108 -220v-668h-47v595q-62 -91 -121 -149q-9 22 -30 43q165 158 260 412zM536 475l-22 -73l-21 -66h340l8 3l35 -21l-103 -121l-117 -133q69 -54 115 -100l-37 -36q-96 103 -253 204l36 30l51 -34q30 -20 52 -37l91 103l81 96h-366q30 84 62 185h-197
v46h210l21 72q13 41 21 72h-196v45h208l17 62q9 33 15 59l47 -7l-15 -55q-1 -7 -4 -15l-3 -11q0 -2 -1 -3l-8 -30h301v-45h-314q-18 -72 -41 -144h397v-46h-410z" />
    <glyph glyph-name="uni4F34" unicode="&#x4f34;" 
d="M848 757q-59 -131 -122 -230q-15 11 -42 24q31 42 64 104q29 55 55 115zM473 527q-18 41 -56 106l-72 114l40 18q39 -56 73 -112q39 -64 57 -104zM292 814q-30 -98 -75 -203v-685h-46v590q-44 -86 -99 -156q-9 20 -28 46q128 160 203 420zM941 227h-316v-299h-48v299
h-301v46h301v173h-259v45h259v342h48v-342h274v-45h-274v-173h316v-46z" />
    <glyph glyph-name="uni4F4D" unicode="&#x4f4d;" 
d="M629 664q-6 29 -21 76q-12 41 -27 83l44 13l28 -82q16 -48 22 -76zM907 597h-534v47h534v-47zM517 73q-8 84 -28 204q-22 130 -46 232l44 9q25 -104 48 -231q21 -120 30 -200zM349 816q-41 -106 -107 -217v-671h-48v595q-62 -91 -121 -149q-10 25 -30 43q166 161 260 412
zM952 15v-46h-626v46h353q14 50 30 117l29 134q27 139 46 263l50 -10q-21 -124 -50 -259q-32 -147 -59 -245h227z" />
    <glyph glyph-name="uni4F4E" unicode="&#x4f4e;" 
d="M326 816q-46 -120 -104 -218v-670h-46v595q-59 -89 -122 -153l-13 22l-9 12q-4 6 -8 10q163 160 258 415zM622 138q64 -100 93 -178l-39 -16q-26 79 -92 182zM674 442q-14 140 -20 287q-52 -11 -113 -22q-53 -9 -114 -18v-247h247zM725 396q22 -185 59 -290
q40 -112 92 -114q31 -1 45 157q16 -15 37 -23q-12 -105 -33 -150q-19 -41 -49 -40q-77 2 -128 130q-23 59 -41 145q-17 81 -29 185h-251v-399l163 43q0 -20 2 -40q-140 -42 -182 -56q-38 -12 -49 -21q-6 23 -21 44q7 2 13 6q7 4 13 11q15 15 15 40v699h1l-1 1q137 20 256 46
q136 30 209 58l45 -37q-39 -14 -89 -27q-45 -12 -103 -25q6 -161 21 -297h227v-46h-222z" />
    <glyph glyph-name="uni4F53" unicode="&#x4f53;" 
d="M314 817q-38 -111 -95 -223v-666h-46v585q-43 -71 -100 -139q-8 16 -30 43q141 156 226 412zM676 571q46 -134 123 -251q79 -121 163 -183q-7 -6 -19 -18l-18 -21q-85 70 -164 197q-76 123 -125 266v-393h176v-45h-176v-192h-47v192h-184v45h184v392q-51 -143 -129 -266
q-79 -127 -165 -198q-13 20 -35 35q84 64 164 187q77 118 127 253h-261v46h299v214h47v-214h312v-46h-272z" />
    <glyph glyph-name="uni4F55" unicode="&#x4f55;" 
d="M324 818q-35 -103 -94 -214v-677h-47v596q-50 -82 -106 -144q-5 10 -13 22q-10 14 -17 22q69 73 131 183q61 107 101 225zM419 478v-245h209v245h-209zM419 189v-73h-46v406h300v-333h-254zM956 683h-81v-676q0 -56 -45 -69q-22 -6 -73 -8q-23 -1 -56 -1h-69q-2 10 -8 25
q-5 12 -12 26q59 -2 118 -2q47 0 70 1q28 1 28 27v677h-495v46h623v-46z" />
    <glyph glyph-name="uni4F5C" unicode="&#x4f5c;" 
d="M352 815q-46 -116 -107 -218v-669h-49v592q-62 -88 -120 -146q-4 9 -13 22q-10 15 -17 22q163 156 260 411zM629 617v-168h304v-45h-304v-175h318v-46h-318v-256h-48v690h-87q-69 -129 -149 -218l-18 16l-20 15q139 146 225 389l45 -12q-30 -83 -61 -144h437v-46h-324z
" />
    <glyph glyph-name="uni4F60" unicode="&#x4f60;" 
d="M327 816q-45 -114 -108 -220v-668h-46v596q-56 -84 -122 -150q-9 23 -29 43q163 158 260 412zM511 408q-54 -213 -152 -345q-6 5 -20 14q-11 7 -22 13q47 58 86 147q37 83 61 180zM672 587v-595q0 -45 -30 -57q-26 -9 -124 -9q-5 23 -17 49q34 -1 67 -1q28 0 40 1
q17 0 17 17v595h-175q-40 -102 -98 -184l-30 22q-6 5 -10 7q53 70 96 178q40 99 66 218l47 -10q-20 -89 -54 -185h442l10 2l31 -10q-23 -122 -44 -200l-41 8l15 71q8 44 14 83h-222zM809 423q103 -183 134 -341l-46 -15q-29 158 -130 342z" />
    <glyph glyph-name="uni4F69" unicode="&#x4f69;" 
d="M277 815q-16 -57 -32 -103q-19 -55 -39 -101v-682h-44v587q-43 -85 -95 -152q-3 7 -12 23l-16 22q125 158 194 417zM420 618h350v-42h-150v-120h136v-346q0 -31 -19 -40q-9 -5 -28 -7q-8 -1 -20 -1h-24q-3 17 -14 37h58q9 0 9 10v311h-101v-481h-38v481h-106v-363h-38
v399h141v120h-156v42zM866 781v-60q0 -6 -1 -10l-1 -236q0 -77 1 -136q0 -68 2 -121q4 -118 13 -177q9 -66 27 -66q5 0 9 15q3 14 5 41q4 46 4 127l16 -15q9 -6 16 -12q-3 -122 -12 -158q-11 -42 -43 -42q-59 0 -73 222q-3 49 -4 117q-2 57 -2 137l-1 331h-452v-241
q0 -34 -1 -64q0 -37 -2 -70q-3 -80 -12 -150q-9 -82 -26 -150q-19 -77 -46 -137q-13 15 -38 24q27 59 45 133q16 65 25 143q7 65 10 142l2 66v347h539z" />
    <glyph glyph-name="uni4F73" unicode="&#x4f73;" 
d="M604 644h-227v46h227v143h48v-143h235v-46h-235v-166h280v-46h-605v46h277v166zM329 817q-39 -113 -99 -225v-666h-48v583q-44 -70 -100 -135q-11 22 -30 43q145 156 232 412zM953 14v-47h-661v47h312v196h-248v47h248v130h48v-130h250v-47h-250v-196h301z" />
    <glyph glyph-name="uni4F7F" unicode="&#x4f7f;" 
d="M336 821q-42 -107 -107 -216v-683h-46v612q-60 -86 -125 -151q-14 23 -31 44q167 156 265 408zM606 332q1 15 1 33v147h-213v-180h212zM654 512v-147q0 -18 -1 -33h220v180h-219zM649 289q-6 -59 -21 -105q-18 -54 -51 -98q155 -90 385 -118q-7 -7 -16 -21
q-7 -10 -14 -24q-228 34 -384 129q-82 -84 -238 -130l-6 9q-3 6 -7 11q-9 13 -15 19q151 41 227 117q-102 71 -158 170l41 16q50 -87 146 -152q29 38 45 85q14 41 20 92h-254v266h258v114h-292v45h292v116h47v-116h301v-45h-301v-114h265v-266h-270z" />
    <glyph glyph-name="uni4F9B" unicode="&#x4f9b;" 
d="M331 816q-46 -116 -107 -219v-669h-48v594q-63 -91 -120 -148q-12 26 -30 44q164 159 260 411zM535 161q-74 -133 -187 -233q-6 6 -18 16l-22 16q113 88 181 215zM757 171q124 -118 183 -219l-40 -27q-61 107 -180 224zM519 288h224v273h-224v-273zM954 288v-47h-648v47
h166v273h-140v47h140v212h47v-212h224v212h47v-212h151v-47h-151v-273h164z" />
    <glyph glyph-name="uni4FBF" unicode="&#x4fbf;" 
d="M317 817q-40 -116 -98 -227v-662h-46v581q-48 -78 -98 -135q-8 16 -30 43q142 158 227 412zM611 304q1 14 1 32v91h-208v-123h207zM404 466h208v121h-208v-121zM659 587v-121h195v121h-195zM854 427h-195v-91l-2 -32h197v123zM653 263q-7 -57 -26 -102q-21 -52 -59 -94
q151 -72 391 -91q-18 -18 -29 -44q-242 24 -396 103q-42 -34 -99 -62q-62 -30 -141 -51q-10 24 -28 40q146 35 225 97q-102 63 -156 156l41 16q50 -85 151 -142q36 36 56 83q17 40 24 91h-249v365h254v99h-289v44h619v-44h-283v-99h242v-365h-248z" />
    <glyph glyph-name="uni4FDD" unicode="&#x4fdd;" 
d="M336 816q-47 -116 -107 -214v-673h-46v602q-62 -90 -125 -153l-23 34q-4 6 -8 10q168 158 265 408zM424 527h417v212h-417v-212zM690 292q111 -191 283 -281l-17 -18q-11 -12 -17 -20q-168 101 -284 299v-346h-49v346q-119 -201 -298 -298q-15 22 -34 38q179 87 297 280
h-272v46h307v144h-228v302h511v-302h-234v-144h293v-46h-258z" />
    <glyph glyph-name="uni4FE1" unicode="&#x4fe1;" 
d="M613 683q-22 59 -71 131l43 18q47 -69 74 -129zM313 817q-38 -110 -91 -212v-681h-45v601q-50 -83 -108 -150q-4 9 -13 21q-10 15 -17 21q145 158 230 412zM414 198v-186h406v186h-406zM370 240h495v-312h-45v42h-406v-45h-44v315zM383 384h473v-42h-473v42zM856 481
h-473v42h473v-42zM938 662v-43h-629v43h629z" />
    <glyph glyph-name="uni4FEE" unicode="&#x4fee;" 
d="M294 813q-31 -96 -81 -200v-687h-46v599q-55 -95 -114 -165q-9 19 -28 45q141 162 224 421zM310 557h43v-480h-43v480zM536 672q54 -93 157 -162q111 68 166 167h-320zM921 706q-57 -132 -190 -220q51 -28 107 -49q60 -22 126 -35q-15 -15 -28 -39q-135 31 -245 99
q-65 -38 -145 -65q-73 -25 -155 -40q-10 21 -23 38q79 13 147 35q76 24 138 57q-90 65 -142 149q-49 -69 -105 -121l-38 30q130 111 203 289l45 -12q-19 -44 -51 -103h319l9 3zM834 267q-52 -59 -147 -108q-86 -45 -191 -75l-21 27l-8 8q100 24 186 66q92 45 142 98z
M740 368q-43 -46 -117 -87q-68 -39 -144 -64q-9 15 -29 31q74 23 139 58q72 37 112 78zM943 158q-70 -84 -208 -144q-127 -55 -298 -84q-10 22 -26 41q165 24 290 75q133 54 199 131z" />
    <glyph glyph-name="uni500D" unicode="&#x500d;" 
d="M927 675h-578v45h271q-11 52 -33 112l44 8q23 -55 37 -120h259v-45zM493 455q-15 87 -69 186l40 13q53 -93 71 -186zM325 818q-24 -63 -49 -117q-28 -60 -57 -111v-664h-46v588q-23 -36 -52 -73q-25 -32 -54 -64q-12 24 -29 43q155 163 242 412zM444 242v-222h372v222
h-372zM398 287h465v-357h-47v46h-372v-49h-46v360zM953 434v-45h-645v45h389q54 103 93 226l47 -14q-1 -1 -1 -3q-1 -1 -1 -2l-43 -104q-28 -63 -49 -103h210z" />
    <glyph glyph-name="uni503E" unicode="&#x503e;" 
d="M672 602q20 51 39 120h-203v43h441v-43h-185l-22 -62q-14 -37 -23 -58h180v-455h-45v411h-262v-412h-44v456h124zM280 819q-34 -108 -74 -194v-699h-45v608q-51 -96 -111 -170q-13 25 -28 44q65 77 122 190q54 110 91 233zM493 257q1 -3 2 -10l1 -11q2 -12 4 -18
l-145 -87q-31 -19 -39 -30q-7 22 -24 45q5 3 10 7t9 11q10 17 10 43v518h43v-194h144v-44h-144v-299zM739 282q0 -53 -7 -92q-9 -53 -31 -96q-27 -51 -75 -91q-54 -46 -135 -78q-9 21 -26 34q75 28 126 69q44 37 70 84q21 39 30 88q6 36 6 83v211h42v-212zM760 113
q52 -34 105 -76q56 -45 86 -75l-30 -37q-69 74 -192 157z" />
    <glyph glyph-name="uni505A" unicode="&#x505a;" 
d="M292 814q-31 -93 -80 -197v-691h-46v604q-54 -95 -114 -166l-13 22l-9 12q-4 7 -7 10q140 159 224 418zM346 336v-255h196v255h-196zM346 37v-63h-44v406h120v206h-153v45h153v191h46v-191h145v-45h-145v-206h119v-343h-241zM688 577q5 -48 11 -90q7 -49 16 -92
q21 -101 54 -180q35 74 58 170q22 90 35 205h-170zM907 590q-16 -134 -43 -235q-28 -109 -71 -191q32 -64 74 -112q45 -54 101 -89q-21 -19 -32 -39q-54 37 -97 88q-41 47 -73 107q-75 -119 -200 -196q-16 22 -33 35q136 78 211 208q-32 73 -54 163q-19 76 -31 165
q-27 -68 -56 -116q-18 21 -37 31q48 74 83 191q31 102 51 233l44 -7q-8 -48 -18 -98q-10 -45 -22 -94h249v-44h-46z" />
    <glyph glyph-name="uni505C" unicode="&#x505c;" 
d="M325 818q-47 -125 -107 -232v-659h-46v584q-48 -74 -102 -135q-11 24 -29 44q152 159 240 412zM392 242h467v-42h-209v-211q0 -42 -32 -52q-18 -5 -58 -6q-17 -1 -43 -1h-54q-1 9 -7 21l-10 21q110 -2 136 0q20 1 20 17v211h-210v42zM312 373h629v-152h-45v109h-540v-109
h-44v152zM807 589h-358v-101h358v101zM854 628v-179h-450v179h450zM946 735v-43h-621v43h292q-18 39 -49 88l43 14q37 -52 57 -102h278z" />
    <glyph glyph-name="uni50A8" unicode="&#x50a8;" 
d="M409 613q-38 67 -111 140l34 24q35 -35 65 -69q33 -39 48 -66zM277 822q-15 -52 -36 -108q-19 -50 -43 -106v-679h-44v590q-42 -82 -94 -149q-11 22 -29 42q63 77 117 190q52 109 86 231zM508 122q6 -24 13 -41q-104 -66 -132 -85q-29 -20 -39 -32q-7 19 -25 44q5 3 9 7
q6 6 10 13q11 19 11 46v389h-107v46h152v-452zM860 315h-249v-119h249v119zM860 30v125h-249v-125h249zM741 475q-62 -70 -118 -117h281v-423h-44v53h-249v-57h-43v382q-53 -39 -92 -64q-16 23 -32 39q126 71 237 187h-203v45h171v147h-146v43h146v123h45v-123h132v-43h-132
v-147h28q107 122 174 270l44 -13q-64 -138 -161 -257h172v-45h-210z" />
    <glyph glyph-name="uni50CF" unicode="&#x50cf;" 
d="M326 816q-47 -126 -107 -231v-655h-47v577q-44 -67 -103 -133q-10 19 -29 43q152 160 241 412zM563 458q21 32 33 67q9 28 12 57h-204v-124h159zM480 720q-33 -47 -79 -98h208q36 40 69 98h-198zM844 582h-193q-2 -30 -9 -58q-10 -35 -27 -66h229v124zM893 332
q-46 -32 -120 -72q28 -80 76 -142q51 -66 113 -97q-8 -6 -18 -18q-9 -9 -16 -19q-131 75 -192 257q-34 -18 -58 -28q27 -79 21 -154q-7 -73 -42 -103q-31 -28 -79 -28q-29 0 -64 3q-2 22 -13 43q36 -4 68 -4q38 0 54 17q52 43 25 173q-64 -62 -160 -118q-93 -54 -181 -83
l-14 19q-9 11 -15 17q97 29 196 85q104 58 163 121q-10 35 -30 70q-55 -48 -140 -97q-80 -46 -154 -73q-10 17 -28 34q78 24 162 70q89 48 140 96q-20 29 -55 61q-80 -64 -211 -110q-15 20 -30 33q83 27 144 63q55 31 93 69h-169v163q-38 -34 -68 -57q-13 19 -32 29
q79 57 145 138q56 69 92 142l47 -8q-19 -36 -36 -63h198l9 3l29 -21q-15 -29 -38 -62q-20 -30 -45 -59h230v-205h-304q-11 -15 -26 -29q70 -58 106 -142q115 60 193 117z" />
    <glyph glyph-name="uni5143" unicode="&#x5143;" 
d="M856 703h-706v47h706v-47zM849 -9q33 0 43 33q9 32 12 153q22 -17 46 -22q-5 -127 -22 -167q-20 -43 -77 -43h-158q-57 0 -77 18q-20 17 -20 68v388h-211q-8 -92 -23 -157q-17 -79 -47 -137q-34 -66 -86 -113q-57 -51 -139 -83q-12 22 -31 36q78 30 132 77q49 44 81 105
q27 55 43 128q13 59 20 144h-270v46h872v-46h-293v-388q0 -40 52 -40h153z" />
    <glyph glyph-name="uni5145" unicode="&#x5145;" 
d="M524 675q-11 27 -37 69q-23 38 -48 73l44 17q26 -36 49 -72q26 -41 39 -67zM846 0q32 0 41 29q10 28 13 131q18 -15 46 -23q-5 -112 -23 -146q-19 -37 -74 -37h-166q-58 0 -78 17q-21 17 -21 65v313l-172 -10q-8 -86 -25 -146q-18 -67 -52 -116q-72 -103 -239 -151
q-11 22 -30 41q159 42 225 134q30 43 47 104q15 53 22 131q-119 -7 -158 -11q-36 -4 -51 -9q-1 5 -3 10l-14 41q21 2 69 49q28 27 71 77q27 30 50 60q28 35 51 67h-305v47h862v-47h-493q-52 -71 -104 -131q-56 -64 -109 -113l536 28q-76 73 -160 136l37 24
q170 -124 266 -242l-40 -28q-21 27 -61 68l-171 -10v-316q0 -36 53 -36h160z" />
    <glyph glyph-name="uni5148" unicode="&#x5148;" 
d="M855 -11q31 0 39 28q9 27 12 131q8 -6 22 -12q10 -6 23 -10q-5 -111 -22 -146q-18 -37 -71 -37h-156q-56 0 -76 17q-19 16 -19 64v323h-216q-9 -84 -25 -143q-19 -69 -51 -119q-72 -112 -230 -164q-10 20 -30 40q151 45 218 148q30 46 47 109q14 53 22 129h-275v47h409
v224h-226q-22 -48 -44 -86q-24 -44 -50 -75q-24 15 -41 23q50 61 91 154q37 84 57 169l48 -10q-14 -55 -42 -128h207v168h48v-168h344v-47h-344v-224h411v-47h-281v-324q0 -34 51 -34h150z" />
    <glyph glyph-name="uni5149" unicode="&#x5149;" 
d="M856 740q-38 -60 -75 -112q-44 -62 -78 -100l-40 18q83 97 146 214zM298 528q-51 95 -146 213l39 20q42 -51 83 -109q43 -61 65 -100zM848 -7q23 0 31 15q7 14 9 65q18 -12 45 -18q-5 -65 -20 -86q-17 -22 -62 -22h-172q-58 0 -78 16q-20 15 -20 63v386h-167
q-7 -100 -22 -167q-18 -80 -50 -137q-71 -125 -244 -184q-11 22 -32 41q166 51 233 168q30 52 46 126q13 61 19 153h-292v47h402v374h49v-374h398v-47h-292v-386q0 -33 52 -33h167z" />
    <glyph glyph-name="uni514D" unicode="&#x514d;" 
d="M531 535q-5 -59 -11 -104q-7 -53 -17 -98h318v202h-290zM454 333q10 43 17 97q5 42 10 105h-269v-202h242zM324 707q-56 -71 -115 -127h299q51 52 96 127h-280zM844 -7q35 0 45 25t13 121q22 -14 46 -20q-6 -105 -24 -137q-20 -34 -78 -34h-185q-63 0 -84 15
q-22 16 -22 63v262h-64q-39 -130 -125 -211q-99 -93 -276 -139q-11 25 -28 41q167 41 260 122q82 72 119 187h-277v252l-36 -30l-38 -28q-15 21 -36 33q97 64 179 156q71 80 116 162l53 -9l-22 -37l-25 -37h276l9 3l31 -22q-44 -79 -108 -151h307v-292h-267v-262
q0 -33 60 -33h181z" />
    <glyph glyph-name="uni5165" unicode="&#x5165;" 
d="M339 802q57 -40 104 -91q42 -46 79 -103q31 -47 63 -110l82 -169l28 -56q32 -60 65 -105q39 -54 84 -96q49 -47 110 -82q-20 -28 -24 -52q-85 48 -151 120q-30 33 -57 72q-25 35 -48 77q-20 35 -43 80l-78 163q-22 45 -42 80q-57 -215 -157 -359q-102 -148 -262 -240
q-18 18 -44 38q169 90 273 247q100 150 152 376q-35 51 -72 91q-43 45 -91 79z" />
    <glyph glyph-name="uni5168" unicode="&#x5168;" 
d="M524 2h402v-45h-850v45h399v190h-274v44h274v180h-276v45h608v-45h-283v-180h288v-44h-288v-190zM543 825q-9 -14 -17 -25q89 -109 207 -202q53 -43 115 -84q56 -38 121 -75q-25 -19 -34 -40q-63 39 -117 77q-59 42 -112 85q-113 93 -206 202q-174 -230 -433 -360
q-13 23 -34 37q139 67 265 175q129 110 202 229z" />
    <glyph glyph-name="uni516C" unicode="&#x516c;" 
d="M390 785q-106 -253 -286 -409q-21 19 -44 33q182 144 280 390zM664 298q72 -83 139 -173q72 -97 108 -162l-45 -25l-31 52l-39 58l-184 -11q-86 -5 -142 -9q-124 -7 -182 -12q-60 -4 -86 -7l-20 -4q-7 -1 -13 -3q-8 29 -19 51q28 6 87 86q37 42 106 148q38 57 71 114
q39 65 68 123l50 -22l-68 -118l-72 -115q-79 -121 -151 -205l524 29q-36 50 -72 95l-72 89zM649 807q122 -249 309 -392q-19 -14 -40 -40q-184 156 -315 413z" />
    <glyph glyph-name="uni5171" unicode="&#x5171;" 
d="M393 166q-110 -139 -287 -240l-18 18q-11 11 -18 17q79 43 153 103q79 63 121 120zM636 184l156 -115q83 -66 131 -110l-43 -31q-105 102 -283 231zM342 301h317v262h-317v-262zM953 301v-47h-901v47h241v262h-197v47h197v213h49v-213h317v213h49v-213h206v-47h-206v-262
h245z" />
    <glyph glyph-name="uni5173" unicode="&#x5173;" 
d="M337 627q-30 80 -100 171l39 21q71 -86 103 -168zM544 315q116 -260 403 -337q-18 -18 -33 -44q-283 88 -407 354q-14 -50 -40 -94q-30 -50 -75 -94q-51 -48 -121 -90q-76 -45 -177 -83q-14 23 -34 42q102 37 178 81q69 40 118 86q43 42 70 90q24 42 35 89h-387v47h396
q5 36 5 85v119h-345v48h475q70 100 118 214l50 -20q-14 -27 -27 -49l-29 -51q-33 -56 -60 -94h218v-48h-349v-120q0 -45 -4 -84h408v-47h-386z" />
    <glyph glyph-name="uni5176" unicode="&#x5176;" 
d="M298 185h405v132h-405v-132zM298 660v-122h405v122h-405zM298 361h405v133h-405v-133zM942 140h-883v45h191v475h-165v45h165v126h48v-126h405v126h48v-126h169v-45h-169v-475h191v-45zM416 83q-63 -41 -159 -84q-85 -39 -175 -70q-11 20 -32 39q86 26 175 65
q93 42 144 79zM617 108q87 -30 179 -71q84 -37 147 -71l-39 -35q-120 72 -318 145z" />
    <glyph glyph-name="uni5177" unicode="&#x5177;" 
d="M262 196h485v110h-485v-110zM262 741v-104h485v104h-485zM262 452v-106h485v106h-485zM747 596h-485v-103h485v103zM945 151h-887v45h157v588h581v-588h149v-45zM384 103q-55 -48 -140 -97q-81 -46 -161 -78q-11 15 -34 35q81 32 160 76q85 48 128 90zM650 130
q181 -81 298 -160l-37 -37q-113 79 -291 164z" />
    <glyph glyph-name="uni5185" unicode="&#x5185;" 
d="M895 3q0 -54 -39 -66q-21 -6 -69 -8q-20 -1 -51 -1h-62q-4 22 -18 51q52 -2 105 -2q42 0 62 1q25 1 25 25v609h-324q-2 -38 -6 -69q-5 -39 -15 -73q84 -72 168 -154q89 -86 136 -143l-40 -31q-41 53 -121 135q-75 76 -156 148q-30 -83 -88 -151q-67 -78 -173 -139
q-12 20 -33 35q85 46 143 105q52 52 84 113q27 53 40 115q10 49 12 109h-321v-687h-48v734h370v173h49v-173h370v-656z" />
    <glyph glyph-name="uni518C" unicode="&#x518c;" 
d="M790 433v287h-192v-287h192zM382 433v287h-172v-287h172zM953 387h-116v-394q0 -47 -33 -58q-24 -9 -142 -9q-5 20 -18 46q93 -3 125 -1q21 1 21 23v393h-193q-2 -62 -9 -116q-7 -65 -19 -121q-14 -64 -34 -117q-23 -60 -54 -107q-15 23 -36 33q28 45 49 100
q19 50 31 109q11 52 18 111q5 50 7 108h-121v-385q0 -45 -32 -57q-27 -9 -137 -9q-3 19 -17 45q96 -2 119 0q20 1 20 20v386h-174q-2 -63 -9 -118q-7 -65 -20 -122q-15 -64 -37 -118q-25 -60 -58 -107q-11 18 -37 34q32 45 55 100q21 50 35 110q12 52 18 112q6 50 8 109
h-115v46h116v332h265v-332h122v332h286v-332h116v-46z" />
    <glyph glyph-name="uni518D" unicode="&#x518d;" 
d="M784 221v150h-264v-150h264zM215 221h258v150h-258v-150zM215 560v-145h258v145h-258zM520 560v-145h264v145h-264zM955 176h-124v-180q0 -50 -37 -62q-33 -9 -168 -9q-7 26 -20 48q49 -1 97 -1q40 0 57 1q24 1 24 23v180h-569v-252h-47v252h-121v45h121v384h305v117
h-392v46h840v-46h-401v-117h311v-384h124v-45z" />
    <glyph glyph-name="uni51B3" unicode="&#x51b3;" 
d="M214 576q-21 39 -66 95q-43 53 -88 98l38 23q44 -44 88 -95q45 -55 68 -93zM257 301q-38 -84 -82 -169q-47 -94 -86 -160l-41 30q87 139 174 330zM619 508q0 -41 -1 -70q-2 -39 -6 -73h187v258h-180v-115zM651 319q38 -132 113 -219q78 -92 193 -131q-21 -21 -33 -42
q-239 95 -319 392q-10 -57 -31 -107q-22 -56 -58 -104q-39 -53 -94 -98q-60 -48 -139 -86q-10 17 -32 38q75 34 132 78q52 40 89 87q34 44 56 95q19 45 29 97h-254v46h261q4 34 6 73q1 29 1 69v116h-212v46h212v161h48v-161h226v-304h111v-46h-305z" />
    <glyph glyph-name="uni51B5" unicode="&#x51b5;" 
d="M214 577q-48 88 -154 192l36 25q105 -99 159 -186zM259 301l-83 -171q-49 -95 -88 -159l-41 32q91 143 177 329zM427 436h418v305h-418v-305zM875 -19q23 0 30 29q7 28 9 128q18 -15 43 -20q-5 -109 -19 -143q-15 -36 -59 -36h-110q-47 0 -63 16q-16 15 -16 61v374h-141
q-6 -95 -18 -159q-15 -75 -41 -129q-58 -118 -200 -173q-12 23 -32 38q136 50 190 158q24 49 37 119q11 58 16 146h-121v396h514v-396h-156v-375q0 -34 36 -34h101z" />
    <glyph glyph-name="uni51C6" unicode="&#x51c6;" 
d="M683 664q-8 27 -30 69q-19 37 -42 73l40 16q54 -78 76 -137zM201 551q-20 41 -62 104q-40 59 -81 111l41 20q95 -115 145 -209zM58 1q34 58 78 152q42 91 77 178l41 -25q-34 -84 -73 -171q-42 -94 -76 -160zM421 47h229v160h-229v-160zM650 606h-229v-155h229v155z
M650 407h-229v-156h229v156zM943 2h-522v-74h-45v623q-54 -90 -116 -153q-12 19 -37 33q71 70 132 175q59 102 98 216l45 -10q-26 -77 -67 -162h489v-44h-223v-155h202v-44h-202v-156h202v-44h-202v-160h246v-45z" />
    <glyph glyph-name="uni51E0" unicode="&#x51e0;" 
d="M869 -2q25 0 33 38q7 34 10 152q21 -18 46 -23q-5 -127 -20 -168q-17 -46 -67 -46h-121q-48 0 -65 19q-18 19 -18 75v675h-351v-256q0 -74 -7 -135q-10 -78 -31 -143q-26 -76 -69 -138q-48 -70 -119 -122q-14 20 -35 37q68 50 113 115q41 57 64 127q20 60 29 132
q3 31 5 65q1 29 1 63v302h449v-723q0 -46 39 -46h114z" />
    <glyph glyph-name="uni51FA" unicode="&#x51fa;" 
d="M886 336v-407h-51v59h-718v349h52v-302h306v371h-317v332h49v-285h268v378h50v-378h271v285h50v-332h-321v-371h310v301h51z" />
    <glyph glyph-name="uni51FB" unicode="&#x51fb;" 
d="M525 37h267v266h48v-377h-48v64h-634v314h50v-267h268v355h-400v47h400v182h-325v47h325v164h49v-164h331v-47h-331v-182h402v-47h-402v-355z" />
    <glyph glyph-name="uni5206" unicode="&#x5206;" 
d="M385 795q-102 -251 -291 -400q-19 22 -42 34q190 138 284 380zM805 449v-10q0 -12 -1 -16q-13 -238 -26 -332q-14 -100 -40 -128q-23 -25 -70 -26q-60 -4 -161 4q-2 13 -5 24q-5 14 -12 24q46 -5 99 -7l62 -1q32 0 44 12q22 21 35 111q14 92 25 298h-310
q-11 -84 -30 -148q-22 -75 -58 -134q-41 -65 -101 -113q-65 -51 -156 -83q-13 24 -30 38q87 29 150 77q56 44 94 105q34 53 54 123q17 58 27 135h-211v47h621zM664 811q107 -239 289 -368q-19 -13 -39 -39q-176 140 -293 389z" />
    <glyph glyph-name="uni5207" unicode="&#x5207;" 
d="M432 263q3 -17 10 -41l-225 -103q-27 -13 -41 -21q-11 -7 -18 -13q-8 23 -25 44q15 8 25 21q13 18 13 44v304l-128 -29l-9 44l137 30v251h47v-240l204 46l9 -43l-213 -48v-337zM932 707q-3 -101 -6 -178l-6 -148q-6 -135 -13 -216q-15 -155 -44 -191q-23 -30 -69 -35
q-56 -2 -140 3q-2 30 -15 49q40 -3 85 -4q16 -1 33 -1h22q29 0 40 16q25 29 39 179q15 154 25 510h-237l-4 -115q-3 -61 -7 -112q-6 -59 -15 -109q-10 -55 -24 -103q-31 -106 -87 -182q-62 -85 -158 -139q-20 26 -38 36q94 50 154 131q55 73 85 174q14 46 23 99q8 48 14 104
q4 48 7 107l3 109h-173v46h506v-30z" />
    <glyph glyph-name="uni5219" unicode="&#x5219;" 
d="M363 151q51 -40 98 -82q53 -48 79 -78l-32 -36q-65 75 -176 165zM531 775v-599h-47v555h-316v-556h-46v600h409zM896 828v-822q0 -51 -39 -65q-31 -9 -169 -9q-5 24 -19 48q26 -1 53 -1h101q26 1 26 26v823h47zM710 744v-588h-46v588h46zM347 656v-281q0 -66 -9 -119
q-11 -66 -36 -120q-29 -63 -78 -113q-54 -56 -134 -98q-11 21 -32 35q77 40 129 92q47 47 74 104q23 50 32 110q8 48 8 110v280h46z" />
    <glyph glyph-name="uni521B" unicode="&#x521b;" 
d="M458 -16q36 0 47 27q10 27 13 122q20 -14 45 -19q-5 -105 -24 -138q-21 -36 -80 -36h-200q-65 0 -87 17q-23 17 -23 70v439h346v-9q0 -10 -1 -14q-8 -132 -18 -190q-9 -57 -25 -75q-17 -17 -51 -20h-40q-31 0 -54 2q-2 23 -13 44q26 -3 56 -4q11 -1 21 -1h14q21 0 29 9
q11 12 19 59q8 50 15 155h-252v-395q0 -43 64 -43h199zM369 816q-5 -10 -10 -22l-11 -21q68 -67 135 -144q70 -79 107 -132l-35 -30q-33 49 -100 127q-59 69 -127 141q-101 -179 -256 -302q-18 18 -37 30q95 71 173 170q75 96 116 196zM704 169h-46v546h46v-546zM903 819
v-816q0 -50 -39 -64q-33 -9 -170 -8q-5 20 -18 46q115 -3 153 -1q27 1 27 26v817h47z" />
    <glyph glyph-name="uni521D" unicode="&#x521d;" 
d="M256 671q-28 62 -85 139l36 20q63 -76 87 -135zM379 199q-38 56 -116 152v-423h-49v414q-70 -84 -140 -143q-13 29 -31 45q82 62 159 160q81 101 126 202h-270v45h295v-1l9 3l29 -20q-42 -108 -126 -225q7 -7 19 -21l22 -25q54 56 84 100l38 -28q-44 -52 -98 -98l48 -58
q21 -25 33 -38zM916 713q-6 -203 -12 -330q-7 -136 -15 -220q-15 -159 -45 -195q-24 -31 -72 -34q-55 -3 -148 3q-2 27 -14 47q42 -4 90 -5q17 -1 35 -1h24q28 0 41 16q27 29 42 182q15 154 26 520h-225q-4 -72 -9 -132q-5 -65 -12 -121q-16 -120 -44 -210
q-59 -195 -195 -309q-11 16 -38 36q133 102 190 292q25 86 40 203q6 53 11 115q4 57 7 126h-186v47h509v-30z" />
    <glyph glyph-name="uni5229" unicode="&#x5229;" 
d="M330 530h223v-46h-223v-22q16 -15 47 -47l61 -63l97 -103l-29 -38q-25 30 -80 91l-96 104v-478h-48v479q-43 -100 -99 -188q-58 -93 -114 -146q-15 27 -29 43q146 139 231 368h-211v46h222v196q-106 -20 -209 -32q-1 7 -6 20q-3 9 -8 19q124 16 232 39q125 26 189 54
l37 -37q-73 -29 -187 -53v-206zM689 171h-47v545h47v-545zM903 824v-819q0 -50 -39 -64q-31 -9 -169 -9q-6 25 -19 48q25 -1 52 -1h101q27 3 27 26v819h47z" />
    <glyph glyph-name="uni522B" unicode="&#x522b;" 
d="M442 744h-295v-226h295v226zM488 473h-386v315h386v-315zM501 345v-10l-1 -15q-9 -186 -19 -263t-29 -99t-55 -23q-19 -1 -47 0q-33 0 -63 2q-2 25 -14 47q30 -3 65 -4q12 -1 25 -1h16q24 0 33 10q13 16 22 84q10 73 17 227h-164q-8 -66 -22 -118q-15 -58 -38 -103
q-52 -101 -152 -156q-13 23 -34 35q94 49 143 141q42 79 57 201h-182v45h187l7 100h47l-7 -100h208zM688 167h-47v547h47v-547zM903 814v-815q0 -51 -38 -65q-33 -9 -167 -8q-6 24 -19 47q49 -1 96 -1q38 0 54 1q27 0 27 25v816h47z" />
    <glyph glyph-name="uni5230" unicode="&#x5230;" 
d="M355 85q23 5 55 10l167 32l2 -43l-497 -99l-12 47l239 44v189h-204v44h204v119h46v-119h212v-44h-212v-180zM430 665q47 -55 88 -112q47 -63 69 -103l-37 -24l-19 32l-25 38l-196 -21q-76 -8 -112 -13q-38 -5 -54 -8q-15 -3 -23 -7l-7 24q-5 16 -10 24q10 1 23 14
q10 10 26 31q18 23 45 68q35 58 60 111h-180v44h508v-44h-274q-31 -60 -63 -113q-35 -58 -69 -101l299 29l-42 57q-23 30 -43 53zM697 147h-45v603h45v-603zM900 813v-788q0 -51 -36 -64q-19 -6 -57 -7q-30 -2 -90 -2q-5 23 -20 51q99 -3 135 -1q21 1 21 22v789h47z" />
    <glyph glyph-name="uni5236" unicode="&#x5236;" 
d="M351 514h256v-45h-256v-118h214v-285q0 -39 -26 -49q-21 -8 -118 -8q-6 25 -17 43q81 -2 101 0q15 0 15 15v239h-169v-379h-46v379h-159v-296h-45v341h204v118h-254v45h254v123h-149q-15 -36 -28 -62q-15 -31 -30 -53q-6 4 -20 10l-24 9q35 49 63 121q26 67 43 144l47 -9
q-18 -68 -34 -114h132v147h46v-147h217v-46h-217v-123zM741 191h-45v545h45v-545zM919 827v-818q0 -53 -38 -67q-18 -6 -58 -8q-30 -2 -93 -2l-8 26q-5 17 -10 28q100 -3 139 -1q21 0 21 22v820h47z" />
    <glyph glyph-name="uni5237" unicode="&#x5237;" 
d="M164 748v-155h367v155h-367zM164 548v-101q0 -64 -3 -118q-3 -69 -12 -129q-9 -69 -26 -127q-19 -65 -46 -115q-19 19 -37 28q26 48 43 109q16 54 24 119q8 55 11 121l2 57v400h457v-244h-413zM578 102q0 -34 -22 -46q-20 -9 -95 -9q-1 9 -6 22l-5 11q-2 5 -5 10
q59 -3 78 -1q12 1 12 13v264h-132v-442h-43v442h-123v-332h-41v375h164v115h43v-115h175v-307zM735 175h-45v549h45v-549zM907 817v-805q0 -52 -36 -65q-18 -6 -59 -8q-17 -1 -42 -1h-50l-7 25q-6 16 -11 26q40 -1 87 -1h52q20 1 20 24v805h46z" />
    <glyph glyph-name="uni523B" unicode="&#x523b;" 
d="M517 554q-66 -124 -177 -228q-102 -97 -230 -167q-12 20 -34 40q176 84 300 229q-159 -9 -206 -13q-44 -4 -56 -9l-11 36l-5 12q20 2 55 41q18 18 51 61q41 53 71 103h-213v45h270q-20 60 -61 118l44 14q49 -68 66 -126l-16 -6h232v-45h-265q-37 -57 -74 -105
q-41 -53 -79 -93l233 10q35 48 62 98zM583 360q-56 -98 -143 -188q102 -91 163 -161l-37 -32q-65 76 -158 161q-131 -125 -301 -210q-6 9 -15 20q-11 13 -19 20q148 66 268 170q125 107 198 238zM732 161h-47v552h47v-552zM914 819v-819q0 -48 -36 -62q-31 -9 -154 -8
q-6 25 -18 45q44 -1 87 -1q35 0 49 1q25 1 25 24v820h47z" />
    <glyph glyph-name="uni524D" unicode="&#x524d;" 
d="M427 197v121h-254v-121h254zM173 479v-120h254v120h-254zM473 -6q0 -43 -31 -53q-16 -6 -51 -8q-16 -1 -39 -1h-48l-7 22l-10 23q92 -3 120 -1q20 0 20 19v161h-254v-225h-46v592h346v-529zM819 546h47v-548q0 -47 -34 -59q-31 -9 -153 -9q-4 19 -19 47q111 -2 138 0
q21 1 21 20v549zM662 105h-45v408h45v-408zM267 834q69 -76 104 -146l-46 -19q-31 68 -100 148zM940 669v-45h-881v45h578q59 81 100 170l50 -19q-51 -87 -97 -151h250z" />
    <glyph glyph-name="uni5272" unicode="&#x5272;" 
d="M497 174h-318v-148h318v148zM365 346h236v-40h-236v-89h177v-285h-45v53h-318v-59h-43v291h185v89h-247v40h247v85h-169v40h169v80h-192v40h192v64h44v-64h182v-40h-182v-80h160v-40h-160v-85zM328 838q37 -62 50 -103h227v-135h-45v94h-441v-102h-44v143h253
q-18 48 -43 89zM727 163h-45v531h45v-531zM910 826v-829q0 -48 -35 -60q-28 -10 -151 -10q-7 28 -18 47q101 -3 134 -1q24 1 24 24v829h46z" />
    <glyph glyph-name="uni529B" unicode="&#x529b;" 
d="M900 608v-11l-1 -17q-19 -318 -38 -449q-19 -132 -52 -168q-26 -28 -76 -31q-55 -3 -159 5q-2 13 -5 24q-5 14 -12 24q46 -5 99 -6q19 -1 38 -1h26q32 0 46 14q29 28 48 154q19 129 35 414h-376q-6 -87 -23 -161q-21 -89 -59 -166q-44 -87 -112 -161q-76 -82 -182 -149
q-15 22 -37 37q103 64 176 141q66 71 108 153q37 72 57 155q17 69 22 151h-334v48h337q1 16 1 35v187h49v-187q0 -19 -1 -35h425z" />
    <glyph glyph-name="uni529F" unicode="&#x529f;" 
d="M443 228l-103 -29l-281 -80l-13 49l79 20l92 24v450h-158v46h361v-46h-156v-437l174 48zM938 596v-11q0 -13 -1 -17q-7 -163 -14 -264q-7 -110 -15 -177q-15 -130 -44 -162q-25 -27 -71 -30q-59 -4 -149 4l-2 11q-1 7 -3 13q-4 14 -10 23q43 -4 91 -6l57 -1q32 0 44 15
q25 26 40 147q15 125 27 408h-236q-7 -108 -23 -191q-18 -97 -50 -172q-36 -83 -91 -146q-60 -68 -145 -114q-4 8 -16 20q-9 9 -19 16q81 42 139 106q53 59 87 138q31 71 49 162q14 78 21 181h-181v47h183q2 52 3 109q1 51 1 111h48q0 -60 -1 -111q-1 -57 -3 -109h284z" />
    <glyph glyph-name="uni52A0" unicode="&#x52a0;" 
d="M484 618q-16 -334 -32 -467t-44 -167q-22 -29 -61 -30q-32 -3 -107 1q-2 29 -14 49q31 -2 63 -3l42 -1q25 0 35 14q23 26 39 154q17 138 30 432h-166q-5 -103 -15 -188q-11 -100 -30 -182q-21 -92 -52 -163q-35 -78 -81 -133q-20 20 -40 29q45 51 78 125q30 68 50 156
q18 78 29 175q9 81 14 181h-152v47h153q3 96 3 184h48q0 -88 -3 -184h213v-29zM854 61v594h-231v-594h231zM903 702v-756h-49v68h-231v-74h-47v762h327z" />
    <glyph glyph-name="uni52A1" unicode="&#x52a1;" 
d="M855 251q-17 -140 -34 -205q-17 -64 -41 -86q-23 -21 -66 -22q-55 -2 -139 4q-1 20 -16 44q40 -4 86 -6l56 -1q31 0 41 9q37 31 63 243h-326q-44 -126 -142 -199q-91 -68 -251 -104q-8 23 -25 44q289 52 368 259h-296v44h309q14 50 21 109l50 -5q-8 -56 -21 -104h366z
M337 683l-5 -5q-1 -2 -4 -5q-4 -3 -5 -5l-5 -5q66 -91 195 -148q165 68 251 168h-427zM838 707q-44 -66 -115 -121q-66 -52 -156 -93q80 -30 181 -49q94 -17 205 -25q-19 -21 -27 -43q-120 11 -221 33q-108 24 -193 60q-98 -40 -218 -68q-106 -25 -225 -39q-6 24 -20 44
q108 10 208 31q110 23 202 57q-111 58 -173 140q-35 -31 -71 -57q-39 -29 -80 -52q-14 20 -34 34q99 55 180 134q71 69 114 141l52 -9q-26 -45 -71 -99h424l9 3z" />
    <glyph glyph-name="uni52A8" unicode="&#x52a8;" 
d="M478 703h-381v45h381v-45zM460 61q-10 35 -24 77q-210 -43 -275 -58q-33 -8 -49 -14q-13 -4 -21 -9l-7 25q-6 16 -10 23q10 3 22 23q9 17 22 49q16 36 40 109q14 43 26 84q14 49 23 92h-147v45h437v-45h-240q-48 -192 -113 -338l278 55q-13 39 -32 88l-34 84l41 11
q72 -165 106 -285zM939 566q-6 -162 -11 -262q-6 -109 -13 -175q-13 -127 -39 -158q-22 -27 -66 -31q-59 -2 -141 4q-2 26 -15 47q40 -3 86 -4q16 -1 32 -1h22q29 -2 40 14q22 23 35 143q13 121 23 405h-178q-6 -100 -17 -181q-13 -94 -35 -169q-25 -84 -61 -149
q-40 -71 -94 -121q-13 20 -39 32q52 46 90 113q35 61 59 141q22 72 35 162q11 77 16 172h-158v47h160q2 53 3 111q1 51 1 109h47v-41q-1 -1 -1 -3v-65q-1 -64 -4 -111h223v-29z" />
    <glyph glyph-name="uni52A9" unicode="&#x52a9;" 
d="M159 98l51 11l170 37v155h-221v-203zM159 735v-174h221v174h-221zM380 517h-221v-172h221v172zM492 125l-441 -101l-10 49l73 15v692h312v-624l62 13zM923 571q-5 -169 -9 -269q-5 -112 -11 -179q-11 -129 -35 -160q-21 -27 -64 -30q-22 -1 -62 0q-34 0 -77 3
q-4 29 -15 47q39 -3 84 -4q16 -1 33 -1h21q27 -2 38 14q20 23 31 145q11 126 18 417h-185q-6 -106 -21 -189q-16 -97 -46 -173q-33 -85 -83 -150q-54 -69 -130 -118q-14 21 -37 34q73 44 126 110q49 61 80 141q29 73 45 165q14 79 20 180h-181v46h184q2 51 3 117v116h46
v-116q-1 -66 -3 -117h230v-29z" />
    <glyph glyph-name="uni52BF" unicode="&#x52bf;" 
d="M57 539q15 3 37 7q5 0 10 1l126 22v115h-161v44h161v105h46v-105h139v-44h-139v-106q13 2 35 7l107 21l3 -45l-145 -29v-125q0 -39 -28 -48t-123 -8q-6 24 -16 41q85 -2 104 0q17 0 17 15v116l-162 -31zM854 273q0 -1 -1 -9q0 -10 -1 -14q-15 -138 -30 -202
q-16 -63 -39 -84q-22 -19 -67 -22q-25 -1 -64 0q-46 2 -90 5q-4 28 -16 44q45 -4 95 -6l61 -1q31 0 42 10q18 15 31 68q14 57 26 168h-336q-38 -115 -122 -185q-95 -79 -266 -118q-7 23 -25 41q159 33 248 102q77 61 113 160h-314v43h327q9 34 16 78h50q-7 -44 -16 -78h378z
M831 730q-1 -48 -1 -80q0 -39 1 -69q1 -65 6 -103q10 -81 47 -80q26 0 31 91q19 -16 38 -19q-4 -68 -20 -93q-15 -24 -51 -24q-65 0 -84 87q-9 39 -11 105q-2 28 -2 66v75h-147q-10 -89 -30 -148q90 -57 140 -100l-29 -38l-57 45q-36 28 -72 52q-48 -96 -162 -146
q-10 19 -31 34q112 47 155 137q-50 34 -113 71l28 33l50 -29l52 -33q17 55 24 122h-157v44h161l4 103h46l-5 -103h189z" />
    <glyph glyph-name="uni5305" unicode="&#x5305;" 
d="M262 650q-82 -118 -179 -197q-17 17 -41 33q174 130 270 352l47 -14q-33 -73 -68 -128h572v-27q-5 -135 -10 -217q-4 -91 -10 -146q-10 -105 -31 -131q-21 -23 -59 -26q-47 -4 -116 2q-2 25 -13 46q32 -3 68 -4q7 -1 14 -1h29q24 0 35 13q16 19 26 116q10 100 18 329
h-552zM247 483v-193h305v193h-305zM795 -5q65 0 85 26q19 25 26 109q21 -14 48 -19q-10 -98 -38 -128q-31 -34 -123 -34h-410q-107 0 -144 23q-39 24 -39 94v461h399v-281h-352v-180q0 -42 24 -56q26 -15 105 -15h419z" />
    <glyph glyph-name="uni5316" unicode="&#x5316;" 
d="M377 817q-46 -108 -103 -200v-691h-49v617q-68 -98 -139 -167q-17 28 -33 43q178 163 278 412zM833 -6q43 0 56 44q12 38 18 175q26 -18 48 -24q-4 -75 -9 -115q-7 -48 -19 -75q-23 -53 -93 -53h-195q-67 0 -90 23q-24 24 -24 92v214q-73 -47 -153 -92q-16 23 -35 35
q97 51 188 114v481h50v-445q94 72 169 147q81 82 135 164l47 -29q-65 -92 -159 -181q-86 -83 -192 -158v-252q0 -40 13 -52q12 -13 52 -13h193z" />
    <glyph glyph-name="uni5341" unicode="&#x5341;" 
d="M946 404h-420v-476h-50v476h-416v48h416v380h50v-380h420v-48z" />
    <glyph glyph-name="uni5347" unicode="&#x5347;" 
d="M943 379h-223v-453h-48v453h-336q-2 -70 -13 -126q-12 -65 -38 -119q-29 -61 -77 -111q-52 -55 -127 -99q-13 21 -34 36q71 41 120 91q45 47 73 103q24 50 36 110q10 50 12 115h-231v47h232v249q-48 -14 -102 -28q-48 -12 -102 -24q-4 14 -17 38q63 15 122 31
q65 18 120 36q129 42 195 83l41 -37q-81 -44 -209 -84v-264h335v384h48v-384h223v-47z" />
    <glyph glyph-name="uni5355" unicode="&#x5355;" 
d="M474 314v132h-271v-132h271zM203 487h271v129h-271v-129zM805 616h-282v-129h282v129zM805 446h-282v-132h282v132zM944 114h-421v-188h-49v188h-415v45h415v112h-318v388h198q-36 71 -106 149l39 21q77 -84 110 -150l-34 -20h254q61 81 108 171l50 -20
q-53 -85 -104 -151h182v-388h-330v-112h421v-45z" />
    <glyph glyph-name="uni535A" unicode="&#x535a;" 
d="M875 719q-57 33 -146 78l23 31l78 -38q44 -22 68 -35zM665 569v-72h184v72h-184zM849 389v70h-184v-70h184zM620 389v70h-185v-70h185zM435 569v-72h185v72h-185zM620 675h-283v42h283v116h45v-116h280v-42h-280v-67h229v-333h-45v76h-184v-72h-45v72h-185v-78h-44v335
h229v67zM226 515v-588h-47v588h-131v46h131v272h47v-272h115v-46h-115zM450 148q86 -68 142 -124l-32 -33q-54 60 -140 131zM955 173h-154v-186q0 -41 -29 -51q-17 -5 -52 -6q-15 -1 -38 -1h-48q-4 18 -17 42l78 -1q33 -1 43 0q18 1 18 17v186h-443v43h443v66h45v-66h154
v-43z" />
    <glyph glyph-name="uni5361" unicode="&#x5361;" 
d="M566 285l176 -72q98 -42 152 -70l-25 -42q-140 73 -328 147zM944 456v-47h-437v-483h-49v483h-400v47h399v377h49v-156h332v-47h-332v-174h438z" />
    <glyph glyph-name="uni5371" unicode="&#x5371;" 
d="M810 -15q48 0 63 24q14 22 19 102q18 -12 46 -18q-8 -94 -30 -122q-25 -31 -98 -31h-315q-88 0 -117 18q-31 20 -31 78v366h440v-9q0 -10 -1 -14q-15 -206 -43 -234q-18 -18 -58 -21q-55 -2 -146 4l-2 11l-4 11q-4 13 -10 21q40 -4 89 -5q16 -1 33 -1h21q30 0 39 9
q21 21 33 184h-344v-323q0 -30 18 -40q19 -10 80 -10h318zM944 558v-46h-720v-140q0 -57 -6 -108q-6 -62 -21 -116q-17 -63 -45 -116q-31 -59 -76 -105q-15 22 -36 33q43 43 72 98q26 49 42 107q13 50 18 107q5 46 5 101v185h400q36 60 74 130h-362q-83 -107 -200 -188
q-14 24 -34 35q93 61 167 147q66 76 104 153l53 -10q-27 -51 -57 -93h357l9 4l33 -26q-16 -30 -45 -76l-49 -76h317z" />
    <glyph glyph-name="uni5373" unicode="&#x5373;" 
d="M167 735v-157h265v157h-265zM432 366v167h-265v-167h265zM364 255q94 -147 141 -252l-42 -24q-16 40 -53 109l-156 -60q-61 -23 -90 -35q-30 -12 -44 -19q-12 -6 -19 -12q-4 12 -9 24q-7 16 -13 24q16 7 26 19q14 18 14 42v708h360v-457h-312v-275l224 77l-33 58
q-19 32 -34 55zM903 199q0 -46 -31 -58q-30 -10 -148 -8q-4 25 -16 46q97 -3 127 -1q21 1 21 20v529h-218v-801h-47v847h312v-574z" />
    <glyph glyph-name="uni5382" unicode="&#x5382;" 
d="M929 705h-728v-244q0 -68 -4 -127q-4 -75 -15 -139q-13 -76 -34 -139q-24 -71 -59 -125q-16 18 -42 28q34 53 56 120q20 59 32 131q9 60 13 131q2 30 2 62q1 27 1 59v292h778v-49z" />
    <glyph glyph-name="uni538B" unicode="&#x538b;" 
d="M170 737v-274q0 -68 -3 -128q-4 -75 -12 -140q-10 -77 -27 -140q-19 -73 -47 -128q-20 20 -40 27q27 53 45 121q16 60 25 133q7 60 10 132l2 64v380h826v-47h-779zM951 19v-46h-760v46h351v372h-284v47h284v233h48v-233h306v-47h-306v-372h361zM724 298q95 -83 141 -154
l-39 -27q-46 76 -138 156z" />
    <glyph glyph-name="uni539F" unicode="&#x539f;" 
d="M424 181q-92 -123 -180 -208l-31 21q-6 4 -11 6q98 86 177 197zM343 300h460v111h-460v-111zM343 451h460v109h-460v-109zM595 259v-270q0 -42 -32 -53q-26 -8 -154 -8q-2 9 -7 22l-10 21q104 -3 135 -1q21 1 21 18v271h-252v343h207q11 23 23 54q10 26 19 52l53 -11
l-45 -95h299v-343h-257zM739 193q116 -113 188 -198l-40 -28q-68 88 -186 206zM937 725h-746v-233q0 -69 -3 -129q-5 -77 -15 -143q-12 -78 -33 -143q-23 -74 -56 -131q-20 18 -40 26q32 55 54 125q19 61 30 135q9 63 13 136q2 30 2 64q1 28 1 60v278h793v-45z" />
    <glyph glyph-name="uni53BB" unicode="&#x53bb;" 
d="M453 354q-116 -194 -236 -325l549 41q-68 98 -154 192l41 20q70 -75 137 -162q68 -90 102 -154l-45 -26q-18 38 -53 90l-523 -44q-62 -6 -87 -10q-22 -4 -34 -9q-4 24 -17 49q21 3 72 66q30 33 81 103q29 40 55 80q31 46 55 89h-337v47h416v215h-338v48h338v170h49v-170
h346v-48h-346v-215h421v-47h-492z" />
    <glyph glyph-name="uni53C2" unicode="&#x53c2;" 
d="M820 153q-85 -87 -253 -147q-151 -55 -354 -82q-9 24 -24 42q198 24 346 74q162 55 243 135zM689 266q-69 -57 -187 -105q-107 -45 -227 -72l-20 28l-8 9q116 25 221 66q115 44 179 95zM597 384q-56 -44 -142 -86q-81 -39 -162 -63l-7 8q-5 6 -9 9q-10 11 -17 17
q83 24 160 58q87 38 136 77zM662 464q120 -141 295 -207q-17 -14 -33 -38q-87 37 -173 102q-89 68 -144 143h-209q-59 -81 -140 -147q-77 -62 -172 -108q-16 23 -36 37q176 77 289 218h-281v45h313q33 49 60 112q-144 -8 -190 -12q-40 -4 -56 -9q-4 24 -16 49q27 1 69 29
q32 18 85 57q31 23 59 47q32 27 58 52l45 -26q-106 -92 -207 -152l450 21q-74 57 -137 95l35 27q72 -43 144 -97q75 -58 114 -102l-40 -30q-23 29 -69 68l-316 -16l23 -6q-28 -65 -54 -107h515v-45h-281z" />
    <glyph glyph-name="uni53CA" unicode="&#x53ca;" 
d="M328 680q43 -174 113 -304q74 -140 182 -233q77 64 131 148q58 88 89 195h-268q15 44 33 114q16 58 33 129h-313v-49zM902 521q-32 -130 -96 -235q-59 -98 -146 -173q126 -94 294 -136q-15 -14 -32 -43q-173 46 -301 147q-69 -52 -152 -90q-79 -37 -167 -61
q-13 29 -28 42q87 21 162 55q81 36 148 86q-87 77 -152 187q-61 102 -106 237q-4 -77 -15 -143q-13 -80 -39 -150q-29 -80 -74 -151q-50 -78 -120 -147q-10 18 -35 38q79 77 131 167q46 79 71 170q21 76 29 165q4 36 5 77q1 32 1 73v93h-186v48h605l-30 -124l-31 -121h224
l10 3z" />
    <glyph glyph-name="uni53CC" unicode="&#x53cc;" 
d="M417 54q-37 82 -103 187q-91 -201 -234 -314q-16 24 -35 38q144 107 238 325l-95 139q-52 72 -100 131l37 25q93 -114 180 -243q61 160 88 365h-323v46h336l8 3l31 -10q-29 -258 -108 -453q82 -126 121 -209zM578 707q35 -262 121 -450q115 189 157 450h-278zM909 746
q-23 -165 -70 -303q-46 -132 -113 -238q91 -165 232 -241q-22 -18 -35 -41q-139 81 -228 238q-107 -148 -258 -234q-4 8 -14 21l-18 19q155 81 264 243q-49 98 -84 228q-32 118 -54 269h-36v46h374l9 3z" />
    <glyph glyph-name="uni53CD" unicode="&#x53cd;" 
d="M360 472q66 -188 199 -312q70 63 121 139q55 81 86 173h-406zM829 507q-33 -116 -95 -214q-57 -91 -137 -164q136 -108 329 -151q-20 -18 -32 -42q-199 50 -335 162q-71 -58 -155 -100q-80 -41 -170 -67q-10 23 -27 44q86 23 164 61q83 40 151 94q-141 134 -210 342h-80
q0 -71 -5 -133q-6 -77 -18 -143q-14 -79 -37 -144q-27 -73 -65 -130q-13 16 -41 30q38 55 63 126q23 63 36 138q11 64 15 138q2 32 3 66q1 29 1 62v262q87 6 168 13q92 7 170 16q87 10 155 21q75 13 124 26l41 -38q-54 -14 -129 -27q-68 -12 -152 -22q-78 -9 -165 -17
q-80 -6 -164 -11v-186h555l9 3z" />
    <glyph glyph-name="uni53D1" unicode="&#x53d1;" 
d="M809 638q-20 27 -60 72q-37 42 -73 79l37 23q83 -83 134 -146zM405 382q65 -143 181 -242q56 50 98 108q45 63 73 134h-352zM820 416q-30 -93 -82 -172q-49 -73 -116 -133q139 -107 332 -146q-18 -18 -29 -42q-197 46 -338 157q-68 -53 -152 -93q-77 -37 -166 -63
q-10 25 -25 41q84 22 159 57q81 38 147 89q-109 98 -173 231q-54 -104 -127 -185q-76 -86 -175 -150q-13 19 -36 34q136 89 227 219q87 123 137 290h-144q-92 0 -106 -14l-12 37l-5 11q15 3 32 38q5 9 13 26q10 20 19 43q23 60 34 110l52 -12q-32 -111 -75 -192h205
q14 53 26 115q10 56 19 123l54 -9q-10 -69 -19 -118q-12 -61 -25 -111h450v-47h-464q-16 -63 -41 -121h364l8 3z" />
    <glyph glyph-name="uni53D6" unicode="&#x53d6;" 
d="M172 140q4 1 12 2l6 1q3 0 6 1l74 12q57 9 104 18v148h-202v-182zM172 737v-162h202v162h-202zM172 366h202v166h-202v-166zM421 138v-210h-47v201q-40 -8 -87 -16l-232 -41l-11 47l81 13v605h-74v45h450v-45h-80v-555l88 16l3 -43zM606 669q20 -127 48 -229
q30 -111 71 -198q49 90 85 195q36 109 57 232h-261zM918 709q-44 -308 -167 -517q84 -149 208 -220q-23 -17 -35 -37q-120 74 -201 213q-92 -139 -209 -221q-7 11 -15 20q-9 12 -17 17q120 78 215 231q-47 94 -81 217q-32 114 -54 257h-59v46h377l8 3z" />
    <glyph glyph-name="uni53D7" unicode="&#x53d7;" 
d="M852 795q-67 -14 -159 -28q-86 -12 -190 -22q-96 -10 -202 -17q-100 -7 -199 -12q-1 16 -12 42q98 5 197 12q106 8 200 17q102 10 183 22q88 12 147 25zM492 559q-12 71 -55 157l44 10q46 -91 57 -156zM247 550q-21 62 -76 144l41 13q58 -82 78 -141zM125 349h-46v195
h602q69 96 110 184l47 -19l-52 -85q-30 -46 -55 -80h190v-195h-47v151h-749v-151zM284 320q76 -121 219 -208q149 86 223 208h-442zM799 346q-80 -157 -250 -259q165 -85 392 -118q-18 -20 -30 -44q-237 37 -409 135q-88 -46 -198 -81q-98 -32 -216 -54q-9 23 -28 44
q112 18 207 46q105 31 190 73q-144 92 -225 232h-45v45h570l10 3z" />
    <glyph glyph-name="uni53D8" unicode="&#x53d8;" 
d="M364 684h-289v44h427q-13 26 -27 50q-17 29 -32 50l45 13q43 -61 67 -113h371v-44h-291v-318h-48v318h-175v-320h-48v320zM737 622q112 -105 172 -202l-40 -23q-24 41 -75 102q-46 57 -94 105zM289 620q-55 -130 -145 -220q-17 15 -39 26q88 80 139 205zM274 289
q83 -114 225 -190q153 78 232 190h-457zM806 314q-43 -74 -110 -135q-64 -58 -149 -105q173 -80 402 -106q-17 -18 -28 -43q-246 34 -421 125q-89 -43 -199 -76q-98 -29 -214 -50q-9 23 -26 44q107 16 203 42q103 28 188 66q-146 85 -231 213h-81v45h625l10 2z" />
    <glyph glyph-name="uni53E3" unicode="&#x53e3;" 
d="M814 91v586h-625v-586h625zM864 725v-764h-50v81h-625v-87h-49v770h724z" />
    <glyph glyph-name="uni53EA" unicode="&#x53ea;" 
d="M643 217q81 -59 163 -132q86 -76 132 -130l-42 -30q-44 54 -129 131q-83 75 -164 135zM391 196q-52 -73 -136 -148q-81 -73 -167 -125q-8 9 -18 18q-12 11 -19 16q86 50 165 118q83 73 126 139zM214 367h572v344h-572v-344zM835 757v-436h-669v436h669z" />
    <glyph glyph-name="uni53EF" unicode="&#x53ef;" 
d="M217 498v-270h304v270h-304zM217 181v-81h-47v445h399v-364h-352zM942 712h-126v-704q0 -59 -44 -71q-23 -6 -76 -8q-22 -1 -56 -1h-67q-7 27 -21 53q57 -2 117 -2q47 0 71 1q27 3 27 29v703h-706v47h881v-47z" />
    <glyph glyph-name="uni53F0" unicode="&#x53f0;" 
d="M239 289v-258h521v258h-521zM191 336h618v-406h-49v54h-521v-57h-48v409zM647 707q78 -66 153 -146q78 -84 115 -144l-41 -30q-31 50 -68 93l-355 -21q-135 -8 -198 -13q-65 -4 -93 -8q-23 -3 -36 -8q-5 26 -15 48q23 5 81 61q38 34 103 110q38 44 71 86q38 50 68 94
l47 -22q-69 -92 -138 -171q-74 -83 -143 -146l574 30q-80 91 -163 162z" />
    <glyph glyph-name="uni53F3" unicode="&#x53f3;" 
d="M324 330v-300h486v300h-486zM408 591q-47 -121 -105 -214h556v-447h-49v53h-486v-58h-48v411q-89 -127 -205 -209q-12 21 -32 37q109 74 191 189q74 103 127 238h-286v47h303q16 45 31 97q12 43 24 98l50 -10q-23 -95 -54 -185h509v-47h-526z" />
    <glyph glyph-name="uni53F7" unicode="&#x53f7;" 
d="M757 744h-516v-160h516v160zM806 539h-612v249h612v-249zM339 388l-11 -33l-11 -34q-13 -38 -24 -65h512l-1 -10q-1 -11 -2 -15q-20 -131 -41 -195q-20 -63 -48 -86q-24 -21 -73 -22q-26 -1 -69 0q-50 2 -98 5q-2 26 -17 47q48 -5 103 -7l41 -2h28q35 0 47 9
q42 33 74 230h-499v1h-30q16 33 34 84q17 44 32 93h-216v45h857v-45h-588z" />
    <glyph glyph-name="uni53F8" unicode="&#x53f8;" 
d="M218 378v-220h362v220h-362zM628 114h-410v-74h-47v382h457v-308zM706 550h-606v45h606v-45zM877 15q0 -58 -40 -70q-21 -6 -70 -7q-19 -1 -51 -1h-61q-4 25 -18 52q51 -1 105 -1q43 0 62 1q25 1 25 25v705h-733v46h781v-750z" />
    <glyph glyph-name="uni5408" unicode="&#x5408;" 
d="M252 275v-237h506v237h-506zM203 319h604v-386h-49v59h-506v-63h-49v390zM753 504v-45h-505v45h505zM563 814q-19 -28 -32 -45q79 -91 191 -166q101 -69 239 -130q-24 -18 -34 -42q-133 64 -232 134q-108 76 -191 169q-170 -205 -422 -309q-6 10 -15 20q-10 12 -19 19
q317 125 474 369z" />
    <glyph glyph-name="uni540C" unicode="&#x540c;" 
d="M346 399v-220h308v220h-308zM346 136v-77h-45v383h399v-306h-354zM759 564h-512v44h512v-44zM906 -3q0 -50 -37 -63q-31 -9 -161 -8q-6 24 -19 46q47 -1 92 -1q37 0 52 1q26 1 26 24v736h-716v-808h-47v854h810v-781z" />
    <glyph glyph-name="uni540D" unicode="&#x540d;" 
d="M794 30v252h-485v-252h485zM843 -73h-49v58h-485v-58h-48v344q-97 -34 -176 -52q-8 25 -25 44q99 21 197 57q104 38 195 89q-83 76 -171 136l36 27q93 -60 178 -137q87 53 153 114q72 66 117 138h-399q-106 -107 -248 -182q-5 7 -15 19l-18 17q114 57 207 141
q82 74 130 153l55 -11q-32 -49 -70 -92h390l9 2l30 -20q-64 -122 -186 -225q-110 -93 -256 -162h449v-400z" />
    <glyph glyph-name="uni540E" unicode="&#x540e;" 
d="M357 301v-275h461v275h-461zM310 347h557v-421h-49v54h-461v-55h-47v422zM944 554v-46h-736v-18q0 -71 -4 -134q-6 -78 -18 -147q-15 -81 -39 -149q-28 -76 -67 -135q-7 9 -18 18q-13 12 -21 15q38 56 64 128q22 63 35 139q11 64 16 138l2 66q1 28 1 61v249q91 6 183 15
q97 8 184 19q93 10 167 22q81 13 135 26l42 -38q-61 -14 -141 -27q-75 -12 -166 -23q-83 -10 -177 -19q-87 -8 -178 -14v-146h736z" />
    <glyph glyph-name="uni5411" unicode="&#x5411;" 
d="M351 412v-235h302v235h-302zM351 132v-72h-45v397h393v-325h-348zM899 6q0 -56 -41 -68q-21 -5 -69 -7q-21 -1 -52 -1h-63q-6 27 -19 52q53 -2 108 -2q42 0 62 1q26 1 26 25v605h-696v-681h-48v728h275q44 93 70 178l54 -15l-35 -83l-36 -80h464v-652z" />
    <glyph glyph-name="uni542B" unicode="&#x542b;" 
d="M763 212h-524v-187h524v187zM786 433q-3 -3 -9 -10l-29 -31q-24 -24 -42 -44l-88 -92h194v-327h-49v52h-524v-53h-48v328h362q78 76 144 149h-508v45h552l9 3zM435 620q48 -25 93 -52q51 -32 77 -55l-33 -32q-61 55 -170 111zM551 815l-1 -2l-23 -34q168 -196 434 -273
q-8 -7 -19 -21l-16 -22q-255 86 -425 284q-159 -194 -422 -291q-15 25 -32 41q146 50 268 139q125 91 193 199z" />
    <glyph glyph-name="uni542F" unicode="&#x542f;" 
d="M491 834q45 -66 71 -129l-46 -18q-22 60 -69 132zM208 641v-165h600v165h-600zM208 430q-1 -64 -6 -122q-6 -70 -19 -132q-15 -71 -39 -131q-26 -67 -63 -119q-7 8 -18 18q-14 11 -22 15q38 52 64 119q22 59 36 129q11 60 15 129q2 29 3 62q1 26 1 57v232h696v-257h-648z
M821 48v211h-505v-211h505zM869 304v-372h-48v70h-505v-73h-47v375h600z" />
    <glyph glyph-name="uni5446" unicode="&#x5446;" 
d="M231 537h544v208h-544v-208zM571 288q147 -189 387 -269q-19 -17 -34 -42q-112 43 -220 123q-112 83 -181 178v-350h-49v352q-69 -97 -182 -184q-107 -82 -219 -129q-15 25 -33 41q236 85 388 280h-359v46h405v157h-290v299h640v-299h-301v-157h407v-46h-359z" />
    <glyph glyph-name="uni5448" unicode="&#x5448;" 
d="M769 743h-540v-191h540v191zM818 507h-636v281h636v-281zM931 -1v-45h-861v45h404v159h-320v44h320v150h-355v46h764v-46h-360v-150h324v-44h-324v-159h408z" />
    <glyph glyph-name="uni5458" unicode="&#x5458;" 
d="M246 606h511v136h-511v-136zM807 785v-223h-610v223h610zM522 338v-96q0 -46 -12 -81q-15 -46 -54 -84q-46 -45 -126 -81q-91 -40 -227 -70q-7 16 -29 40q131 27 218 63q77 32 120 71q36 33 50 74q10 29 10 69v95h50zM549 112q97 -31 203 -73q110 -42 175 -74l-25 -41
q-158 80 -377 154zM842 457v-363h-50v318h-576v-321h-49v366h675z" />
    <glyph glyph-name="uni547D" unicode="&#x547d;" 
d="M184 380v-242h196v242h-196zM426 94h-242v-88h-46v419h288v-331zM686 522h-381v45h381v-45zM866 139q0 -44 -31 -56q-25 -9 -153 -9q-1 10 -7 23q-2 6 -5 12l-5 11q46 -1 87 -1l47 1q20 1 20 20v241h-223v-455h-47v500h317v-287zM543 815l-4 -6l-12 -17q68 -84 189 -160
q121 -77 241 -111q-19 -16 -37 -46q-254 86 -420 283q-171 -200 -428 -289q-12 29 -28 47q135 40 263 130q128 91 197 195z" />
    <glyph glyph-name="uni548C" unicode="&#x548c;" 
d="M309 540h191v-46h-191v-30q28 -30 91 -105l52 -61l33 -42l-32 -38q-17 26 -64 87l-80 101v-477h-48v488q-41 -98 -95 -185q-55 -92 -107 -146q-13 27 -29 42q136 138 219 366h-193v46h205v188q-90 -15 -178 -26q-4 18 -15 39q54 7 105 15q57 10 106 20q115 23 174 47
l34 -38q-34 -13 -81 -26q-40 -10 -97 -22v-197zM845 100v594h-259v-594h259zM894 741v-765h-49v78h-259v-85h-47v772h355z" />
    <glyph glyph-name="uni54C1" unicode="&#x54c1;" 
d="M717 742h-428v-222h428v222zM765 474h-523v315h523v-315zM138 308v-278h245v278h-245zM92 354h339v-417h-48v47h-245v-57h-46v427zM870 30v278h-268v-278h268zM917 354v-420h-47v50h-268v-57h-47v427h362z" />
    <glyph glyph-name="uni552F" unicode="&#x552f;" 
d="M721 659q-9 29 -29 73q-18 38 -39 76l41 16q23 -41 40 -76q22 -43 30 -70zM129 692v-477h141v477h-141zM316 168h-187v-76h-46v647h233v-571zM497 48h187v164h-187v-164zM684 606h-187v-150h187v150zM684 411h-187v-154h187v154zM942 3h-445v-76h-46v622
q-43 -66 -91 -117q-14 16 -32 34q65 67 122 170q52 94 82 189l48 -12q-28 -81 -70 -162h414v-45h-194v-150h173v-45h-173v-154h173v-45h-173v-164h212v-45z" />
    <glyph glyph-name="uni5546" unicode="&#x5546;" 
d="M434 429q-83 -100 -184 -171q-9 18 -28 37q104 66 173 151zM365 236v-138h267v138h-267zM365 58v-50h-43v267h353v-217h-310zM770 264q-85 75 -200 155l29 30l53 -37l55 -40q61 -45 92 -72zM874 -6q0 -43 -33 -54q-27 -7 -163 -7q-5 19 -17 40q111 -3 144 -1q24 1 24 22
v480h-653v-546h-46v588h459q46 63 87 143l51 -13q-18 -30 -43 -67l-45 -63h235v-522zM323 664l38 -59q21 -34 30 -54l-42 -20q-24 51 -66 117zM935 718v-44h-868v44h427l-21 53q-13 32 -23 52l44 12q29 -56 51 -117h390z" />
    <glyph glyph-name="uni5584" unicode="&#x5584;" 
d="M243 152v-146h522v146h-522zM196 194h617v-263h-48v33h-522v-36h-47v266zM944 307v-42h-886v42h217q-22 52 -63 99l41 15q46 -48 71 -103l-27 -11h177v119h-387v41h387v87h-303v40h303v85h-361v40h207q-23 49 -62 95l41 16q45 -47 68 -96l-34 -15h291q41 55 69 115
l48 -16q-38 -62 -66 -99h215v-40h-368v-85h309v-40h-309v-87h400v-41h-400v-119h150q37 53 65 113l48 -15l-30 -50l-31 -48h220z" />
    <glyph glyph-name="uni5668" unicode="&#x5668;" 
d="M820 743h-219v-172h219v172zM866 528h-311v258h311v-258zM387 743h-210v-172h210v172zM433 528h-300v258h300v-258zM810 3v184h-214v-184h214zM397 187h-202v-184h202v184zM648 369q121 -107 312 -155q-19 -14 -31 -38q-39 11 -73 25v-267h-46v25h-214v-31h-45v303h234
q-126 62 -196 138h-197q-75 -78 -176 -138h227v-297h-46v25h-202v-31h-46v268q-37 -19 -81 -35q-13 22 -29 36q88 32 163 77q71 43 126 95h-270v45h314q51 59 79 120l51 -10q-31 -60 -71 -110h323q-51 39 -136 70l26 29q41 -15 80 -34q43 -22 66 -40l-21 -25h174v-45h-295z
" />
    <glyph glyph-name="uni56DB" unicode="&#x56db;" 
d="M852 87v611h-230v-344q0 -42 29 -42h116q14 0 28 1q17 1 27 3l4 -43q-15 -3 -58 -3h-121q-70 0 -70 86v342h-165q-1 -58 -3 -101q-3 -50 -7 -89q-10 -87 -31 -145q-45 -124 -174 -183q-9 16 -31 36q121 53 162 168q19 53 28 135l6 84q2 40 3 95h-221v-611h708zM901 744
v-777h-49v74h-708v-81h-48v784h805z" />
    <glyph glyph-name="uni56DE" unicode="&#x56de;" 
d="M639 517h-282v-262h282v262zM686 562v-351h-375v351h375zM862 28v712h-724v-712h724zM911 788v-860h-49v54h-724v-54h-48v860h821z" />
    <glyph glyph-name="uni56E2" unicode="&#x56e2;" 
d="M786 508h-174v-355q0 -41 -29 -52q-22 -8 -126 -8q-2 15 -17 44q82 -3 108 -1q17 0 17 17v293q-62 -77 -150 -151q-81 -67 -171 -121q-15 21 -32 32q97 55 186 133q94 83 153 169h-331v45h345v139h47v-139h174v-45zM858 17v723h-717v-723h717zM908 786v-860h-50v46h-717
v-46h-49v860h816z" />
    <glyph glyph-name="uni56ED" unicode="&#x56ed;" 
d="M744 574h-486v43h486v-43zM745 134q20 0 26 18t7 87q18 -14 41 -18q-4 -78 -17 -103q-14 -26 -52 -26h-116q-45 0 -60 13q-15 14 -15 54v240h-144q-10 -147 -51 -219q-47 -83 -160 -124q-13 23 -30 37q107 36 150 109q37 64 46 197h-185v43h625v-43h-208v-240
q0 -25 35 -25h108zM864 20v718h-728v-718h728zM913 784v-858h-49v48h-728v-48h-48v858h825z" />
    <glyph glyph-name="uni56F4" unicode="&#x56f4;" 
d="M788 327q0 -6 -2 -22q-16 -145 -43 -169q-19 -16 -48 -16q-38 -2 -96 1q-1 19 -13 42q28 -3 58 -4q10 -1 21 -1h14q22 0 30 8q16 15 30 118h-220v-227h-46v227h-272v43h272v106h-212v42h212v101h-256v43h256v93h46v-93h268v-43h-268v-101h227v-42h-227v-106h269zM865 23
v721h-730v-721h730zM912 788v-860h-47v52h-730v-52h-45v860h822z" />
    <glyph glyph-name="uni56FD" unicode="&#x56fd;" 
d="M787 177v-42h-564v42h250v199h-204v44h204v171h-234v44h525v-44h-246v-171h220v-44h-220v-199h269zM631 344q78 -67 112 -118l-33 -23q-40 61 -112 121zM859 21v718h-719v-718h719zM909 784v-859h-50v51h-719v-51h-48v859h817z" />
    <glyph glyph-name="uni56FE" unicode="&#x56fe;" 
d="M305 195q234 -28 402 -87l-23 -39q-75 26 -185 51q-120 28 -218 39zM407 318q132 -27 229 -74l-21 -37q-100 51 -230 79zM368 573q50 -61 140 -115q103 60 156 129h-284zM733 612q-60 -98 -185 -176q126 -66 276 -92q-18 -14 -29 -39q-156 33 -286 107q-71 -40 -154 -70
q-77 -29 -156 -47q-11 25 -25 40q156 31 294 102q-76 47 -129 108q-49 -47 -109 -88q-14 16 -36 30q68 41 126 97q62 60 99 123l42 -14q-16 -26 -45 -65h281l8 2zM860 16v725h-721v-725h721zM908 786v-860h-48v46h-721v-46h-47v860h816z" />
    <glyph glyph-name="uni5708" unicode="&#x5708;" 
d="M341 585q-17 48 -62 93l34 15q45 -45 62 -91zM636 99q29 0 38 15q9 16 12 72q12 -10 37 -16q-4 -66 -19 -86q-16 -21 -63 -21h-201q-63 0 -83 12q-21 12 -21 53v208h298v-19q-5 -109 -20 -125q-13 -15 -43 -16h-34q-26 1 -47 3q-2 19 -11 34q22 -2 49 -3h31q17 -2 23 6
q8 10 11 83h-215v-171q0 -29 61 -29h197zM642 418q74 -101 199 -141q-15 -12 -29 -34q-138 52 -215 175h-193q-83 -109 -213 -179l-14 18q-10 12 -16 17q117 58 189 144h-162v38h191q22 30 48 81h-184v37h201q27 69 43 143l43 -6q-17 -78 -41 -137h124q36 58 63 123l39 -15
q-30 -61 -60 -108h120v-37h-302q-18 -41 -43 -81h390v-38h-178zM865 13v732h-729v-732h729zM912 788v-860h-47v42h-729v-42h-46v860h822z" />
    <glyph glyph-name="uni5728" unicode="&#x5728;" 
d="M378 622q-57 -118 -123 -208v-483h-47v425q-63 -72 -132 -123q-6 10 -13 20q-9 13 -15 20q87 63 159 157q67 86 118 192h-257v47h278q34 77 58 164l49 -13l-25 -76q-15 -40 -30 -75h534v-47h-554zM934 -4v-46h-606v46h277v315h-237v46h237v208h48v-208h242v-46h-242v-315
h281z" />
    <glyph glyph-name="uni5730" unicode="&#x5730;" 
d="M229 220q13 5 31 13l96 40l9 -43l-160 -71l-145 -62l-19 47q39 15 65 26l77 31v341h-136v46h136v235h46v-235h128v-46h-128v-322zM832 -5q45 0 59 30q14 28 20 123q20 -15 44 -20q-7 -106 -28 -139q-25 -38 -95 -38h-267q-77 0 -103 22q-28 24 -28 91v348l-94 -39l-20 42
l114 49v278h46v-260l165 70v281h46v-263l163 69l25 23l33 -14l-2 -11q0 -73 -1 -134q0 -66 -2 -116q-3 -114 -9 -140q-9 -50 -56 -55q-16 -3 -44 -3q-10 -1 -23 -1h-20l-5 23q-4 13 -9 21l45 -2h34q27 0 34 31q5 21 8 115q2 86 2 218l-173 -73v-377h-46v358l-165 -70v-370
q0 -40 16 -53q17 -14 67 -14h269z" />
    <glyph glyph-name="uni573A" unicode="&#x573a;" 
d="M350 230l8 -44l-299 -118l-16 49l144 51v372h-130v46h130v237h46v-237h117v-46h-117v-354zM928 505q0 -1 -1 -11l-1 -17q-16 -261 -34 -375q-16 -108 -43 -139q-23 -26 -60 -27q-48 -2 -101 2q-2 26 -14 46q28 -3 59 -3q12 -1 23 -1h17q23 -1 34 13q22 23 39 126
q17 109 32 340h-87q-111 -362 -382 -535q-5 6 -17 16q-10 8 -21 15q135 77 229 207q91 124 145 297h-100q-35 -96 -98 -177q-59 -77 -137 -133q-11 15 -37 30q158 102 225 280h-108q-72 0 -85 -11q-8 25 -22 47q28 2 98 49q37 23 101 71q38 28 72 57q41 34 75 66h-354v47
h406l10 5l39 -28l-88 -75l-85 -68q-88 -68 -162 -114h433z" />
    <glyph glyph-name="uni5740" unicode="&#x5740;" 
d="M395 243l-44 -19l-290 -124l-19 48l72 27l83 33v334h-145v46h145v233h46v-233h140v-46h-140v-315l142 59zM955 9v-46h-643v46h133v606h47v-606h174v817h48v-347h229v-46h-229v-424h241z" />
    <glyph glyph-name="uni5747" unicode="&#x5747;" 
d="M382 262l12 -41l-333 -165l-18 49l142 64v373h-137v46h137v235h46v-235h129v-46h-129v-351zM798 262l-195 -108l-174 -94l-22 46l175 88l204 109zM677 304q-82 86 -190 171l30 28q116 -89 192 -165zM921 667v-22l-12 -306q-6 -125 -13 -200q-14 -146 -44 -180
q-23 -29 -73 -32q-66 -4 -164 4q-4 27 -15 47q48 -4 102 -6q19 -1 39 -1h25q31 -1 45 15q26 26 40 166q13 137 23 470h-345q-63 -106 -132 -176q-14 18 -36 36q139 128 216 351l45 -12q-29 -80 -68 -154h367z" />
    <glyph glyph-name="uni574F" unicode="&#x574f;" 
d="M359 233l9 -44l-309 -120l-16 49q52 16 142 51v371h-127v46h127v237h47v-237h118v-46h-118v-355zM713 533q60 -62 120 -135q63 -76 95 -127l-39 -30q-31 51 -93 129q-59 74 -118 139zM936 762v-46h-222q-25 -72 -55 -132v-653h-47v566q-95 -161 -222 -264q-14 18 -37 37
q205 153 310 446h-309v46h582z" />
    <glyph glyph-name="uni575A" unicode="&#x575a;" 
d="M519 740q47 -130 141 -225q109 96 158 225h-299zM879 774q-54 -170 -184 -290q106 -88 255 -125q-8 -6 -17 -19q-8 -12 -14 -23q-151 43 -260 137q-102 -82 -230 -125q-8 21 -28 41q123 38 225 116q-102 105 -151 254h-42v44h407l7 2zM356 324h-45v492h45v-492zM172 366
h-45v401h45v-401zM522 7h428v-44h-897v44h422v172h-319v44h319v80h47v-80h321v-44h-321v-172z" />
    <glyph glyph-name="uni5782" unicode="&#x5782;" 
d="M718 356h-194v-165h194v165zM475 191v165h-189v-165h189zM286 402h189v152h-189v-152zM524 554v-152h194v152h-194zM767 356v-165h133v-46h-376v-144h325v-46h-697v46h323v144h-373v46h135v165h-179v46h179v152h-127v46h365v129q-158 -13 -320 -18q-1 17 -12 42
q92 4 182 9q99 6 187 14q96 8 172 18q83 11 139 24l25 -42q-60 -13 -147 -25q-77 -10 -177 -19v-132h367v-46h-124v-152h176v-46h-176z" />
    <glyph glyph-name="uni578B" unicode="&#x578b;" 
d="M883 372q0 -45 -33 -56q-18 -5 -55 -7q-16 -1 -41 -1h-49q-3 22 -17 46q103 -3 129 0q20 0 20 18v458h46v-458zM694 445h-45v331h45v-331zM256 589h147v156h-147v-156zM253 545q-9 -74 -39 -132q-37 -72 -107 -121q-14 23 -32 35q64 44 97 104q28 49 36 114h-132v44h135
v156h-103v45h447v-45h-106v-156h126v-44h-126v-228h-46v228h-150zM951 9v-46h-902v46h436v153h-330v46h330v131h48v-131h311v-46h-311v-153h418z" />
    <glyph glyph-name="uni57C3" unicode="&#x57c3;" 
d="M886 523q-7 14 -20 34l-27 38q-269 -17 -347 -24q-41 -3 -60 -6l-15 -3q-5 -1 -10 -3l-4 16q-2 4 -2 7l-9 26q23 1 56 38q23 19 67 70l45 56q24 32 43 61l48 -20q-89 -120 -173 -197l330 20l-51 60q-20 24 -51 57l36 23q122 -122 184 -224zM344 227l-75 -34l-74 -33
l-134 -60l-18 48l139 57v337h-129v46h129v235h45v-235h121v-46h-121v-317q54 22 106 46zM670 205q78 -187 292 -237q-18 -17 -32 -40q-210 60 -292 246q-28 -74 -89 -132q-73 -67 -195 -115q-13 22 -29 36q123 48 192 115q59 56 81 127h-246v44h257q6 35 6 85v69h-144
q-39 -62 -75 -102q-18 16 -42 25q89 87 142 232l46 -12q-19 -48 -46 -99h405v-44h-240v-70q0 -49 -5 -84h295v-44h-281z" />
    <glyph glyph-name="uni57DF" unicode="&#x57df;" 
d="M897 693q-52 60 -128 110l30 26q80 -53 129 -106zM329 196l-71 -33l-57 -27q0 -1 -2 -1q-1 -1 -2 -1l-136 -64l-18 48l56 23q13 5 31 13l21 9q0 1 2 1l11 5v371h-116v46h116v237h45v-237h100v-46h-100v-350l108 49zM656 145l-93 -28l-256 -77l-15 46l163 45l196 56z
M559 481h-161v-196h161v196zM601 523v-280h-244v280h244zM920 513q-58 -201 -155 -345q42 -194 108 -194q30 0 37 155q20 -18 38 -24q-7 -102 -23 -138q-17 -40 -57 -40q-90 0 -138 191q-81 -105 -189 -181q-11 14 -37 33q123 79 213 206q-17 89 -28 207q-11 112 -16 251
h-347v45h347l-3 153h48v-78q0 -42 1 -75h221v-45h-220q6 -231 33 -402q75 126 121 290z" />
    <glyph glyph-name="uni57FA" unicode="&#x57fa;" 
d="M522 -3h355v-43h-751v43h349v130h-221v43h221v97h47v-97h226v-43h-226v-130zM306 348h392v87h-392v-87zM306 681v-81h392v81h-392zM306 475h392v85h-392v-85zM721 305q89 -125 238 -178q-18 -15 -33 -37q-161 66 -256 215h-334q-94 -151 -258 -229q-15 23 -34 37
q143 58 240 192h-229v43h203v333h-160v43h160v109h48v-109h392v108h48v-108h159v-43h-159v-333h200v-43h-225z" />
    <glyph glyph-name="uni5851" unicode="&#x5851;" 
d="M630 745v-112h227v112h-227zM857 480v112h-227v-1q0 -62 -9 -111h236zM613 439q-25 -107 -100 -177q-10 12 -37 24q64 59 90 150q11 37 15 80q4 34 4 75v196h317v-470q0 -40 -27 -52q-23 -7 -128 -7q-3 20 -16 42q89 -2 108 0q18 1 18 17v122h-244zM209 690
q-24 56 -70 116l37 17q47 -57 71 -112zM270 646h-219v43h283q43 64 76 134l44 -15l-35 -62q-20 -34 -36 -57h147v-43h-215v-120q0 -37 -7 -72h137v142h43v-213h-43v29h-150q-20 -53 -63 -95q-48 -47 -126 -81q-13 22 -30 35q68 28 112 66q38 33 58 75h-148v185h42v-143h122
q8 33 8 73v119zM952 -1v-44h-902v44h424v134h-319v44h319v77h49v-77h322v-44h-322v-134h429z" />
    <glyph glyph-name="uni5883" unicode="&#x5883;" 
d="M892 708h-493v43h226q-12 36 -32 77l43 9q21 -37 39 -86h217v-43zM520 574q-5 20 -16 52q-9 28 -21 58l41 9q29 -65 39 -106zM919 526h-551v44h336q32 68 49 120l46 -13l-24 -55l-25 -52h169v-44zM345 181l-76 -30l-210 -83l-16 49l132 47v376h-118v46h118v237h47v-237
h103v-46h-103v-358l113 42zM466 226h351v82h-351v-82zM466 345h351v79h-351v-79zM836 -21q32 0 43 4q14 5 20 23q2 10 3 35l2 56q16 -16 41 -21q-2 -74 -10 -100q-10 -22 -34 -29q-26 -7 -61 -7h-70q-41 0 -63 13q-23 12 -23 71v164h-100q-12 -117 -63 -174
q-55 -61 -185 -91q-10 23 -28 38q123 26 173 77q46 48 56 150h-116v275h442v-275h-133v-172q0 -28 11 -33q11 -4 34 -4h61z" />
    <glyph glyph-name="uni58EB" unicode="&#x58eb;" 
d="M523 457v-421h367v-48h-776v48h360v421h-416v47h416v324h49v-324h421v-47h-421z" />
    <glyph glyph-name="uni58F0" unicode="&#x58f0;" 
d="M208 402v-92q0 -51 -5 -90h272v182h-267zM811 402h-289v-182h289v182zM859 127h-48v49h-614q-12 -73 -40 -133q-32 -70 -84 -121q-16 20 -36 34q38 37 65 84q23 42 37 92q12 42 18 92q4 40 4 86v135h698v-318zM522 701v-120h359v-44h-745v44h339v120h-398v44h398v91h47
v-91h403v-44h-403z" />
    <glyph glyph-name="uni5904" unicode="&#x5904;" 
d="M680 104h-50v726h50v-265l23 13q61 -64 123 -136q65 -77 99 -127l-41 -26q-30 48 -89 121q-57 69 -115 131v-437zM244 629q-13 -46 -30 -90q39 -181 109 -298q89 161 122 388h-201zM499 666q-18 -144 -56 -264q-35 -113 -88 -205q42 -56 96 -95q49 -35 108 -55
q53 -19 117 -27q54 -7 122 -7h74q60 0 80 1q-6 -11 -11 -25q-7 -15 -8 -25h-137q-72 0 -130 7q-67 9 -123 29q-63 21 -114 58q-56 39 -101 97q-50 -75 -114 -133q-60 -54 -134 -94q-18 25 -38 38q157 80 256 232q-72 112 -110 273q-39 -89 -87 -153q-22 17 -39 27
q61 79 107 209q45 126 67 274l49 -16q-11 -64 -29 -138h202l9 3z" />
    <glyph glyph-name="uni5907" unicode="&#x5907;" 
d="M233 314v-127h242v127h-242zM768 314h-244v-127h244v127zM768 6v139h-244v-139h244zM475 6v139h-242v-139h242zM184 358h634v-428h-50v32h-535v-35h-49v431zM322 686q66 -82 178 -142q136 71 211 156h-376zM792 725q-41 -59 -105 -112q-60 -51 -138 -95q175 -82 414 -112
q-18 -18 -29 -44q-120 17 -229 49q-114 33 -205 81q-100 -51 -219 -89q-108 -35 -219 -56q-8 27 -23 46q102 16 206 48q111 33 206 78q-96 57 -162 135q-77 -71 -167 -119q-13 21 -34 35q100 50 179 126q68 66 107 138l52 -10q-27 -46 -54 -80h379l9 3z" />
    <glyph glyph-name="uni5916" unicode="&#x5916;" 
d="M479 678l32 -11q-21 -142 -61 -261q-39 -114 -95 -207q-105 -173 -268 -265q-18 24 -39 38q188 101 296 307q-68 68 -181 138l30 32q103 -63 172 -127q63 139 89 308h-214q-61 -168 -148 -273l-20 15q-6 5 -11 8q-6 5 -10 7q68 76 120 196q48 112 79 251l48 -10
q-19 -80 -42 -148h213zM690 529q171 -119 265 -223l-36 -35q-38 43 -109 106q-67 58 -138 111v-560h-49v905h49v-319z" />
    <glyph glyph-name="uni591A" unicode="&#x591a;" 
d="M778 724q-45 -78 -123 -148q-71 -64 -166 -118q-87 -50 -187 -88q-94 -35 -189 -56q-10 25 -25 44q184 35 358 128q-61 54 -136 94l35 28q39 -22 77 -47q41 -27 67 -50q68 41 121 86q57 49 95 101h-302q-107 -94 -243 -159q-14 20 -34 34q114 51 208 125q85 67 133 136
l54 -12q-33 -43 -70 -80h287l10 3zM936 383q-50 -105 -140 -188q-83 -76 -199 -133q-104 -52 -235 -87q-116 -31 -251 -49q-5 23 -21 47q137 15 259 48q135 35 241 90q-55 57 -133 116l39 22q76 -53 137 -114q76 44 132 97q61 57 99 124h-298q-66 -57 -143 -105
q-84 -52 -179 -90q-12 18 -32 35q143 56 257 139q104 77 160 157l55 -11l-33 -40q-19 -23 -37 -40h281l10 3z" />
    <glyph glyph-name="uni5927" unicode="&#x5927;" 
d="M545 488q56 -183 157 -314q106 -139 249 -201q-16 -13 -36 -45q-147 70 -254 215q-102 137 -162 331q-17 -84 -45 -156q-32 -83 -78 -151q-51 -75 -120 -134q-75 -63 -171 -106q-15 25 -36 39q94 40 167 100q67 56 117 128q45 65 76 144q27 69 44 150h-386v48h394
q6 40 10 84q4 37 6 78l3 134h50l-3 -135l-6 -78q-4 -43 -10 -83h426v-48h-392z" />
    <glyph glyph-name="uni5929" unicode="&#x5929;" 
d="M539 391q53 -159 157 -266q108 -111 261 -156q-19 -19 -32 -43q-307 105 -426 442q-15 -63 -42 -118q-30 -61 -76 -115q-51 -60 -122 -110q-77 -54 -177 -99q-13 23 -31 40q98 43 173 96q69 48 118 105q44 52 73 111q25 53 38 113h-384v49h393q8 61 8 134v127h-367v48
h789v-48h-373v-127q0 -38 -1 -66q-2 -36 -6 -68h424v-49h-397z" />
    <glyph glyph-name="uni5934" unicode="&#x5934;" 
d="M432 621q-87 71 -226 121l28 36q63 -23 125 -54q67 -34 102 -63zM341 441q-84 70 -222 126l30 33q141 -54 223 -121zM561 218q229 -112 370 -240l-33 -35q-62 58 -161 123q-96 64 -203 120zM940 369v-45h-391q-40 -148 -139 -240q-110 -101 -313 -153q-9 18 -29 40
q192 47 297 138q95 82 135 215h-438v45h450q10 45 15 99q6 48 8 109q2 49 3 117l1 126h48l-1 -125q-1 -67 -3 -117q-3 -60 -8 -109q-6 -54 -15 -100h380z" />
    <glyph glyph-name="uni5939" unicode="&#x5939;" 
d="M547 305q112 -259 398 -331q-8 -7 -17 -20q-8 -10 -14 -21q-299 83 -415 372h-8q-38 -142 -128 -230q-100 -97 -282 -147q-12 24 -30 39q171 47 265 133q87 78 124 205h-376v48h389q12 57 18 130q5 63 7 148h-385v48h385q1 33 1 75v78h49v-78q0 -42 -1 -75h377v-48h-378
q-2 -83 -7 -147q-6 -73 -17 -131h433v-48h-388zM227 595q75 -109 100 -199l-45 -17q-24 91 -97 202zM624 390q73 95 125 207l48 -17q-35 -60 -67 -108q-39 -61 -68 -97z" />
    <glyph glyph-name="uni5947" unicode="&#x5947;" 
d="M846 452q-161 81 -377 161q-89 -126 -357 -165q-6 16 -22 39q165 23 251 72q83 47 118 132h-350v44h364q12 43 18 98h50q-6 -53 -18 -98h376v-44h-389q-7 -20 -18 -40q227 -83 388 -163zM213 252v-162h287v162h-287zM546 48h-333v-69h-46v315h379v-246zM944 387h-145
v-391q0 -50 -40 -61q-37 -9 -190 -9q-4 22 -20 48q57 -2 112 -2q43 0 64 1q25 1 25 24v390h-691v45h885v-45z" />
    <glyph glyph-name="uni594B" unicode="&#x594b;" 
d="M759 413q-166 88 -243 242h-35q-36 -74 -89 -131q-61 -66 -148 -111h515zM746 37v149h-224v-149h224zM249 37h226v149h-226v-149zM475 370h-226v-141h226v141zM746 370h-224v-141h224v141zM567 655q111 -201 388 -262q-8 -6 -18 -19q-5 -6 -9 -12l-7 -11q-63 16 -126 44
v-466h-49v65h-497v-65h-46v464q-68 -29 -134 -46q-8 22 -25 41q152 36 251 111q45 33 79 74q31 38 55 82h-328v45h348q13 31 24 66q10 31 18 66h49q-16 -69 -40 -132h420v-45h-353z" />
    <glyph glyph-name="uni597D" unicode="&#x597d;" 
d="M200 578q-17 -77 -34 -145q-18 -73 -34 -128q68 -42 134 -93q73 146 98 366h-164zM415 618q-25 -266 -111 -437q83 -68 121 -117l-34 -39q-38 50 -111 112q-84 -138 -215 -209q-4 9 -14 21q-8 9 -18 18q127 61 209 201q-79 66 -165 117q19 55 39 134q19 72 38 159h-107
v46h117q22 115 34 209l48 -4q-6 -44 -16 -99l-20 -106h166l9 2zM953 356h-233v-364q0 -46 -36 -58q-30 -8 -146 -8q-3 9 -9 23l-11 23q107 -2 132 0q21 1 21 20v364h-243v46h243v127q90 73 164 177h-360v45h394l11 4l35 -25q-81 -122 -195 -217v-111h233v-46z" />
    <glyph glyph-name="uni5982" unicode="&#x5982;" 
d="M236 578q-36 -156 -72 -275q82 -52 147 -103q83 152 106 378h-181zM469 619q-12 -141 -42 -256q-30 -108 -76 -193q40 -33 67 -60q32 -30 51 -55l-34 -38q-34 44 -111 110q-90 -135 -237 -201q-5 9 -14 21l-17 20q142 58 230 191q-89 72 -178 127q43 124 81 293h-137v46
h147q13 64 21 108q11 57 16 101l48 -3q-6 -42 -17 -100l-20 -106h182l10 2zM868 73v603h-286v-603h286zM915 722v-757h-47v62h-286v-76h-46v771h379z" />
    <glyph glyph-name="uni59CB" unicode="&#x59cb;" 
d="M198 578q-17 -79 -34 -146q-18 -73 -35 -129q31 -18 65 -42q30 -21 63 -47q63 146 82 364h-141zM387 620q-21 -270 -93 -436q74 -63 117 -117l-31 -39q-17 24 -47 54q-24 24 -61 58q-72 -139 -194 -212q-7 18 -30 39q116 62 188 204q-42 34 -79 60q-43 31 -80 54
q19 53 39 133q19 71 38 160h-106v46h116q23 118 34 206l45 -3q-14 -97 -35 -203h142l9 2zM516 279v-262h334v262h-334zM471 324h426v-395h-47v43h-334v-46h-45v398zM788 686q114 -145 171 -279l-41 -20q-17 39 -35 73l-234 -17q-90 -6 -132 -10q-44 -4 -63 -7q-10 -2 -16 -4
q-5 -1 -10 -3q-6 22 -17 49q19 2 64 66q28 37 75 115q27 46 50 89q27 52 47 97l49 -16q-49 -98 -98 -180q-54 -93 -105 -159l367 22q-55 93 -110 166z" />
    <glyph glyph-name="uni59D3" unicode="&#x59d3;" 
d="M197 578q-33 -156 -68 -274q29 -17 63 -39q27 -18 61 -43q59 146 78 356h-134zM379 620q-19 -263 -89 -427q66 -54 100 -96l-29 -40q-32 41 -92 92q-71 -146 -196 -219q-11 19 -31 38q118 63 191 211q-83 63 -156 106q18 53 38 133q19 72 38 160h-105v46h114
q23 121 34 210l46 -3q-6 -42 -16 -100l-19 -107h136l8 2zM954 4v-46h-554v46h268v264h-211v46h211v243h-166q-33 -105 -78 -179q-14 11 -42 25q44 66 78 169q30 93 48 208l46 -7q-14 -85 -38 -170h152v227h47v-227h220v-46h-220v-243h203v-46h-203v-264h239z" />
    <glyph glyph-name="uni5B57" unicode="&#x5b57;" 
d="M136 532h-47v190h406q-22 50 -60 102l45 16q50 -64 70 -118h362v-190h-49v144h-727v-144zM925 246h-400v-253q0 -46 -37 -57q-28 -9 -159 -9q-5 19 -22 46q119 -2 146 0q22 1 22 19v254h-402v47h402v68q112 53 207 138h-449v46h497l11 2l34 -24q-101 -104 -250 -181v-49
h400v-47z" />
    <glyph glyph-name="uni5B58" unicode="&#x5b58;" 
d="M384 655q-57 -131 -135 -238v-489h-48v429q-60 -71 -134 -125q-12 23 -28 40q94 69 170 171q71 95 122 212h-263v46h283q23 57 44 131l50 -12q-19 -62 -42 -119h530v-46h-549zM953 214h-285v-220q0 -47 -36 -58q-19 -6 -63 -7q-18 -1 -48 -1h-60q-5 19 -18 46
q116 -3 155 -1q22 1 22 20v221h-292v46h292v90q98 52 177 127h-380v45h426l10 3l33 -23q-41 -45 -101 -92q-58 -43 -117 -77v-73h285v-46z" />
    <glyph glyph-name="uni5B66" unicode="&#x5b66;" 
d="M514 663q-20 72 -81 162l42 15q61 -88 83 -159zM136 477h-46v185h172q-32 67 -98 142l40 19q72 -79 99 -140l-35 -21h424q68 83 112 165l46 -20q-27 -41 -52 -75q-30 -41 -55 -70h176v-185h-47v141h-736v-141zM940 224h-418v-230q0 -47 -40 -59q-21 -5 -66 -7
q-19 -1 -50 -1h-63q-5 18 -23 46q137 -3 169 0q25 2 25 21v230h-409v45h409v78q114 40 210 108h-459v44h513l11 3l32 -25q-46 -42 -119 -84q-66 -39 -140 -69v-55h418v-45z" />
    <glyph glyph-name="uni5B88" unicode="&#x5b88;" 
d="M138 517h-48v191h411q-20 53 -58 114l45 13q46 -70 65 -127h355v-191h-49v145h-721v-145zM229 329q116 -106 171 -212l-40 -27q-51 103 -168 216zM938 397h-264v-391q0 -52 -40 -64q-34 -10 -180 -8q-2 9 -8 24l-11 23q53 -1 105 -1q42 0 61 1q25 1 25 24v392h-563v47
h563v154h48v-154h264v-47z" />
    <glyph glyph-name="uni5B89" unicode="&#x5b89;" 
d="M151 524h-48v189h378q-10 23 -25 54q-13 27 -28 55l48 11q18 -31 33 -61q18 -35 27 -59h360v-189h-49v143h-696v-143zM374 396l-49 -76q-25 -38 -46 -66q63 -20 122 -42q64 -23 123 -47q100 91 149 231h-299zM726 396q-50 -148 -153 -251q204 -85 323 -163l-39 -42
q-56 38 -143 83q-81 41 -183 86q-76 -62 -179 -106q-96 -42 -224 -72q-7 21 -32 44q122 24 215 61q99 38 171 93q-142 60 -277 101q60 77 115 166h-244v46h271q57 96 88 171l48 -10q-15 -35 -37 -79q-18 -35 -45 -82h527v-46h-202z" />
    <glyph glyph-name="uni5B8C" unicode="&#x5b8c;" 
d="M137 507h-47v204h403q-13 29 -28 58q-18 33 -34 58l47 13q43 -62 70 -129h360v-204h-48v157h-723v-157zM221 493v46h558v-46h-558zM854 -11q31 0 40 25q9 24 11 114q20 -12 45 -20q-5 -101 -22 -132q-18 -32 -71 -32h-169q-59 0 -79 15q-20 16 -20 63v284h-199
q-7 -87 -23 -144q-17 -64 -51 -108q-68 -90 -239 -129q-9 22 -26 39q162 34 224 115q30 39 46 97q14 51 20 130h-281v46h879v-46h-302v-284q0 -33 53 -33h164z" />
    <glyph glyph-name="uni5B98" unicode="&#x5b98;" 
d="M260 182v-163h514v163h-514zM260 537v-152h479v152h-479zM260 226h562v-293h-48v42h-514v-48h-48v654h574v-240h-526v-115zM916 729v-168h-49v122h-735v-122h-48v168h415q-17 52 -39 97l48 11l25 -55q13 -32 19 -53h364z" />
    <glyph glyph-name="uni5B9E" unicode="&#x5b9e;" 
d="M147 520h-47v187h403q-27 62 -63 114l47 14q47 -69 71 -128h344v-187h-49v141h-706v-141zM395 444q-57 65 -149 118l31 30q101 -58 149 -114zM177 437q105 -56 160 -118l-30 -36q-60 66 -159 122zM567 167q223 -91 359 -196l-32 -37q-128 106 -352 198zM931 245v-43h-425
q-43 -103 -132 -166q-95 -67 -261 -103q-6 17 -28 41q152 32 241 88q85 54 126 140h-377v43h396q22 65 33 161q4 41 7 95l4 106h50q-2 -61 -5 -104q-3 -53 -7 -95q-10 -95 -31 -163h409z" />
    <glyph glyph-name="uni5BB6" unicode="&#x5bb6;" 
d="M140 545h-47v193h385q-22 50 -46 85l47 14q34 -49 55 -99h380v-193h-48v148h-726v-148zM838 446q-69 -59 -169 -125q82 -234 288 -314q-20 -16 -32 -39q-204 89 -294 329q-26 -17 -59 -36q28 -98 14 -187q-14 -86 -58 -116q-35 -29 -93 -29q-39 0 -87 3q-2 24 -13 45
q58 -5 90 -5q47 0 70 19q71 46 44 213q-186 -151 -442 -226q-7 19 -26 42q122 30 251 95q132 66 206 136q-14 53 -34 90q-71 -51 -180 -104q-104 -50 -198 -80q-13 25 -26 40q229 58 384 178q-23 38 -59 75q-67 -38 -147 -72q-74 -32 -151 -55q-9 22 -28 39q107 30 199 69
q106 46 174 97h-256v44h587v-44h-268q-29 -26 -75 -57q73 -71 111 -171q62 39 127 86q67 50 111 90z" />
    <glyph glyph-name="uni5BB9" unicode="&#x5bb9;" 
d="M138 572h-47v162h403q-23 53 -48 91l47 12q36 -53 56 -103h361v-162h-49v117h-723v-117zM632 626q172 -102 270 -200l-33 -33q-98 101 -268 204zM386 611q-49 -61 -122 -122q-67 -55 -140 -98l-16 19q-12 12 -20 17q72 38 138 89q70 55 115 110zM746 256q-71 43 -129 91
q-63 53 -116 114q-92 -112 -232 -205h477zM724 8v203h-450v-203h450zM546 521q-1 -1 -2 -3l-17 -23q79 -95 193 -169q51 -33 112 -64q54 -27 120 -55q-19 -16 -33 -40q-75 33 -147 73v-308h-48v31h-450v-37h-47v304q-34 -21 -74 -41q-35 -17 -77 -35q-4 5 -7 10q-4 5 -7 10
q-10 12 -18 18q305 119 460 349z" />
    <glyph glyph-name="uni5BBD" unicode="&#x5bbd;" 
d="M127 575h-46v164h412q-22 46 -47 88l48 14q16 -26 30 -52q17 -30 26 -50h371v-164h-47v121h-747v-121zM734 99v268h-472v-270h-48v313h569v-311h-49zM829 535h-170v-84h-48v84h-223v-84h-49v84h-166v42h166v79h49v-79h223v79h48v-79h170v-42zM459 327h49v-79
q0 -48 -11 -84q-16 -48 -55 -89q-47 -48 -129 -86q-93 -45 -233 -78q-11 22 -29 40q135 30 225 70q78 35 122 78q37 35 51 78q10 30 10 72v78zM843 -15q40 0 52 28q11 28 15 137q8 -7 22 -13q10 -4 23 -8q-6 -118 -26 -152q-20 -36 -84 -36h-202q-68 0 -90 14q-23 15 -23 60
v173h48v-173q0 -30 66 -30h199z" />
    <glyph glyph-name="uni5BCC" unicode="&#x5bcc;" 
d="M209 239v-96h264v96h-264zM801 239h-281v-96h281v96zM801 5v100h-281v-100h281zM209 5h264v100h-264v-100zM163 280h686v-349h-48v33h-592v-38h-46v354zM795 588h-588v39h588v-39zM271 389h454v92h-454v-92zM226 350v170h546v-170h-546zM915 745v-171h-47v128h-734v-128
h-46v171h395q-18 36 -48 81l47 15q32 -46 59 -96h374z" />
    <glyph glyph-name="uni5BDF" unicode="&#x5bdf;" 
d="M121 603h-47v140h419q-24 49 -43 79l45 13q35 -52 51 -92h379v-140h-48v97h-756v-97zM485 592q-26 -70 -71 -132q-42 -58 -99 -107q-105 -91 -240 -138q-9 20 -26 37q99 30 183 91q-36 34 -88 69l30 23q56 -34 92 -69l16 14q10 8 17 15q18 16 31 30q-37 31 -94 66l28 24
q54 -30 93 -61q46 57 70 111h-165q-76 -89 -179 -149q-11 20 -29 29q80 45 143 109q55 57 86 117l46 -7q-19 -34 -38 -61h157l9 3zM334 367h346v-43h-346v43zM342 134q-42 -53 -112 -106q-61 -46 -131 -83q-14 18 -34 36q68 31 129 74q65 46 104 94zM533 186v-194
q0 -41 -32 -50q-17 -5 -53 -7q-16 -1 -40 -1h-49q-1 9 -7 22l-10 21q102 -3 125 0q19 1 19 15v194h-326v44h678v-44h-305zM678 152q66 -36 137 -81q75 -47 117 -79l-32 -34q-41 32 -115 80q-71 47 -138 85zM582 562q46 -79 110 -139q66 60 114 139h-224zM875 587
q-59 -106 -153 -191q103 -83 235 -115q-15 -14 -30 -39q-322 91 -432 414l40 12l25 -64h275l9 2z" />
    <glyph glyph-name="uni5BF8" unicode="&#x5bf8;" 
d="M223 448q60 -61 112 -130q56 -74 80 -126l-42 -28q-56 123 -189 260zM943 566h-239v-554q0 -65 -52 -77q-26 -6 -83 -8l-61 -2h-75q-6 24 -23 54q66 -1 133 -1q55 0 80 1q31 1 31 32v555h-596v47h596v220h50v-220h239v-47z" />
    <glyph glyph-name="uni5BF9" unicode="&#x5bf9;" 
d="M429 705q-35 -223 -122 -401q74 -117 115 -204l-39 -32q-16 36 -44 86q-24 45 -58 101q-92 -165 -210 -252q-12 23 -35 40q121 83 216 260q-88 141 -180 264l35 26q41 -53 85 -117l84 -124q69 149 99 317h-316v44h330l9 3zM952 558h-127v-557q0 -50 -37 -63
q-30 -10 -157 -9l-8 23q-6 15 -11 25q45 -2 90 -2q35 0 52 1q24 2 24 25v557h-300v46h300v227h47v-227h127v-46zM633 175q-12 48 -46 119q-33 68 -72 127l41 17q91 -134 121 -242z" />
    <glyph glyph-name="uni5BFB" unicode="&#x5bfb;" 
d="M809 439h-630v41h582v118h-553v42h553v109h-581v41h629v-351zM313 245q104 -81 153 -161l-39 -30q-47 81 -150 166zM951 266h-231v-256q0 -46 -36 -57q-19 -6 -62 -7q-18 -1 -49 -1h-63q-6 28 -17 45q26 -1 53 -1h102q24 1 24 22v255h-603v46h603v108h48v-108h231v-46z
" />
    <glyph glyph-name="uni5BFC" unicode="&#x5bfc;" 
d="M193 741v-129h583v129h-583zM333 396q-112 0 -149 18q-39 19 -39 79v292h679v-217h-631v-75q0 -32 24 -43q26 -11 108 -11h434q62 0 81 19q18 19 24 84q23 -13 47 -18q-8 -78 -35 -103q-29 -25 -116 -25h-427zM260 225q106 -94 160 -186l-38 -31q-46 89 -157 191z
M941 234h-227v-237q0 -48 -38 -57q-20 -5 -66 -7q-21 -1 -52 -1h-66q-4 19 -17 44q53 -2 106 -2q41 0 59 1q26 1 26 22v237h-600v45h600v90h48v-90h227v-45z" />
    <glyph glyph-name="uni5C04" unicode="&#x5c04;" 
d="M177 294h229v103h-229v-103zM177 679v-99h229v99h-229zM406 540h-229v-103h229v103zM452 -8q0 -45 -32 -57q-27 -9 -140 -9l-8 22q-5 14 -10 23q39 -1 78 -1l46 1q20 0 20 20v258h-6q-58 -81 -147 -155q-81 -66 -177 -117q-17 23 -34 36q88 42 167 102q82 63 138 134
h-287v45h72v426h105q24 63 38 114l48 -11q-8 -24 -20 -53l-21 -50h170v-728zM953 547h-116v-551q0 -47 -36 -61q-29 -9 -150 -9q-3 22 -18 46q44 -1 86 -1q34 0 47 1q24 1 24 23v552h-296v47h296v237h47v-237h116v-47zM666 190q-36 116 -123 232l38 19q88 -116 128 -231z
" />
    <glyph glyph-name="uni5C06" unicode="&#x5c06;" 
d="M584 708q-85 -73 -195 -123q-11 14 -31 30q194 85 282 217l48 -15q-19 -27 -56 -66h245l9 2l30 -18q-34 -70 -92 -130q-55 -56 -128 -101q-68 -42 -149 -74q-76 -29 -158 -48q-11 26 -24 39q138 29 254 88q-44 62 -106 111l36 21q31 -25 60 -53q32 -32 49 -57
q129 77 190 177h-264zM195 499q-42 82 -140 173l34 26q44 -40 82 -85q42 -49 60 -84zM246 832h47v-905h-47v378l-88 -87l-82 -79l-30 38q82 72 200 187v468zM470 249q97 -92 141 -178l-41 -25q-41 84 -140 181zM943 297h-128v-304q0 -48 -35 -58q-18 -5 -58 -7
q-17 -1 -44 -1h-54q-1 9 -7 23l-10 24q104 -3 140 -1q21 0 21 20v304h-419v46h419v139h47v-139h128v-46z" />
    <glyph glyph-name="uni5C0F" unicode="&#x5c0f;" 
d="M529 817v-811q0 -57 -43 -70q-36 -10 -179 -8q-9 30 -21 52q122 -3 167 -1q26 1 26 27v811h50zM764 588q69 -106 125 -228q58 -125 76 -211l-49 -22q-18 86 -74 212q-55 123 -122 230zM270 571q-14 -59 -31 -114q-19 -62 -42 -116q-25 -62 -54 -111q-31 -55 -67 -96
q-6 6 -19 15q-11 8 -22 14q35 39 66 92q28 48 51 107q22 52 39 111q16 53 27 108z" />
    <glyph glyph-name="uni5C18" unicode="&#x5c18;" 
d="M904 462q-80 114 -235 233l38 26q68 -52 133 -115q69 -66 103 -115zM524 431h-48v393h48v-393zM323 708q-43 -71 -108 -141q-61 -66 -126 -115l-18 17q-12 11 -19 15q65 45 125 107q62 65 101 131zM952 7v-46h-904v46h427v207h-337v45h337v127h49v-127h342v-45h-342v-207
h428z" />
    <glyph glyph-name="uni5C31" unicode="&#x5c31;" 
d="M870 615q-33 72 -100 144l34 20q74 -76 102 -141zM514 659h-455v45h230q-17 51 -52 119l44 11q39 -69 59 -130h174v-45zM203 261q-35 -140 -101 -231q-13 11 -38 25q62 80 96 214zM164 379h259v142h-259v-142zM319 337v-351q0 -36 -23 -45q-22 -8 -101 -8q-3 18 -16 40
q66 -2 81 0q14 0 14 13v351h-154v226h349v-226h-150zM446 88q-7 35 -28 86q-19 46 -43 89l35 17q56 -88 77 -174zM702 526q-7 -93 -21 -171q-16 -89 -41 -163q-27 -82 -66 -146q-42 -69 -98 -118l-17 13l-20 13q54 46 95 112q37 61 64 139q24 71 39 157q13 75 20 164h-134
v45h138q4 62 6 134l1 126h46l-1 -62q0 -36 -1 -65q-2 -73 -5 -133h239v-45h-244zM862 -8q13 0 22 1q11 1 15 4q13 6 17 27q4 18 6 107q15 -15 38 -20q-1 -37 -3 -67q-3 -34 -6 -47q-9 -27 -28 -35t-56 -8h-65q-37 0 -56 12q-21 14 -21 82v382h44v-391q0 -36 10 -42
q10 -5 30 -5h53z" />
    <glyph glyph-name="uni5C3A" unicode="&#x5c3a;" 
d="M239 504q0 -34 -1 -52h564v276h-563v-224zM572 405q46 -165 137 -274q97 -115 241 -162q-9 -8 -19 -20q-8 -11 -15 -22q-150 54 -249 179q-95 119 -142 299h-289q-3 -65 -12 -123q-10 -67 -26 -126q-19 -66 -47 -122q-31 -61 -72 -110q-16 22 -38 34q48 57 80 129
q29 65 45 142q14 65 20 143q2 32 3 68q1 30 1 65v270h661v-370h-279z" />
    <glyph glyph-name="uni5C3C" unicode="&#x5c3c;" 
d="M231 735v-168h575v168h-575zM231 522v-7q0 -35 -1 -67q-1 -38 -3 -73q-5 -83 -17 -154q-14 -85 -38 -155q-26 -79 -65 -140q-15 15 -42 24q38 60 64 136q23 67 36 147q10 68 15 147q2 34 2 70q1 30 1 66v264h671v-258h-623zM778 18q50 0 65 29q15 27 20 125
q20 -16 47 -21q-9 -109 -31 -142q-26 -37 -101 -37h-284q-82 0 -110 19q-30 20 -30 78v402h47v-241q252 90 409 169l38 -39q-191 -84 -447 -173v-118q0 -31 17 -41q18 -10 74 -10h286z" />
    <glyph glyph-name="uni5C42" unicode="&#x5c42;" 
d="M193 738v-141h635v141h-635zM193 554v-62q0 -34 -1 -65q-1 -37 -3 -70q-4 -80 -15 -148q-13 -81 -35 -147q-24 -76 -60 -134q-14 14 -41 25q35 56 58 129q21 63 32 140q10 65 14 141q2 31 2 66q1 29 1 63v290h730v-228h-682zM302 409v44h567v-44h-567zM526 241
q-45 -68 -90 -125q-49 -63 -94 -108l447 24l-51 75l-50 71l40 18q111 -148 172 -254l-42 -23q-15 28 -45 74q-345 -21 -435 -29q-51 -4 -74 -7l-18 -3l-12 -4l-11 38l-5 12q20 3 59 47q23 23 62 73l42 57q23 33 41 64h-232v45h709v-45h-413z" />
    <glyph glyph-name="uni5C4F" unicode="&#x5c4f;" 
d="M194 738v-124h635v124h-635zM194 571v-95q0 -34 -1 -64q-1 -36 -3 -69q-4 -78 -15 -144q-13 -79 -35 -143q-25 -74 -61 -130q-18 19 -41 26q35 55 59 125q20 61 32 136q10 62 14 137q2 30 2 65q1 28 1 61v306h732v-211h-684zM417 429q-25 43 -68 106l41 14
q44 -59 69 -102zM688 212v157h-227v-103q0 -36 -2 -54h229zM940 168h-204v-243h-48v243h-235q-13 -75 -58 -131q-54 -66 -158 -113q-13 20 -32 36q92 41 143 98q42 47 57 110h-191v44h198q3 29 3 55v102h-173v43h430q21 30 45 72q21 38 37 72l48 -17q-42 -72 -81 -127h190
v-43h-175v-157h204v-44z" />
    <glyph glyph-name="uni5C55" unicode="&#x5c55;" 
d="M196 738v-124h637v124h-637zM196 571v-80q0 -34 -1 -65q-1 -37 -3 -70q-4 -80 -15 -148q-14 -81 -36 -147q-25 -76 -62 -134q-5 6 -19 14q-12 7 -22 11q36 56 60 129q21 63 33 140q10 65 14 141q2 31 2 66q1 29 1 63v291h732v-211h-684zM447 280h231v127h-231v-127z
M881 194q-36 -29 -86 -61q-43 -27 -91 -53q103 -83 250 -115q-20 -20 -29 -41q-284 70 -389 313h-159v-234l243 58q-2 -27 1 -42q-202 -52 -252 -67q-31 -8 -45 -14q-11 -4 -18 -9q-8 24 -23 43q18 9 30 22q17 20 17 46v197h-124v43h195v127h-164v43h164v99h46v-99h231v99
h46v-99h183v-43h-183v-127h221v-43h-364q37 -76 94 -130q43 24 89 55q50 33 80 58z" />
    <glyph glyph-name="uni5C5E" unicode="&#x5c5e;" 
d="M195 746v-109h633v109h-633zM195 596v-98q0 -35 -1 -65q-1 -37 -3 -71q-4 -79 -15 -147q-13 -81 -35 -148q-25 -75 -62 -133q-5 5 -18 13q-11 7 -22 11q36 57 59 129q21 64 33 141q10 64 14 140q2 32 2 67q1 29 1 63v290h727v-192h-680zM542 309v86h-211v-86h211z
M587 395v-86h216v86h-216zM892 -20q0 -36 -27 -45q-22 -7 -130 -7q-1 7 -6 18l-9 19q84 -3 110 -1q16 1 16 16v184h-259v-91l123 5q-29 35 -45 52l31 13q71 -76 112 -138l-33 -16q-17 26 -38 54l-391 -19l-4 41l200 7v92h-251v-239h-45v278h296v70h-255v159h255v66
q-64 -4 -136 -7q-65 -2 -132 -3q-1 7 -5 18l-6 18q146 2 290 12q156 10 242 24l32 -32q-44 -8 -110 -15q-52 -6 -130 -12v-69h262v-159h-262v-70h305v-223z" />
    <glyph glyph-name="uni5DE5" unicode="&#x5de5;" 
d="M944 56v-48h-886v48h415v610h-365v49h790v-49h-374v-610h420z" />
    <glyph glyph-name="uni5DE6" unicode="&#x5de6;" 
d="M383 599q-23 -92 -51 -170q-30 -88 -67 -162q-39 -80 -86 -147q-50 -71 -110 -127l-24 29q-5 5 -9 8q56 52 104 118q45 62 82 138q35 70 64 152q26 75 48 161h-260v46h271q21 87 37 188l49 -8q-9 -50 -17 -90q-10 -48 -20 -90h529v-46h-540zM941 7v-46h-716v46h340v331
h-240v47h567v-47h-279v-331h328z" />
    <glyph glyph-name="uni5DEE" unicode="&#x5dee;" 
d="M619 24h310v-45h-700v45h341v176h-210v45h500v-45h-241v-176zM936 389v-46h-530q-106 -228 -321 -348l-37 38q202 105 304 310h-287v46h309q20 46 40 112h-257v45h270q14 52 24 106h-340v45h212q-32 60 -76 114l40 17q58 -65 87 -131h255q50 67 81 137l50 -18
q-16 -29 -38 -62q-19 -29 -40 -57h215v-45h-396q-9 -54 -24 -106h372v-45h-384l-18 -57q-11 -31 -21 -55h510z" />
    <glyph glyph-name="uni5DF1" unicode="&#x5df1;" 
d="M762 -2q81 0 106 36q24 33 33 153q23 -15 49 -20q-12 -132 -45 -173q-36 -44 -146 -44h-410q-111 0 -149 22q-42 23 -42 93v380h611v279h-624v49h673v-442h-49v66h-562v-333q0 -39 26 -52q27 -14 109 -14h420z" />
    <glyph glyph-name="uni5DF2" unicode="&#x5df2;" 
d="M749 3q83 0 109 40q24 37 34 169q23 -16 50 -22q-14 -142 -47 -185q-39 -50 -150 -50h-400q-110 0 -148 25q-41 27 -41 106v521h48v-180h565v292h-673v47h722v-438h-49v52h-565v-296q0 -48 27 -64q27 -17 107 -17h411z" />
    <glyph glyph-name="uni5E02" unicode="&#x5e02;" 
d="M522 633v-150h326v-359q0 -49 -36 -59q-21 -6 -65 -8q-20 -1 -49 -1h-61q-1 10 -7 24l-11 24q114 -4 157 -2q23 2 23 21v313h-277v-509h-49v509h-264v-386h-47v433h311v150h-416v47h442q-23 64 -74 144l45 15q57 -88 79 -147l-32 -12h427v-47h-422z" />
    <glyph glyph-name="uni5E03" unicode="&#x5e03;" 
d="M388 626q-56 -114 -121 -201h254v146h47v-146h308v-329q0 -44 -34 -54q-32 -10 -170 -8q-5 22 -18 43q50 -1 97 -1q39 0 55 1q22 1 22 20v282h-260v-454h-47v454h-245v-357h-48v353q-73 -86 -157 -144l-14 19q-9 12 -16 19q91 63 169 159q71 88 125 198h-269v47h290
q34 75 58 160l49 -12q-23 -77 -55 -148h527v-47h-547z" />
    <glyph glyph-name="uni5E26" unicode="&#x5e26;" 
d="M86 493h830v-193h-49v150h-345v-130h293v-243q0 -41 -30 -51q-16 -5 -52 -7q-15 -1 -39 -1h-48q-3 20 -17 43q42 -1 79 -1l42 1q17 1 17 16v199h-245v-349h-49v349h-228v-259h-48v303h276v130h-340v-150h-47v193zM947 704v-44h-168v-116h-47v116h-210v-110h-48v110h-201
v-112h-47v112h-171v44h171v122h47v-122h201v123h48v-123h210v122h47v-122h168z" />
    <glyph glyph-name="uni5E2E" unicode="&#x5e2e;" 
d="M306 437q-27 -52 -69 -92q-50 -49 -120 -80q-13 18 -34 35q63 26 108 63q40 33 64 74h-198v41h218q17 43 17 88v9h-196v41h196v88h-217v42h217v86h48v-86h194v-42h-194v-88h177v-41h-177v-9q0 -42 -17 -88h220v-41h-237zM855 45q0 -42 -33 -52q-18 -5 -60 -6
q-18 -1 -47 -1h-60q-4 19 -18 41q122 -2 148 0q22 1 22 18v166h-285v-284h-48v284h-265v-232h-48v277h313v82h48v-82h333v-211zM923 770l-64 -84l-68 -83q66 -38 96 -76q26 -34 27 -72q1 -57 -45 -79q-22 -11 -57 -15q-66 -6 -120 0q-3 21 -17 42q73 -8 121 -3l24 3
q13 3 20 6q29 11 29 49q-2 65 -133 138q65 78 114 150h-211v-445h-46v489h289l9 2z" />
    <glyph glyph-name="uni5E38" unicode="&#x5e38;" 
d="M826 804q-57 -80 -101 -127l-38 17q50 58 92 131zM268 676q-29 58 -87 127l42 19q60 -67 91 -124zM292 380h427v119h-427v-119zM850 32q0 -43 -32 -53q-19 -5 -58 -7q-17 -1 -44 -1h-55q-2 9 -7 22l-11 22q105 -3 139 -1q19 3 19 17v168h-264v-273h-48v273h-280v-227h-48
v271h328v97h-243v199h521v-199h-230v-97h313v-211zM913 667v-198h-48v154h-723v-154h-46v198h390v167h49v-167h378z" />
    <glyph glyph-name="uni5E45" unicode="&#x5e45;" 
d="M389 193q0 -34 -19 -44q-15 -9 -73 -9q-1 16 -16 43q19 -1 37 -1h21q10 1 10 12v402h-97v-669h-43v669h-91v-464h-40v508h131v192h43v-192h137v-447zM481 294v-125h173v125h-173zM885 294h-187v-125h187v125zM885 4v123h-187v-123h187zM654 4v123h-173v-123h173zM436 336
h494v-406h-45v32h-404v-35h-45v409zM842 608h-316v-140h316v140zM887 649v-222h-404v222h404zM949 776v-43h-523v43h523z" />
    <glyph glyph-name="uni5E55" unicode="&#x5e55;" 
d="M307 719h-244v43h244v71h47v-71h287v71h48v-71h246v-43h-246v-56h-48v56h-287v-56h-47v56zM751 183q-67 45 -106 87h-292q-48 -47 -108 -87h229v66h46v-66h231zM232 412h549v79h-549v-79zM232 528h549v78h-549v-78zM698 270q105 -94 262 -139q-16 -13 -32 -37
q-68 24 -132 62v-145q0 -37 -25 -45q-14 -5 -45 -6q-13 -1 -35 -1h-43q-2 13 -16 39q78 -3 102 -1q16 0 16 14v130h-230v-212h-46v212h-214v-188h-46v209q-60 -37 -139 -70q-10 20 -29 35q143 57 242 143h-231v42h275q30 30 52 63h-199v268h644v-268h-388q-22 -34 -49 -63
h552v-42h-246z" />
    <glyph glyph-name="uni5E73" unicode="&#x5e73;" 
d="M944 291h-422v-364h-48v364h-416v48h416v376h-365v47h780v-47h-367v-376h422v-48zM227 657q78 -139 104 -239l-45 -17q-27 106 -101 243zM648 410q30 48 66 123q34 71 56 130l50 -17l-31 -65l-33 -67q-39 -76 -67 -119z" />
    <glyph glyph-name="uni5E74" unicode="&#x5e74;" 
d="M525 213v227h-255v-227h255zM948 166h-375v-240h-48v240h-472v47h169v273h303v173h-262q-70 -121 -161 -207q-20 17 -43 30q155 133 236 354l49 -12q-11 -28 -26 -61l-28 -58h616v-46h-333v-173h312v-46h-312v-227h375v-47z" />
    <glyph glyph-name="uni5E76" unicode="&#x5e76;" 
d="M337 633q-29 80 -111 180l44 18q81 -97 112 -176zM659 335v241h-313v-241h313zM944 289h-236v-362h-49v362h-316q-4 -56 -17 -101q-15 -53 -41 -97q-30 -49 -76 -90q-49 -44 -118 -79q-12 20 -33 37q123 62 180 153q25 39 39 86q12 41 17 91h-236v46h239v241h-200v47h524
q58 102 100 211l51 -17q-23 -52 -48 -100q-28 -54 -52 -94h239v-47h-203v-241h236v-46z" />
    <glyph glyph-name="uni5E7B" unicode="&#x5e7b;" 
d="M413 281q38 -71 71 -150q34 -83 47 -137l-43 -19q-9 41 -35 113q-226 -42 -293 -56q-35 -8 -52 -13q-8 -2 -14 -5l-9 -4l-7 23q-6 16 -11 25q14 4 38 30q10 10 24 27l28 35q26 33 70 97l50 75l54 86q-152 -13 -200 -19q-41 -5 -54 -10q-5 21 -16 49q19 5 58 73
q26 37 71 126q25 49 46 97q24 55 41 104l47 -21q-41 -102 -89 -195q-51 -99 -102 -174l224 15q36 63 68 127l47 -21q-146 -273 -315 -478l280 49q-18 43 -31 70q-17 38 -33 67zM917 702q-3 -96 -6 -169q-3 -80 -6 -141q-6 -130 -14 -208q-14 -151 -45 -187q-25 -31 -73 -34
q-52 -3 -159 4l-2 12q-1 7 -3 12q-4 14 -10 24q45 -4 98 -5q18 -1 37 -1h25q31 -1 43 16q27 27 41 172q15 142 26 489h-393v47h441v-31z" />
    <glyph glyph-name="uni5E7F" unicode="&#x5e7f;" 
d="M535 684q-17 57 -56 137l47 12q16 -30 33 -70q15 -35 25 -64zM939 632h-739v-227q0 -63 -4 -117q-5 -69 -16 -128q-13 -69 -35 -127q-24 -65 -60 -115q-7 9 -17 19q-13 11 -21 15q33 47 55 107q20 54 31 118q10 54 14 118q3 48 3 110v274h789v-47z" />
    <glyph glyph-name="uni5E8F" unicode="&#x5e8f;" 
d="M908 342l34 -17l-88 -106q-50 -58 -86 -88l-38 21q61 54 132 143h-263v-303q0 -48 -39 -58q-21 -6 -67 -7q-19 -1 -50 -1h-63q-2 9 -7 23q-4 7 -11 23q54 -2 106 -2q39 0 60 1q23 1 23 21v303h-333v44h398q-50 27 -118 60l-125 57l28 29q32 -13 77 -33l40 -18
q17 -7 40 -18q104 49 194 127h-470v43h516l11 3l33 -24q-98 -98 -239 -170l26 -13q17 -9 24 -12q27 -14 42 -23l-7 -8h210zM946 716v-46h-771v-234q0 -65 -3 -122q-4 -71 -14 -134q-11 -73 -29 -134q-20 -69 -50 -122q-14 16 -39 27q28 51 48 116q16 58 26 127q8 58 12 126
l2 60v336h406q-25 53 -55 105l44 15q42 -69 65 -120h358z" />
    <glyph glyph-name="uni5E94" unicode="&#x5e94;" 
d="M178 651v-229q0 -64 -3 -119q-4 -71 -13 -132q-11 -72 -29 -131q-20 -68 -49 -120q-15 16 -40 28q28 50 46 113q17 57 26 124q8 57 12 124l2 58v330h411q-10 24 -29 62l-35 65l44 14q46 -76 68 -127l-40 -14h387v-46h-758zM580 200q-11 67 -35 165q-23 92 -49 177l43 14
q28 -90 51 -176q25 -100 35 -166zM378 148q-14 65 -47 166q-28 85 -63 176l41 18q34 -85 65 -177q33 -97 49 -164zM950 24v-46h-744v46h412q70 117 129 264q55 141 87 276l49 -21q-37 -131 -91 -264q-57 -138 -125 -255h283z" />
    <glyph glyph-name="uni5E95" unicode="&#x5e95;" 
d="M175 683v-247q0 -66 -3 -123q-4 -72 -13 -135q-11 -74 -29 -135q-20 -69 -50 -122q-21 21 -40 28q28 51 48 117q16 57 26 127q8 58 12 126l2 61v348h409q-24 54 -52 90l43 16q40 -49 62 -106h357v-45h-772zM561 165q72 -118 106 -196l-39 -20q-34 85 -104 200zM617 344
q-18 95 -24 201q-55 -5 -122 -10l-121 -7v-184h267zM671 300q33 -144 88 -231q54 -86 111 -85q34 0 41 150q21 -17 39 -20q-7 -101 -24 -139q-18 -37 -58 -37q-77 0 -143 101q-64 97 -100 261h-275v-281l174 61q0 -20 4 -40q-155 -58 -193 -74q-40 -16 -52 -26q-4 19 -19 44
q7 2 13 5q7 4 13 9q14 14 14 38v531l141 8l142 12q73 7 131 15q62 8 105 17l39 -37q-85 -18 -222 -33q4 -107 23 -205h252v-44h-244z" />
    <glyph glyph-name="uni5E9C" unicode="&#x5e9c;" 
d="M168 671v-352q0 -55 -3 -99q-3 -57 -10 -105q-9 -57 -25 -102q-17 -52 -42 -90q-19 19 -41 28q24 36 40 84q14 42 22 94q7 44 9 97q2 38 2 92v399h417q-10 23 -26 56l-29 55l45 13q40 -65 64 -124h352v-46h-775zM448 631q-29 -85 -77 -172v-533h-46v458q-39 -58 -94 -115
q-9 20 -27 40q64 62 118 157q50 88 78 178zM944 431h-125v-435q0 -47 -34 -59q-28 -9 -147 -9q-4 19 -18 48q39 -1 83 -1h48q21 1 21 21v435h-324v45h324v161h47v-161h125v-45zM625 122q-18 38 -55 99q-33 54 -69 107l39 17q86 -117 126 -202z" />
    <glyph glyph-name="uni5EA6" unicode="&#x5ea6;" 
d="M183 451q0 -67 -3 -125q-4 -73 -13 -137q-11 -76 -30 -138q-20 -71 -50 -126q-6 6 -20 14q-11 7 -22 11q29 53 49 120q18 59 28 131q8 60 11 131q2 29 2 61q1 27 1 58v274h394q-24 57 -50 99l46 13q38 -61 59 -112h357v-45h-759v-229zM432 510v-129h280v129h-280z
M386 340v170h-176v42h176v99h46v-99h280v99h47v-99h172v-42h-172v-170h-373zM384 219q64 -91 190 -152q140 62 205 152h-395zM850 245q-36 -63 -94 -115q-55 -48 -130 -85q139 -57 329 -77q-19 -19 -28 -42q-203 27 -354 95q-79 -33 -179 -56q-85 -20 -191 -33q-6 18 -22 42
q95 10 176 26q91 19 166 47q-118 66 -182 158l34 14h-147v42h582l10 3z" />
    <glyph glyph-name="uni5EB7" unicode="&#x5eb7;" 
d="M573 331h230v96h-230v-96zM573 467h230v90h-230v-90zM889 238q-37 -29 -88 -60q-46 -29 -92 -54q105 -77 253 -110q-8 -6 -17 -18q-8 -9 -14 -20q-234 57 -358 227v-208q0 -48 -38 -60q-19 -5 -61 -7q-18 -1 -45 -1h-56q-5 20 -19 45q46 -2 93 -2q37 0 54 1q24 1 24 24
v131l-171 -74l-152 -64l-21 40q57 21 156 61l92 37l96 39v126h-281v40h281v96h-325v40h325v90h-274v40h274v98h-354v-254q0 -66 -3 -124q-4 -72 -13 -135q-10 -74 -28 -136q-20 -69 -48 -122q-19 19 -39 26q27 52 46 118q16 58 25 128q8 58 12 128l2 60v355h404
q-27 49 -55 87l45 16q17 -22 37 -53q17 -26 30 -50h357v-44h-370v-98h276v-128h104v-44h-104v-134h-276v-19q39 -68 104 -123q102 58 176 117zM269 270q41 -25 83 -55q44 -33 68 -56l-30 -30q-28 25 -68 56q-44 35 -82 59z" />
    <glyph glyph-name="uni5EFA" unicode="&#x5efa;" 
d="M649 699v-91h171v91h-171zM820 567h-171v-94h171v94zM603 699h-205v42h205v86h46v-86h216v-133h77v-41h-77v-136h-216v-92h240v-41h-240v-100h281v-42h-281v-119h-46v119h-265v42h265v100h-220v41h220v92h-213v42h213v94h-275v41h275v91zM327 482q-27 -206 -92 -346
q69 -78 184 -110q51 -14 116 -21q57 -6 131 -6l289 1q-14 -21 -20 -45h-270q-78 0 -138 6q-67 7 -121 22q-117 32 -192 112q-55 -98 -132 -160q-15 21 -37 34q80 59 137 164q-55 73 -91 191l39 17q25 -94 73 -164q51 116 73 268h-164q32 52 75 131q40 72 76 146h-194v44h266
l-73 -141l-75 -136h102l9 2z" />
    <glyph glyph-name="uni5F00" unicode="&#x5f00;" 
d="M662 407v310h-308v-259q0 -34 -1 -51h309zM944 361h-233v-435h-49v435h-311q-5 -66 -18 -119q-14 -63 -41 -115q-29 -59 -75 -108q-49 -53 -118 -96q-16 21 -36 35q65 41 111 90q43 45 71 99q26 48 40 105q12 49 17 109h-244v46h246q1 18 1 52v258h-208v46h814v-46h-200
v-310h233v-46z" />
    <glyph glyph-name="uni5F02" unicode="&#x5f02;" 
d="M194 742v-138h582v138h-582zM336 375q-112 0 -150 19q-39 20 -39 80v311h676v-225h-629v-86q0 -33 25 -44q26 -11 109 -11h433q62 0 82 20q18 19 24 87q21 -13 47 -18q-8 -82 -36 -107q-29 -26 -118 -26h-424zM944 171h-232v-241h-48v241h-354q-14 -74 -59 -130
q-55 -69 -159 -118q-15 23 -32 36q94 42 144 101q42 48 57 111h-204v45h211l2 23v99h47v-99l-2 -23h349v121h48v-121h232v-45z" />
    <glyph glyph-name="uni5F0F" unicode="&#x5f0f;" 
d="M858 662q-53 65 -152 132l33 27q98 -64 153 -126zM335 64q12 3 28 6l202 47l5 -43l-261 -63l-227 -54l-16 47l159 36l63 13v320h-196v47h446v-47h-203v-309zM636 590q20 -278 82 -446q63 -170 149 -170q40 0 50 193q16 -14 43 -24q-8 -126 -27 -172q-20 -47 -70 -47
q-113 0 -186 189q-67 175 -89 477h-529v47h526q-3 44 -5 95l-2 97h50q0 -48 1 -98l4 -94h309v-47h-306z" />
    <glyph glyph-name="uni5F3A" unicode="&#x5f3a;" 
d="M63 779h300v-269h-230q-4 -38 -11 -93l-12 -89h243l-1 -10q0 -11 -1 -15q-11 -174 -24 -249q-12 -74 -33 -97q-21 -21 -57 -22q-40 -3 -113 3q-2 28 -13 44q32 -3 67 -4l43 -1q24 0 34 11q16 15 27 81q11 68 21 214h-216v1h-30q22 116 36 271h224v179h-254v45zM636 228
v169h-164v-169h164zM683 397v-169h168v169h-168zM493 586h331v150h-331v-150zM915 -81q-10 26 -36 73l-264 -22q-134 -11 -226 -17l-8 48l255 17v168h-209v254h209v103h-188v236h422v-236h-187v-103h213v-254h-213v-166l170 13q-37 59 -73 102l39 19q100 -118 136 -213z" />
    <glyph glyph-name="uni5F53" unicode="&#x5f53;" 
d="M868 775q-70 -136 -147 -247l-39 19q33 46 73 119q38 69 65 128zM267 537q-38 106 -135 231l42 18q93 -112 139 -228zM524 476h333v-551h-49v46h-686v47h686v188h-636v46h636v176h-668v48h334v357h50v-357z" />
    <glyph glyph-name="uni5F55" unicode="&#x5f55;" 
d="M859 336q-96 -86 -205 -154q122 -125 297 -173q-21 -19 -33 -41q-260 80 -394 316v-295q0 -45 -34 -56q-29 -9 -153 -7q-2 9 -7 22l-11 22q102 -3 136 -1q21 1 21 19v176l-289 -128l-83 -35l-26 43q35 13 83 33l315 131v199h-406v44h674q3 31 4 57q3 31 4 59h-582v45h584
q4 61 6 115h-617v46h623l9 3l36 -4q-2 -69 -7 -155q-5 -92 -11 -166h144v-44h-413v-33q37 -87 101 -162q51 35 103 76q56 44 90 78zM178 359q118 -63 184 -128l-34 -34q-62 64 -182 134z" />
    <glyph glyph-name="uni5F62" unicode="&#x5f62;" 
d="M904 795q-115 -138 -288 -229l-17 17q-5 6 -9 9q-5 5 -9 8q75 38 151 96q80 61 127 119zM936 522q-56 -69 -144 -138q-84 -66 -169 -111q-12 15 -34 35q82 41 165 104q87 66 139 129zM423 440v283h-189v-283h189zM470 394v-466h-47v466h-190q-1 -71 -7 -127
q-8 -66 -23 -122q-17 -62 -44 -115q-30 -58 -74 -107q-17 20 -37 31q41 46 69 100q26 50 42 109q14 52 21 114q6 52 7 117h-139v46h140v283h-125v46h507v-46h-100v-283h116v-46h-116zM963 250q-133 -210 -391 -323l-16 19q-11 12 -19 19q255 102 382 304z" />
    <glyph glyph-name="uni5F69" unicode="&#x5f69;" 
d="M907 795q-50 -61 -125 -123q-72 -59 -144 -99l-17 18q-10 10 -19 17q70 37 140 92q75 58 119 114zM938 521q-53 -65 -136 -131q-80 -63 -159 -105q-19 23 -36 35q78 40 155 99q83 62 131 122zM564 778q-43 -13 -103 -25q-55 -11 -124 -20q-61 -9 -131 -16
q-63 -6 -129 -11q-1 8 -6 21l-8 20q66 5 127 12q70 7 129 15q67 10 119 20q57 12 94 25zM416 490q57 93 97 198l47 -16l-54 -105q-32 -58 -54 -93zM339 506q-15 75 -66 165l39 11q52 -84 69 -161zM185 474q-22 77 -88 162l38 17q66 -87 92 -160zM359 325q56 -45 109 -96
q55 -54 83 -91l-35 -32q-58 79 -161 167v-346h-47v344q-102 -167 -242 -264q-13 22 -30 41q157 99 257 283h-232v45h247v115h47v-115h220v-45h-220v-10zM962 238q-125 -204 -376 -311q-17 26 -35 38q249 99 366 292z" />
    <glyph glyph-name="uni5F71" unicode="&#x5f71;" 
d="M899 792q-49 -63 -123 -128q-70 -61 -140 -104l-17 18q-11 10 -20 16q69 39 139 97q73 61 116 120zM936 524q-53 -69 -138 -137q-82 -65 -165 -108q-13 18 -34 34q82 41 161 102q83 64 132 128zM503 759h-337v-73h337v73zM503 649h-337v-76h337v76zM550 535h-430v262h430
v-262zM584 418h-516v42h240q-10 22 -29 55l43 13q22 -38 37 -68h225v-42zM210 131q-43 -98 -110 -160l-27 22q-5 4 -9 6q66 60 102 143zM170 215h324v103h-324v-103zM354 176v-187q0 -36 -25 -46q-21 -8 -114 -8q-3 19 -17 42q31 -1 61 -1h34q15 0 15 13v187h-184v181h416
v-181h-186zM462 145q68 -79 98 -139l-38 -21q-33 68 -96 141zM957 232q-123 -194 -359 -301q-15 19 -33 36q232 100 349 281z" />
    <glyph glyph-name="uni5F84" unicode="&#x5f84;" 
d="M923 376q-112 71 -286 144q-66 -47 -144 -87q-70 -36 -147 -65q-15 26 -30 38q139 48 263 130q66 44 118 91q55 52 92 105h-410v45h442l9 3l35 -21q-63 -112 -187 -209q77 -32 150 -68q78 -38 122 -65zM315 813q-85 -133 -224 -232q-10 20 -28 38q60 42 115 98
q59 60 90 113zM324 594q-30 -59 -80 -127v-539h-48v478q-58 -69 -119 -119q-10 20 -30 42q147 115 234 280zM952 3v-45h-639v45h297v280h-233v45h512v-45h-231v-280h294z" />
    <glyph glyph-name="uni5F85" unicode="&#x5f85;" 
d="M314 814q-88 -134 -234 -233q-8 18 -27 39q140 91 215 210zM324 594q-31 -55 -80 -121v-546h-47v488q-59 -72 -129 -129q-11 20 -32 43q154 116 244 281zM467 237q88 -95 124 -174l-39 -25q-37 80 -122 176zM805 455v-132h144v-45h-144v-281q0 -48 -34 -59q-18 -6 -58 -8
q-17 -1 -43 -1h-53q-2 10 -7 24l-11 24q45 -2 88 -2q34 0 51 1q21 1 21 20v282h-418v45h418v132h-432v45h290v149h-229v45h229v134h47v-134h236v-45h-236v-149h291v-45h-150z" />
    <glyph glyph-name="uni5F97" unicode="&#x5f97;" 
d="M830 760h-371v-99h371v99zM830 622h-371v-101h371v101zM878 481h-466v319h466v-319zM309 813q-88 -133 -234 -232q-7 16 -27 38q62 41 121 98q61 59 94 112zM319 594q-16 -29 -38 -62q-17 -26 -42 -59v-546h-47v490q-63 -73 -134 -130q-7 18 -30 43q71 53 136 125
q68 76 111 154zM456 179q88 -77 130 -144l-37 -28q-40 68 -128 150zM951 209h-158v-222q0 -43 -33 -54q-18 -5 -55 -7q-17 -1 -42 -1h-53q-1 9 -7 23l-10 22q107 -3 132 0q21 1 21 18v221h-424v44h424v103h-403v43h591v-43h-141v-103h158v-44z" />
    <glyph glyph-name="uni5FAA" unicode="&#x5faa;" 
d="M275 816q-75 -127 -189 -226q-12 20 -30 36q51 43 98 98q49 58 76 108zM295 614q-29 -57 -75 -124v-563h-46v501q-47 -61 -103 -114q-2 2 -6 8l-7 11l-17 22q128 112 211 274zM642 606q2 29 4 67l3 63q-123 -15 -252 -26v-104h245zM842 396h-330v-99h330v99zM842 20v103
h-330v-103h330zM512 162h330v96h-330v-96zM685 563q-7 -79 -12 -124h215v-508h-46v48h-330v-52h-45v512h161q7 59 11 124h-242v-143q0 -69 -2 -125q-3 -70 -10 -129q-7 -68 -20 -127q-14 -64 -34 -117q-16 15 -39 25q19 51 32 113q11 55 17 121q6 56 8 122q2 51 2 117v327
l134 12q72 8 134 16q69 9 123 19q59 10 99 21l38 -37q-76 -18 -182 -35q-3 -71 -9 -137h252v-43h-255z" />
    <glyph glyph-name="uni5FAE" unicode="&#x5fae;" 
d="M609 523h-303v230h39v-188h97v268h40v-268h88v188h39v-230zM613 393h-332v43h332v-43zM252 816q-74 -124 -188 -223q-4 7 -14 19q-7 10 -15 18q114 94 172 203zM275 624q-14 -29 -35 -64q-14 -26 -38 -64v-567h-45v501q-23 -32 -52 -66q-24 -28 -52 -57q-16 24 -32 40
q126 118 210 292zM658 179q6 -19 16 -36q-84 -61 -109 -81q-25 -19 -36 -33q-5 18 -21 44l9 6q5 5 9 11q9 16 9 42v140h-161v-76q0 -34 -4 -65q-4 -37 -13 -70q-23 -80 -74 -134q-12 19 -32 33q45 49 65 119q8 28 11 61q3 27 3 57v117h246v-191zM725 578q-2 -10 -5 -23
l-6 -24q12 -89 29 -165q18 -83 43 -151q32 73 55 167q20 85 33 196h-149zM918 578q-16 -131 -42 -229q-28 -107 -69 -188q61 -139 150 -194q-18 -15 -33 -37q-85 59 -142 184q-72 -115 -181 -189q-8 19 -30 36q120 76 190 204q-45 116 -71 281q-20 -54 -40 -92
q-13 17 -37 33q41 76 68 199q12 54 21 120q9 57 16 126l46 -6l-13 -104q-8 -55 -17 -100h219v-44h-35z" />
    <glyph glyph-name="uni5FC3" unicode="&#x5fc3;" 
d="M383 786q74 -53 148 -116q78 -67 119 -113l-34 -34q-102 114 -265 233zM818 497q104 -208 139 -379l-47 -16q-33 170 -135 379zM195 464q-7 -45 -17 -91q-10 -53 -22 -101q-13 -55 -27 -100q-16 -51 -32 -88l-46 21q33 69 61 181q23 94 37 188zM345 558v-512
q0 -34 15 -45q14 -11 60 -11h222q50 0 65 42q14 38 20 178q22 -15 46 -22q-7 -148 -29 -193q-26 -51 -102 -51h-223q-72 0 -97 21q-26 21 -26 82v511h49z" />
    <glyph glyph-name="uni5FC5" unicode="&#x5fc5;" 
d="M576 596q-48 42 -120 97q-78 60 -140 101l32 34q64 -43 142 -101q72 -54 118 -92zM204 500q-9 -44 -20 -85q-12 -49 -27 -91q-34 -103 -74 -163l-44 21q42 59 76 158q29 82 45 172zM658 -20q46 0 60 39q14 37 19 166q23 -16 48 -23q-8 -138 -29 -181q-25 -48 -97 -48
h-219q-70 0 -95 21q-25 22 -25 84v100q-111 -80 -250 -145q-13 21 -31 37q148 66 281 165v385h49v-347q139 111 252 252q109 136 185 288l47 -21q-89 -167 -207 -311q-125 -151 -277 -267v-138q0 -34 14 -45t58 -11h217zM793 497q125 -175 171 -329l-45 -21q-20 68 -68 162
q-47 92 -100 171z" />
    <glyph glyph-name="uni5FEB" unicode="&#x5feb;" 
d="M37 390q20 45 34 121q13 65 19 133l39 -6q-4 -66 -17 -134q-15 -79 -35 -128zM183 833h47v-905h-47v905zM325 478q-22 77 -75 180l36 17q24 -46 45 -93q22 -52 31 -84zM639 513q0 -41 -1 -72q-2 -40 -6 -75h186v257h-179v-110zM661 320q42 -127 118 -217q81 -97 188 -136
q-22 -17 -35 -43q-109 45 -190 146q-77 94 -121 227q-11 -54 -31 -101q-21 -53 -53 -98q-74 -104 -205 -175q-15 23 -34 37q68 35 120 78q48 41 82 89q31 44 51 95q17 46 27 98h-254v46h261q3 35 5 75q1 31 1 71v111h-208v45h208v165h48v-165h226v-302h100v-46h-304z" />
    <glyph glyph-name="uni5FF5" unicode="&#x5ff5;" 
d="M53 -5q32 43 62 117q24 59 42 125l42 -15l-19 -62l-24 -66q-30 -77 -61 -121zM179 482h571l8 2l32 -21q-33 -57 -88 -122q-51 -59 -102 -104q-15 12 -37 24q84 69 156 177h-540v44zM556 527q-49 54 -140 102l28 29q94 -48 141 -98zM410 338q121 -99 171 -190l-39 -28
q-53 94 -169 194zM661 -4q40 0 52 21q12 20 16 97q8 -6 22 -11q5 -3 12 -5l11 -3q-6 -89 -26 -116q-21 -28 -85 -28h-256q-77 0 -103 15q-26 16 -26 65v213h48v-213q0 -22 14 -28q15 -7 65 -7h256zM798 254q46 -59 87 -126q43 -70 61 -118l-46 -21q-40 116 -144 248z
M519 815q73 -80 198 -155q121 -72 237 -110q-17 -16 -34 -43q-111 42 -228 115q-122 77 -202 159q-77 -87 -191 -162q-103 -69 -224 -121l-23 31l-9 9q136 52 250 130q124 84 196 181l43 -17z" />
    <glyph glyph-name="uni6001" unicode="&#x6001;" 
d="M64 -7q33 43 63 116q25 60 42 126l43 -15q-9 -32 -19 -63q-12 -35 -24 -66q-30 -76 -61 -121zM657 -5q41 0 53 20q11 20 16 98q16 -13 45 -19q-6 -89 -27 -116q-21 -28 -85 -28h-256q-77 0 -102 15q-26 16 -26 64v210h47v-210q0 -21 15 -27q15 -7 66 -7h254zM423 447
q107 -61 162 -125l-40 -29q-53 61 -159 127zM450 293q48 -40 95 -87q51 -50 77 -85l-39 -26q-58 77 -170 175zM797 253q41 -64 76 -136q36 -75 50 -126l-47 -18q-32 123 -123 266zM551 640q103 -253 393 -322q-19 -17 -32 -45q-301 85 -411 367h-7q-19 -65 -49 -116
q-32 -58 -79 -103q-103 -99 -286 -148q-13 27 -27 42q172 42 270 131q43 40 74 91q28 46 46 103h-380v45h393q8 33 14 73q5 32 10 75h50q-9 -80 -25 -148h436v-45h-390z" />
    <glyph glyph-name="uni6027" unicode="&#x6027;" 
d="M36 391q20 45 35 121q13 64 19 132l39 -5q-5 -68 -17 -134q-15 -79 -35 -128zM187 833h47v-904h-47v904zM333 484q-21 78 -74 174l37 17q56 -102 74 -171zM939 11v-46h-608v46h298v279h-223v46h223v233h-168q-33 -96 -77 -166l-43 22q44 64 79 163q31 90 52 199l47 -9
q-10 -48 -19 -83q-11 -44 -23 -80h152v216h48v-216h241v-46h-241v-233h219v-46h-219v-279h262z" />
    <glyph glyph-name="uni603B" unicode="&#x603b;" 
d="M379 635q-31 79 -108 172l41 20q78 -90 109 -170zM51 7q31 36 60 96q25 55 41 115l45 -9q-17 -63 -42 -119q-29 -65 -61 -105zM756 580h-509v-206h509v206zM807 328h-610v298h379q33 46 66 101q36 59 55 103l48 -20q-55 -101 -115 -184h177v-298zM442 307
q124 -84 188 -166l-35 -32q-67 88 -187 171zM658 -18q38 0 49 19t15 90q23 -14 45 -18q-6 -83 -26 -108q-20 -26 -80 -26h-243q-77 0 -102 15t-25 63v218h49v-218q0 -22 14 -28q15 -7 64 -7h240zM803 235q46 -52 85 -110q42 -61 58 -104l-38 -26q-40 105 -141 218z" />
    <glyph glyph-name="uni60AC" unicode="&#x60ac;" 
d="M46 -10q42 33 82 89q33 45 60 99l41 -16l-29 -51l-33 -52q-40 -58 -79 -91zM631 -7q34 0 43 17q10 17 13 83q8 -5 21 -10q6 -3 12 -5l11 -3q-5 -77 -23 -101t-73 -24h-214q-68 0 -90 13q-23 14 -23 58v157h47v-157q0 -18 12 -23t55 -5h209zM576 77q-53 59 -158 112l32 28
q104 -50 161 -109zM765 182q119 -97 177 -189l-40 -25q-61 95 -175 192zM725 301l-48 37l-48 33l35 22h-247q-86 -71 -171 -121zM265 435h485v84h-485v-84zM265 747v-80h485v80h-485zM265 557h485v72h-485v-72zM950 435v-42h-280q139 -92 219 -180l-39 -28q-27 31 -79 78
l-506 -33q-60 -5 -85 -9q-12 -1 -19 -3l-13 -4q-5 26 -14 49q26 2 63 24l24 15q18 11 36 24q50 34 89 67h-282v42h154v351h579v-351h153z" />
    <glyph glyph-name="uni60C5" unicode="&#x60c5;" 
d="M36 390q16 48 30 123q12 69 17 131l39 -6q-3 -63 -15 -132q-13 -78 -31 -129zM157 832h45v-904h-45v904zM262 681q39 -81 54 -140l-38 -20q-17 69 -52 146zM820 128v95h-397v-95h397zM423 354v-91h397v91h-397zM866 -8q0 -40 -29 -51q-26 -9 -138 -7q-3 19 -16 42
q90 -3 118 -1q19 1 19 18v95h-397v-159h-46v466h489v-403zM951 505v-41h-649v41h297v86h-245v39h245v78h-267v40h267v84h48v-84h276v-40h-276v-78h252v-39h-252v-86h304z" />
    <glyph glyph-name="uni60EF" unicode="&#x60ef;" 
d="M49 390q20 45 35 120q13 66 18 133l38 -6q-3 -68 -15 -134q-14 -79 -36 -128zM183 833h46v-905h-46v905zM308 467q-16 90 -58 191l36 14q44 -100 61 -186zM655 201q0 -40 -10 -71q-13 -40 -44 -72q-36 -39 -98 -70q-70 -35 -175 -61q-13 24 -29 37q100 23 167 54
q59 27 93 61q29 29 40 63q9 26 9 60v92h47v-93zM819 98v275h-380v-276h-45v316h471v-315h-46zM678 89q71 -26 144 -60q78 -36 121 -64l-27 -38q-104 68 -264 128zM816 522l8 95h-161q-6 -53 -14 -95h167zM452 522h154l8 45l7 50h-157zM483 751l-13 -96h156l10 96h-153z
M835 751h-156l-11 -96h159zM953 658v-44h-85l-12 -133h-454l17 133h-91v44h98l18 134h439l-12 -134h82z" />
    <glyph glyph-name="uni60F3" unicode="&#x60f3;" 
d="M848 736h-288v-113h288v113zM848 582h-288v-115h288v115zM848 426h-288v-116h288v116zM894 268h-379v511h379v-511zM454 265q85 -80 140 -147l-35 -27q-58 71 -139 152zM57 -1q29 35 58 98q22 48 41 106l40 -17q-19 -59 -41 -109q-29 -63 -58 -100zM254 259v307
q-78 -160 -182 -243q-16 22 -33 34q125 87 204 279h-182v44h193v150h46v-150h169v-44h-169v-68l39 -27l132 -100l-28 -40q-19 19 -64 57l-79 65v-264h-46zM635 -6q37 0 48 20q10 20 14 97q14 -13 45 -19q-6 -89 -25 -115q-20 -28 -79 -28h-224q-71 0 -94 14q-24 15 -24 60
v173h47v-173q0 -18 13 -23q13 -6 58 -6h221zM821 224q70 -105 118 -201l-45 -20q-17 37 -51 97q-32 57 -64 108z" />
    <glyph glyph-name="uni610F" unicode="&#x610f;" 
d="M74 -23q35 30 69 83q28 43 50 92l39 -17q-25 -54 -49 -95q-33 -54 -67 -86zM762 450h-520v-84h520v84zM762 328h-520v-84h520v84zM810 205h-614v283h614v-283zM446 203q103 -58 156 -116l-30 -30q-23 26 -69 61q-42 32 -87 59zM618 -22q34 0 43 19q10 18 13 93
q19 -13 44 -18q-5 -85 -23 -110q-19 -27 -73 -27h-206q-66 0 -88 13q-22 14 -22 58v143h46v-144q0 -27 66 -27h200zM786 164q41 -40 78 -86q40 -49 59 -84l-40 -22q-44 83 -136 173zM930 588v-42h-854v42h248q-13 48 -47 104l44 12q37 -56 51 -109l-23 -7h272q34 57 60 118
h-561v42h381q-25 49 -47 78l45 13q33 -40 57 -91h324v-42h-195l44 -12l-28 -54q-17 -33 -28 -52h257z" />
    <glyph glyph-name="uni611F" unicode="&#x611f;" 
d="M826 730q-54 45 -139 76l29 28q39 -14 76 -33q41 -21 62 -40zM183 578q0 -46 -4 -90q-4 -52 -14 -99q-11 -54 -28 -99q-20 -52 -48 -92q-17 21 -35 31q26 37 43 85q16 41 26 91q8 42 11 91q3 38 3 82v148h445q-7 56 -8 107h47q1 -51 8 -107h315v-42h-310q24 -157 76 -268
q75 93 118 206l44 -11q-52 -135 -139 -239q66 -116 134 -116q33 1 39 130q17 -15 40 -21q-6 -88 -23 -121q-18 -33 -58 -33q-89 0 -164 125q-59 -62 -141 -116q-12 16 -36 33q89 54 153 125q-64 130 -89 306h-405v-106zM455 225q92 -85 138 -155l-42 -23q-19 31 -58 77
q-37 44 -76 82zM55 -23q28 32 60 87q25 42 47 90l41 -18q-2 -5 -5 -10q-3 -4 -6 -11l-37 -70q-32 -56 -56 -87zM548 566h-316v40h316v-40zM483 457h-191v-124h191v124zM525 294h-275v202h275v-202zM647 -25q43 0 55 21t15 101q22 -14 46 -17q-5 -91 -26 -118
q-21 -28 -87 -28h-253q-77 0 -102 14q-26 14 -26 59v179h48v-179q0 -19 14 -25q16 -7 65 -7h251zM812 176q79 -99 113 -183l-44 -18q-34 86 -111 185z" />
    <glyph glyph-name="uni613F" unicode="&#x613f;" 
d="M176 506q0 -34 -1 -65q0 -37 -2 -71q-4 -82 -13 -152q-10 -84 -28 -154q-20 -79 -49 -140q-15 16 -38 27q28 59 46 134q16 66 26 146q8 66 11 144l2 68v344h780v-42h-734v-239zM801 627h-482v-73h482v73zM801 518h-482v-74h482v74zM848 408h-272v-135q0 -35 -26 -44
q-22 -7 -119 -7q-2 15 -16 38q81 -2 100 0q15 0 15 13v135h-256v256h228l12 38q7 21 10 35l52 -11l-27 -62h299v-256zM522 197q75 -69 116 -122l-34 -24q-43 58 -115 125zM419 367q-92 -81 -181 -135q-13 15 -37 31q102 54 176 119zM868 229q-73 55 -195 125l29 27
q113 -60 195 -120zM175 -16q23 33 46 87q20 48 33 96l38 -15l-16 -46q-9 -29 -18 -50q-23 -59 -45 -91zM673 -16q34 0 43 18q10 18 13 90q19 -13 42 -18q-5 -81 -22 -106q-19 -26 -73 -26h-209q-67 0 -88 13q-22 14 -22 56v155h44v-154q0 -28 65 -28h207zM801 180
q82 -100 129 -174l-40 -21q-45 76 -127 179z" />
    <glyph glyph-name="uni620F" unicode="&#x620f;" 
d="M855 658q-46 65 -143 135l33 28q100 -69 145 -131zM425 705q-30 -224 -112 -396q78 -117 121 -195l-41 -34q-44 81 -105 177q-91 -166 -218 -251q-3 5 -7 9l-9 11q-11 13 -19 19q131 84 221 260q-86 137 -181 266l37 26l85 -117l85 -123q62 142 90 312h-312v44h326l9 3z
M886 449q-61 -162 -171 -297q59 -166 143 -172q38 -4 55 166q17 -15 41 -24q-14 -110 -37 -157q-22 -44 -57 -42q-111 7 -182 185q-95 -104 -195 -161q-16 19 -38 36q110 57 215 175q-22 70 -39 162q-17 86 -29 191l-155 -17l-6 45l157 17q-6 61 -11 132q-5 61 -9 138h48
q6 -143 18 -265l299 34l5 -45l-298 -34q20 -179 58 -312q98 130 148 268z" />
    <glyph glyph-name="uni6210" unicode="&#x6210;" 
d="M863 668q-72 64 -189 121l28 31q52 -26 104 -58q55 -34 85 -60zM880 499q-63 -193 -180 -339q66 -177 158 -177q42 0 52 189q20 -18 42 -25q-8 -123 -27 -167q-21 -46 -70 -46q-115 0 -190 184q-103 -112 -231 -185q-15 22 -35 38q146 77 247 198q-56 170 -76 435h-380
v-145h261l-1 -24q-4 -179 -10 -248q-6 -74 -21 -92q-18 -21 -54 -22q-39 -3 -122 2q-4 29 -15 45q33 -3 72 -4q7 -1 15 -1h31q25 0 32 10q11 12 16 75q5 59 9 214h-213v-37q0 -58 -4 -110q-4 -64 -15 -120q-12 -64 -32 -118q-23 -60 -55 -106l-18 17q-13 10 -21 14
q31 44 51 100q19 50 29 110q9 51 13 110q3 46 3 104v273h426q-4 89 -6 180h49q0 -83 5 -180h329v-47h-326q19 -239 65 -390q93 128 149 297z" />
    <glyph glyph-name="uni6211" unicode="&#x6211;" 
d="M868 606q-54 79 -165 175l38 25q47 -41 93 -86q49 -50 74 -84zM885 413q-65 -125 -181 -246q67 -195 160 -195q42 0 50 187q23 -18 42 -24q-8 -121 -27 -166q-21 -46 -69 -46q-119 0 -194 207q-107 -101 -227 -163l-16 20q-10 11 -19 17q135 69 245 176q-38 132 -58 305
h-254v-188l192 44l4 -42l-196 -48v-254q0 -51 -38 -63q-35 -11 -160 -9q-5 20 -19 49q45 -2 92 -2q36 0 53 1q24 1 24 24v241l-83 -20q-2 0 -4 -1l-137 -33l-17 48l110 24q34 7 64 14l67 16v199h-228v46h228v187q-48 -10 -101 -19q-47 -9 -99 -17q-5 19 -17 40
q119 20 217 43q117 27 181 52l36 -39q-33 -13 -78 -26q-39 -11 -91 -23v-198h250q-14 133 -16 294h50q0 -154 14 -294h306v-46h-301q16 -146 49 -266q94 101 152 212z" />
    <glyph glyph-name="uni6216" unicode="&#x6216;" 
d="M870 682q-64 59 -183 114l27 31q117 -51 184 -110zM513 98l-59 -13l-173 -37l-201 -45l-10 49l316 66l123 27zM423 471h-237v-209h237v209zM470 514v-296h-330v296h330zM883 521q-69 -205 -184 -351q67 -194 162 -194q41 0 51 190q18 -18 43 -25q-8 -124 -28 -169
q-20 -46 -70 -46q-118 0 -195 201q-108 -120 -245 -196q-12 17 -35 38q153 79 263 210q-27 85 -45 200q-18 108 -27 239h-496v47h495q-5 81 -6 166h51q0 -95 4 -166h308v-47h-306q16 -241 59 -392q96 129 154 307z" />
    <glyph glyph-name="uni6218" unicode="&#x6218;" 
d="M872 620q-33 68 -109 151l35 19q74 -79 110 -146zM442 333h-309v-287h309v287zM295 378h193v-428h-46v51h-309v-55h-44v432h160v452h46v-203h218v-45h-218v-204zM930 448q-56 -163 -163 -299q46 -165 111 -169q34 0 48 163q7 -6 19 -13q4 -3 10 -6l8 -5
q-13 -106 -34 -152q-20 -42 -50 -41q-90 3 -148 181q-90 -102 -190 -156q-14 19 -35 35q113 56 211 172q-17 64 -31 150q-12 75 -22 176l-150 -23l-7 44l153 22q-12 141 -18 302h46q4 -150 17 -295l237 35l7 -42l-240 -36q18 -176 44 -287q92 120 140 265z" />
    <glyph glyph-name="uni6234" unicode="&#x6234;" 
d="M835 657q-47 65 -138 124l35 28q92 -59 139 -122zM265 131h138v68h-138v-68zM265 236h138v60h-138v-60zM151 330h163v65h-163v-65zM151 429h163v64h-163v-64zM517 493h-161v-64h161v64zM517 395h-161v-65h161v65zM223 131v68h-135v37h135v60h-115v231h453v-231h-115v-60
h132v-37h-132v-68h157v-38h-553v38h173zM270 61q-60 -80 -152 -142q-3 2 -8 7l-9 9q-6 6 -10 9q-5 5 -8 7q90 55 144 123zM399 71q69 -55 108 -109l-42 -20q-35 50 -106 110zM869 494q-18 -114 -43 -199q-29 -98 -72 -171q51 -148 117 -148q32 1 39 125q18 -18 40 -25
q-8 -84 -25 -115q-18 -32 -59 -32q-83 0 -143 146q-66 -93 -160 -147q-10 16 -35 35q106 59 175 169q-27 84 -46 202q-18 112 -28 251h-582v42h267v75h-200v41h200v90h46v-90h200v-41h-200v-75h267q-3 47 -5 101l-2 105h49q0 -52 1 -106l4 -100h249v-42h-247
q15 -238 58 -396q31 64 54 147q20 73 34 168z" />
    <glyph glyph-name="uni6237" unicode="&#x6237;" 
d="M783 404v226h-550v-166q0 -39 -1 -60h551zM832 676v-391h-49v73h-553q-4 -59 -13 -112q-10 -61 -26 -114q-18 -59 -44 -110q-29 -55 -67 -100q-19 19 -40 28q46 54 77 122q28 61 44 134q14 62 19 134q5 56 5 124v212h326q-7 28 -24 72q-15 37 -34 77l45 13q20 -39 36 -78
q18 -44 26 -72l-38 -12h310z" />
    <glyph glyph-name="uni6240" unicode="&#x6240;" 
d="M154 538v-183h230v183h-230zM153 310q-2 -51 -6 -97q-5 -53 -13 -100q-19 -111 -57 -186q-22 22 -40 30q23 45 38 102q13 51 21 112q6 51 9 113q2 45 2 105v340q48 6 93 14q51 8 95 18q103 22 154 49l32 -39q-53 -27 -149 -48q-41 -10 -89 -17q-43 -7 -89 -13v-110h276
v-273h-277zM948 447h-131v-519h-47v519h-186v-65q0 -62 -4 -114q-6 -65 -18 -120q-15 -65 -39 -118q-28 -60 -68 -105q-5 7 -17 17q-11 9 -21 15q38 43 64 98q23 50 36 109q11 51 16 112q3 46 3 106v345q50 8 97 17q53 11 99 22q106 27 160 55l36 -40q-59 -27 -158 -52
q-86 -21 -186 -37v-199h364v-46z" />
    <glyph glyph-name="uni6247" unicode="&#x6247;" 
d="M201 689v-149h615v149h-615zM201 495v-10q0 -71 -4 -134q-5 -78 -16 -147q-12 -80 -34 -147q-24 -76 -58 -135q-15 13 -41 24q34 57 56 130q21 63 32 140q10 65 14 141q2 31 2 66q1 29 1 62v249h336q-19 42 -40 83l44 17q30 -52 50 -100h322v-239h-664zM522 -15
q0 -39 -28 -50q-15 -5 -47 -6q-14 -1 -36 -1h-45q-4 21 -15 41q33 -1 69 -1h39q18 1 18 17v146l-133 -56l-120 -50l-20 40l273 107v198h-242v43h287v-428zM304 328q75 -75 112 -133l-36 -23q-45 69 -111 137zM891 -13q0 -40 -29 -52q-23 -7 -135 -7q-6 23 -16 42
q87 -3 116 -1q18 1 18 17v152l-261 -110l-20 40q46 17 128 50q30 11 75 29q8 4 20 8l58 23v192h-272v43h318v-426zM736 176q-17 26 -52 65q-32 36 -67 70l35 20q35 -32 67 -67q36 -39 53 -65z" />
    <glyph glyph-name="uni624B" unicode="&#x624b;" 
d="M946 267h-421v-259q0 -55 -46 -67q-36 -11 -200 -9q-6 23 -21 48q141 -3 188 -1q30 1 30 29v259h-420v47h420v189h-355v46h355v175q-184 -18 -339 -25q-3 20 -13 42q98 5 186 12q103 9 189 19q98 11 172 25q82 15 134 33l38 -39q-120 -37 -318 -61v-181h367v-46h-367
v-189h421v-47z" />
    <glyph glyph-name="uni6253" unicode="&#x6253;" 
d="M422 358l-40 -13l-120 -38v-304q0 -43 -31 -55q-23 -9 -128 -9q-1 8 -6 22q-3 5 -5 12l-5 11q87 -2 108 0q20 0 20 19v290q-27 -9 -41 -13l-113 -35l-17 48l171 49v236h-162v46h162v209h47v-209h153v-46h-153v-223l154 48zM956 697h-189v-688q0 -56 -42 -68
q-22 -6 -69 -8q-21 -1 -52 -1h-65q-7 25 -21 52q53 -2 108 -2q43 0 65 1q26 1 26 26v688h-303v47h542v-47z" />
    <glyph glyph-name="uni6267" unicode="&#x6267;" 
d="M237 299v-308q0 -42 -30 -55q-27 -10 -119 -9q-3 21 -16 46q81 -2 100 0q19 0 19 18v294l-137 -43l-15 47l152 45v233h-138v45h138v220h46v-220h111v-45h-111v-220l118 38l7 -45zM818 609v-20l-2 -131q-1 -76 -1 -129q0 -128 5 -198q11 -156 59 -156q15 0 22 29
q7 31 10 109q7 -6 20 -13l21 -9q-4 -94 -21 -129q-16 -34 -56 -34q-79 0 -98 166q-8 71 -9 199q-1 51 0 127l1 144h-182q-5 -144 -23 -247l98 -62q49 -32 77 -55l-27 -38q-57 46 -158 109q-28 -116 -85 -198q-60 -85 -160 -147q-12 20 -35 39q100 56 158 138q55 78 81 194
l-64 38l-62 35l26 32q24 -12 53 -28l55 -32q16 95 19 222h-166v45h167q1 50 0 108q0 52 -2 116h49q2 -120 0 -224h230z" />
    <glyph glyph-name="uni6269" unicode="&#x6269;" 
d="M682 680q-23 60 -66 127l41 16q44 -66 69 -123zM232 299v-307q0 -42 -30 -55q-26 -10 -119 -9q-3 21 -16 46q81 -2 100 0q19 0 19 19v290l-64 -23q-33 -12 -59 -20l-16 48l64 20q41 13 75 25v245h-125v46h125v208h46v-208h116v-46h-116v-230l111 37l7 -45zM947 632h-472
v-202q0 -65 -5 -122q-5 -71 -18 -133q-15 -72 -40 -132q-28 -68 -69 -120q-18 20 -38 28q39 50 66 114q23 57 37 125q11 57 16 125q4 52 4 116v247h519v-46z" />
    <glyph glyph-name="uni627E" unicode="&#x627e;" 
d="M815 630q-43 69 -138 146l35 24q96 -74 141 -142zM252 306v-307q0 -45 -31 -55q-22 -9 -127 -9q-1 8 -6 22q-3 5 -5 12l-5 11q32 -1 69 -1h39q19 1 19 20v293l-149 -46l-17 47q31 7 77 21l43 12q18 5 46 14v238h-153v46h153v209h47v-209h130v-46h-130v-224l135 42l6 -44z
M874 429q-61 -133 -174 -256q69 -182 166 -189q41 -3 59 168q16 -15 41 -24q-15 -109 -39 -156q-23 -45 -60 -43q-128 9 -206 205q-116 -111 -251 -172q-12 20 -37 39q148 60 270 182q-46 135 -72 331l-171 -18l-5 45l171 18q-16 130 -24 272h48q4 -74 9 -136q6 -70 14 -131
l311 35l6 -46l-312 -34q24 -169 64 -296q102 113 153 230z" />
    <glyph glyph-name="uni6280" unicode="&#x6280;" 
d="M368 342l-64 -20q-29 -9 -64 -21v-308q0 -44 -31 -57q-26 -9 -128 -8q-1 8 -6 22q-3 5 -5 11t-5 11q88 -2 108 0q20 0 20 20v294l-133 -41l-16 47q63 17 149 43v243h-137v46h137v209h47v-209h118v-46h-118v-229l122 37zM479 407q56 -153 166 -263q61 55 106 118
q49 69 78 145h-350zM890 440q-31 -98 -87 -183q-53 -80 -125 -145q118 -102 275 -145q-8 -7 -17 -19q-4 -5 -8 -12q-4 -4 -7 -10q-160 48 -278 156q-67 -53 -145 -93q-74 -38 -155 -63q-3 9 -12 23q-3 6 -7 11q-3 5 -7 10q164 44 291 145q-114 117 -177 292h-36v46h226v168
h-247v46h247v166h48v-166h249v-46h-249v-168h181l10 2z" />
    <glyph glyph-name="uni628A" unicode="&#x628a;" 
d="M362 342l-128 -41v-312q0 -41 -28 -54q-27 -9 -109 -8q-4 22 -16 45q67 -3 89 -1q17 0 17 17v298l-66 -21q-38 -12 -60 -20l-17 47l103 31q22 6 40 12v242h-127v46h127v210h47v-210h111v-46h-111v-227l122 38zM457 731v-349h174v349h-174zM853 731h-176v-349h176v349z
M834 0q47 0 62 31q14 28 21 124q22 -15 47 -20q-9 -107 -31 -140q-26 -39 -101 -39h-284q-81 0 -109 23q-29 23 -29 92v707h492v-510h-49v69h-396v-267q0 -42 17 -56q18 -14 71 -14h289z" />
    <glyph glyph-name="uni62AC" unicode="&#x62ac;" 
d="M357 348l-131 -47v-310q0 -44 -30 -55q-27 -10 -119 -9l-6 22q-5 15 -10 24q81 -2 100 0q18 0 18 18v294l-129 -45l-16 48q68 20 145 47v244h-132v45h132v208h47v-208h125v-45h-125v-229l124 43zM479 279v-262h343v262h-343zM433 324h436v-395h-47v43h-343v-46h-46v398z
M917 387q-19 39 -42 76q-315 -22 -396 -29q-47 -5 -68 -8l-17 -3l-11 -4q-1 8 -6 24l-9 25q19 2 65 66q28 35 76 115q28 45 51 89q28 52 48 97l49 -16q-51 -98 -101 -180q-56 -93 -108 -159l400 25q-61 92 -123 163l38 19q134 -150 195 -278z" />
    <glyph glyph-name="uni62D6" unicode="&#x62d6;" 
d="M478 641q-54 -107 -112 -173q-19 17 -40 29q56 59 103 150q44 87 72 187l46 -11q-23 -76 -49 -137h448v-45h-468zM346 343l-119 -43v-308q0 -42 -30 -55q-27 -10 -119 -9q-1 5 -3 10l-4 12q-5 15 -10 24q82 -2 101 0q18 0 18 19v291l-130 -45l-16 48q65 19 146 47v245
h-139v45h139v208h47v-208h114v-45h-114v-228l113 38zM842 -22q39 0 52 23q11 21 16 97q23 -15 44 -18q-7 -88 -27 -116q-22 -30 -85 -30h-260q-74 0 -100 19t-26 76v263l-90 -36l-16 41l106 42v183h44v-166l148 58v190h44v-172l149 59l14 13l31 -15l-2 -9q0 -56 -1 -102
q-1 -52 -1 -91q-2 -91 -5 -109q-5 -43 -47 -49q-13 -2 -36 -3h-37q-4 28 -13 44q14 -1 37 -1h28q20 0 25 22q3 12 5 86q1 68 1 167l-148 -59v-295h-44v278l-148 -59v-280q0 -30 15 -40q16 -11 65 -11h262z" />
    <glyph glyph-name="uni62DF" unicode="&#x62df;" 
d="M645 419q-32 134 -134 305l40 16q103 -168 136 -301zM341 343l-112 -40v-313q0 -41 -30 -54q-22 -9 -118 -9q-3 20 -16 45q81 -2 100 0q19 0 19 19v297q-74 -27 -135 -47l-15 47l150 49v242h-137v45h137v208h45v-208h103v-45h-103v-227l105 36zM646 281l1 -3l6 -21
q3 -13 6 -20l-208 -153q-25 -19 -38 -30q-10 -9 -17 -18l-1 6q-1 -2 -1 -5q-10 20 -29 37q19 13 32 31q18 25 18 55v633h47v-643zM917 -38q-38 126 -127 303q-33 -107 -85 -186q-55 -84 -138 -146q-12 17 -37 37q82 57 136 139q52 78 83 185q28 97 43 231q7 61 11 134
q4 65 7 146l50 -1q-3 -74 -7 -134l-10 -123q-13 -124 -35 -217q108 -196 155 -343z" />
    <glyph glyph-name="uni62E5" unicode="&#x62e5;" 
d="M228 303v-311q0 -42 -30 -55q-24 -9 -119 -8q-4 20 -16 45q81 -2 100 0q19 0 19 19v294l-133 -46l-15 47l148 49v242h-135v45h135v208h46v-208h122v-45h-122v-226l113 38l8 -46zM874 298v186h-193v-186h193zM635 298v186h-189v-83q0 -49 -3 -103h192zM446 718v-190h189
v190h-189zM874 718h-193v-190h193v190zM921 -4q0 -46 -33 -58q-16 -6 -51 -8q-15 -1 -38 -1h-47l-7 23q-5 15 -10 24q36 -1 75 -1h43q21 1 21 21v257h-193v-311h-46v311h-196q-5 -46 -13 -86q-8 -46 -21 -85q-30 -92 -81 -154q-5 7 -17 17l-19 14q36 45 61 103q21 51 33 113
q11 53 15 116q3 48 3 110v361h521v-766z" />
    <glyph glyph-name="uni62E9" unicode="&#x62e9;" 
d="M507 727q55 -93 153 -167q113 76 170 167h-323zM899 756q-64 -126 -200 -221q117 -76 266 -108q-16 -16 -30 -40q-154 39 -275 122q-63 -40 -136 -72q-67 -30 -140 -50q-3 8 -12 20l-14 19q142 36 265 111q-105 83 -163 190h-67v44h467l10 3zM361 354l-121 -42v-315
q0 -43 -30 -55q-24 -9 -120 -9q-3 20 -16 46q30 -1 64 -1h36q19 1 19 19v298l-134 -45l-16 46l150 49v234h-142v45h142v208h47v-208h124v-45h-124v-218l114 39zM679 147h273v-45h-273v-178h-47v178h-265v45h265v124h-213v44h213v94h47v-94h197v-44h-197v-124z" />
    <glyph glyph-name="uni62F7" unicode="&#x62f7;" 
d="M228 303v-311q0 -42 -30 -55q-26 -10 -119 -9q-1 5 -3 10l-4 12q-5 15 -10 24q82 -2 101 0q18 0 18 19v294l-69 -24l-63 -22l-15 47l147 49v242h-134v45h134v207h47v-207h119v-45h-119v-226l112 37l6 -45zM716 484q-52 -53 -109 -100h288v-42h-308l-38 -136h317l-1 -9
q0 -11 -1 -15q-22 -199 -61 -233q-21 -19 -66 -20q-26 -1 -68 0q-49 2 -97 5q-2 22 -15 44q46 -5 101 -7l65 -1q33 0 44 8q30 26 48 184h-328q12 32 26 80q13 41 26 90q-50 -36 -107 -69q-52 -31 -112 -60q-3 7 -13 20l-17 19q206 93 364 242h-301v45h232v134h-178v43h178
v126h47v-126h172v-43h-172v-134h67q110 117 182 251l42 -16q-66 -123 -165 -235h197v-45h-239z" />
    <glyph glyph-name="uni62FC" unicode="&#x62fc;" 
d="M555 629q-26 74 -93 174l41 18q66 -93 96 -171zM226 624h110v-45h-110v-226l100 35l7 -45l-107 -39v-310q0 -44 -29 -57q-26 -10 -117 -10q-6 26 -17 48q79 -2 98 0q19 0 19 18v294l-63 -22q-1 0 -2 -1q-2 -1 -4 -1q-41 -14 -62 -22l-15 47l146 49v242h-133v45h133v208
h46v-208zM739 341v228h-167v-228h167zM947 295h-160v-364h-48v364h-169q-3 -53 -13 -97q-11 -53 -32 -98q-23 -52 -59 -94q-40 -47 -96 -84q-15 24 -33 35q52 32 90 74q34 38 56 85q19 41 29 90q9 41 12 89h-162v46h164v228h-130v46h323q59 103 96 213l49 -18l-46 -100
q-28 -56 -50 -95h155v-46h-136v-228h160v-46z" />
    <glyph glyph-name="uni62FD" unicode="&#x62fd;" 
d="M335 336q-60 -20 -117 -41v-305q0 -41 -28 -54q-22 -9 -108 -9q-4 24 -16 46q72 -2 89 0q17 0 17 17v290l-115 -40l-15 48q25 7 60 18l70 24v249h-117v45h117v207h46v-207h113v-45h-113v-234l109 38zM623 355q-9 61 -15 133h-187v-133h202zM421 657v-127h184q-3 28 -5 62
l-3 65h-176zM644 657q2 -41 3 -65l4 -62h192v127h-199zM843 355v133h-189q4 -42 8 -69q4 -36 8 -64h173zM884 254q-54 -85 -150 -154q54 -127 138 -127q24 0 35 35q10 35 15 125q19 -17 40 -24q-8 -105 -26 -143q-20 -40 -68 -40q-107 0 -173 147q-70 -45 -157 -81
q-79 -34 -172 -61q-8 17 -29 43q97 24 180 58q90 37 161 84q-28 78 -49 196h-208v-59h-46v448h221q-3 63 -3 129h49v-65q0 -36 1 -64h246v-389h-212q14 -94 41 -169q78 62 120 129z" />
    <glyph glyph-name="uni6301" unicode="&#x6301;" 
d="M230 624h118v-45h-118v-225l110 37l7 -46l-117 -42v-312q0 -42 -30 -55q-27 -9 -119 -8q-4 23 -15 45q81 -2 100 0q18 0 18 18v297q-66 -24 -136 -47l-15 47q27 8 69 22l82 28v241h-138v45h138v208h46v-208zM497 237q80 -94 115 -174l-38 -26q-33 81 -113 177zM815 455
v-132h132v-45h-132v-281q0 -50 -32 -60q-18 -6 -55 -8q-16 -1 -41 -1h-51q-3 21 -16 49q41 -2 82 -2q32 0 49 1q19 1 19 20v282h-395v45h395v132h-408v45h274v149h-218v45h218v134h47v-134h219v-45h-219v-149h270v-45h-138z" />
    <glyph glyph-name="uni6309" unicode="&#x6309;" 
d="M429 513h-46v184h263l-21 64l-23 63l46 11l28 -70q14 -40 21 -68h241v-182h-46v138h-463v-140zM237 276v-286q0 -43 -30 -55q-26 -9 -122 -8q-5 18 -18 44q84 -2 104 0q19 0 19 19v270l-139 -47l-14 48l153 48v270h-143v45h143v208h47v-208h116v-45h-116v-256l131 43
l7 -43zM566 392q-17 -40 -39 -84q-17 -35 -38 -74l90 -47l92 -51q84 98 112 256h-217zM835 392q-32 -174 -122 -280q150 -87 231 -151l-35 -37q-38 31 -100 73l-128 81q-101 -98 -293 -151q-7 18 -26 42q177 42 277 133q-114 66 -214 115q44 72 89 175h-155v45h176
q20 48 35 88q18 45 29 83l49 -7q-23 -72 -62 -164h368v-45h-119z" />
    <glyph glyph-name="uni6311" unicode="&#x6311;" 
d="M935 698q-32 -59 -67 -116q-39 -64 -69 -104l-35 21q75 101 125 221zM449 474q-22 103 -101 218l37 19q78 -105 106 -216zM229 308v-318q0 -42 -29 -55q-24 -9 -119 -9q-4 22 -16 45q81 -2 100 0q19 0 19 19v302l-135 -51l-15 47l150 54v237h-137v45h137v208h45v-208h108
v-45h-108v-221l100 38l8 -46zM519 828h45v-442q0 -83 -8 -141q-9 -70 -33 -123q-54 -121 -201 -194q-13 20 -32 36q121 59 173 146q25 40 38 91q11 44 15 102l-184 -133l-29 41l99 64l117 79v474zM882 -16q19 0 26 31q6 29 8 121q19 -16 44 -23q-5 -102 -18 -135
q-16 -38 -59 -38h-116q-46 0 -61 18q-17 18 -17 72v798h46v-447l15 15q57 -47 113 -99q60 -55 91 -90l-33 -36q-77 89 -186 180v-322q0 -45 36 -45h111z" />
    <glyph glyph-name="uni6362" unicode="&#x6362;" 
d="M228 298v-307q0 -44 -27 -55q-22 -10 -106 -10q-6 26 -17 48q68 -2 85 0q16 0 16 16v291l-119 -40l-15 47l62 19l72 24v248h-123v45h123v208h49v-208h100v-45h-100v-231l104 35l8 -46zM602 283q11 38 15 82q3 31 3 74v102h-163v-258h145zM526 700q-21 -33 -41 -59
q-24 -32 -48 -58h219q54 48 99 117h-229zM815 541h-148v-102q0 -43 -3 -75q-4 -43 -14 -81h165v258zM667 240q95 -198 291 -273q-22 -20 -32 -39q-198 86 -296 292q-35 -83 -106 -152q-82 -80 -214 -143q-16 23 -33 35q131 60 211 136q68 65 101 144h-257v43h79v273l-34 -32
q-13 17 -35 33q69 57 125 139q48 69 77 141l50 -9q-18 -45 -42 -84h236l8 2l33 -22q-21 -34 -52 -73q-29 -35 -62 -68h148v-300h76v-43h-272z" />
    <glyph glyph-name="uni636E" unicode="&#x636e;" 
d="M229 303v-311q0 -41 -29 -54q-27 -10 -119 -9q-3 20 -16 45q81 -2 100 0q19 0 19 19v294l-132 -46l-16 47l68 22q44 14 80 27v242h-137v45h137v208h45v-208h120v-45h-120v-227l114 39l7 -46zM673 424v124h-223v-91q0 -18 -1 -33h224zM450 743v-151h419v151h-419zM873 198
h-346v-183h346v183zM719 381v-140h199v-311h-45v43h-346v-48h-44v316h190v140h-225q-3 -62 -10 -116q-8 -64 -20 -119q-15 -62 -36 -114q-23 -58 -54 -104q-13 15 -40 27q37 55 62 127q23 62 35 138q11 64 16 139q2 32 2 67q1 28 1 62v299h511v-239h-196v-124h234v-43h-234z
" />
    <glyph glyph-name="uni638C" unicode="&#x638c;" 
d="M233 822q56 -57 83 -107l-44 -22q-28 53 -81 111zM821 803q-51 -68 -99 -110l-36 18q57 59 89 112zM135 507h-46v186h386v140h47v-140h394v-186h-47v143h-734v-143zM276 439h460v98h-460v-98zM230 402v173h553v-173h-553zM941 68h-419v-81q0 -43 -37 -54q-20 -5 -64 -6
q-19 -1 -49 -1h-63q-5 19 -17 40q52 -1 102 -1q40 0 57 1q24 1 24 21v81h-414v40h414v82h-357v39h357v75q-75 -4 -159 -7q-75 -2 -154 -3q0 14 -10 36q175 2 346 13q88 6 160 13q76 7 128 16l33 -33q-56 -10 -136 -18q-69 -7 -161 -14v-78h368v-39h-368v-82h419v-40z" />
    <glyph glyph-name="uni63A2" unicode="&#x63a2;" 
d="M409 607h-43v165h550v-163h-44v120h-463v-122zM715 655q123 -102 193 -201l-37 -29q-68 100 -190 205zM593 637q-36 -60 -90 -119q-52 -56 -109 -98q-17 21 -37 35q125 80 192 196zM335 356l-28 -11l-81 -33v-320q0 -40 -27 -51q-23 -10 -110 -10q-3 20 -16 44h90
q17 1 17 17v301l-117 -47l-17 47l62 23q37 13 72 28v235h-125v45h125v209h46v-209h106v-45h-106v-216l99 39zM700 300q97 -187 260 -272q-8 -6 -18 -18l-16 -20q-166 97 -264 296v-354h-47v350q-98 -198 -280 -292q-14 24 -33 38q180 79 276 272h-226v45h263v114h47v-114
h270v-45h-232z" />
    <glyph glyph-name="uni63A5" unicode="&#x63a5;" 
d="M918 675h-533v43h242q-25 52 -56 99l43 9q40 -55 64 -108h240v-43zM541 498q-23 61 -81 137l36 16q56 -68 83 -132zM946 440h-600v44h338q57 77 97 167l48 -12l-22 -40l-24 -40q-27 -46 -48 -75h211v-44zM219 299v-309q0 -41 -28 -54q-27 -9 -109 -8q-3 20 -15 45
q71 -2 90 0q16 0 16 17v294l-124 -43l-15 47l64 20q29 9 75 25v246h-126v45h126v208h46v-208h112v-45h-112v-231l98 35l8 -46zM549 274l-36 -58q-14 -22 -36 -53q44 -13 94 -31q45 -16 96 -36q77 66 112 178h-230zM829 274q-34 -125 -114 -199q131 -57 213 -114l-36 -37
q-77 56 -217 119q-117 -83 -331 -114q-7 23 -23 43q196 24 304 92q-106 45 -216 77q46 57 90 133h-164v44h191q34 61 57 112l44 -10q-18 -41 -52 -102h382v-44h-128z" />
    <glyph glyph-name="uni63A7" unicode="&#x63a7;" 
d="M417 540h-46v167h278l-23 56q-11 26 -25 56l44 12q17 -32 31 -64q17 -36 25 -60h249v-154h-46v110h-487v-123zM739 594l102 -98q55 -55 86 -90l-34 -30q-78 92 -187 192zM615 578q-83 -122 -204 -214q-10 16 -33 36q117 81 194 194zM226 294v-300q0 -41 -30 -54
q-26 -10 -119 -9q-3 20 -16 45q82 -2 101 0q18 0 18 19v282l-129 -47l-13 49q33 10 65 21q39 13 77 27v256h-131v45h131v205h46v-205h115v-45h-115v-240l105 37l8 -45zM958 5v-44h-622v44h291v280h-207v44h468v-44h-212v-280h282z" />
    <glyph glyph-name="uni63A8" unicode="&#x63a8;" 
d="M717 656q-24 71 -76 152l42 16q56 -85 77 -149zM354 343q-21 -7 -31 -11q-18 -5 -32 -10l-61 -22v-308q0 -43 -30 -56q-24 -9 -119 -9q-3 20 -16 46q81 -2 100 0q18 0 18 19v292q-16 -5 -35 -12l-94 -33l-15 48q24 7 66 21l78 26v246h-137v45h137v207h47v-207h121v-45
h-121v-231l117 39zM476 46h197v160h-197v-160zM673 605h-197v-154h197v154zM673 406h-197v-155h197v155zM946 1h-470v-74h-46v617q-41 -74 -93 -137l-38 33q62 68 116 173q51 99 87 213l46 -10q-29 -92 -64 -166h444v-45h-209v-154h190v-45h-190v-155h190v-45h-190v-160h227
v-45z" />
    <glyph glyph-name="uni63D0" unicode="&#x63d0;" 
d="M825 758h-370v-96h370v96zM825 623h-370v-98h370v98zM871 484h-460v314h460v-314zM225 302v-310q0 -41 -30 -54q-26 -10 -118 -9q-6 26 -16 45q81 -2 100 0q19 0 19 19v293l-68 -24q-36 -13 -62 -21l-16 47l146 48v243h-133v45h133v207h45v-207h117v-45h-117v-228l108 36
l7 -45zM962 -13q-14 -22 -16 -43h-175q-62 0 -107 7q-51 8 -90 27q-84 40 -128 147q-42 -125 -129 -200q-15 17 -37 31q68 53 107 140q36 82 49 201l46 -5q-9 -69 -20 -110q23 -74 64 -117q37 -40 92 -58v347h-251v43h562v-43h-267v-135h220v-42h-220v-181q44 -9 110 -9h190
z" />
    <glyph glyph-name="uni63D2" unicode="&#x63d2;" 
d="M337 333l-115 -37v-307q0 -40 -25 -52q-21 -9 -97 -9l-6 22q-5 14 -10 23q22 -1 48 0h28q15 0 15 15v292l-116 -37l-13 47l59 17q37 11 70 22v250h-114v45h114v209h47v-209h103v-45h-103v-235l110 34zM863 26v166h-137v43h137v148h-140v43h185v-501h-45v56h-421v-54h-44
v478q44 13 82 26q44 16 69 29l29 -39q-57 -25 -136 -45v-142h141v-43h-141v-165h192v525h-265v45h265v141q-50 -6 -109 -11l-105 -6q-4 23 -14 40q60 3 121 8q65 6 124 14q64 8 114 18q55 11 91 23l28 -38q-37 -13 -92 -25q-49 -10 -113 -19v-145h265v-45h-265v-525h184z
" />
    <glyph glyph-name="uni640F" unicode="&#x640f;" 
d="M670 568v-78h187v78h-187zM857 371v82h-187v-82h187zM625 371v82h-177v-82h177zM448 568v-78h177v78h-177zM625 680h-263v42h263v111h45v-111h212q-25 14 -72 38l-83 41l23 30l84 -39l72 -36l-21 -34h57v-42h-272v-73h231v-337h-44v64h-187v-50h-45v50h-177v-64h-44v337
h221v73zM347 362l-59 -20l-59 -21v-331q0 -42 -29 -55q-24 -9 -119 -9q-4 22 -16 45q81 -2 100 0q19 0 19 19v316l-136 -48l-14 49q71 21 150 49v223h-137v45h137v208h45v-208h119v-45h-119v-209l110 39zM459 159l72 -73q39 -42 59 -67l-36 -29q-20 27 -58 70l-71 75z
M953 176h-156v-192q0 -41 -31 -51q-17 -5 -53 -7q-16 -1 -40 -1h-49q-5 23 -16 43q96 -3 125 -1q19 1 19 18v191h-431v43h431v71h45v-71h156v-43z" />
    <glyph glyph-name="uni6446" unicode="&#x6446;" 
d="M882 748h-127v-185h127v185zM714 748h-125v-185h125v185zM548 748h-121v-185h121v185zM929 522h-548v267h548v-267zM350 351l-61 -21l-60 -21v-314q0 -43 -30 -55q-21 -9 -120 -9q-4 22 -16 45q82 -2 101 0q19 1 19 19v298l-130 -46l-16 48l146 47v237h-130v46h130v207
h46v-207h111v-46h-111v-221l114 39zM609 183q-35 -53 -68 -96q-37 -48 -72 -85l368 32l-33 51q-19 29 -33 48l38 20l71 -106q38 -59 58 -95l-40 -24q-13 26 -37 66l-378 -36q-45 -5 -65 -9l-16 -3l-10 -4q-5 23 -16 46q23 4 57 41q19 19 50 58q40 49 70 96h-208v45h278v129
h-227v44h227v96h47v-96h246v-44h-246v-129h279v-45h-340z" />
    <glyph glyph-name="uni6478" unicode="&#x6478;" 
d="M506 699h-165v43h165v91h46v-91h176v91h47v-91h156v-43h-156v-86h-47v86h-176v-86h-46v86zM221 298v-306q0 -41 -29 -54q-26 -10 -119 -9q-3 20 -16 45q82 -2 101 0q18 0 18 19v289l-116 -40l-14 46l130 42v249h-123v45h123v208h45v-208h108v-45h-108v-233l115 38l7 -44z
M438 336h390v89h-390v-89zM438 464h390v88h-390v-88zM675 156q75 -146 272 -190q-19 -17 -31 -40q-213 55 -288 230h-7q-32 -88 -98 -142q-71 -57 -197 -88q-9 20 -27 38q114 27 180 75q61 45 91 117h-250v43h264q12 43 18 97h-209v296h482v-296h-225q-7 -59 -17 -97h294
v-43h-252z" />
    <glyph glyph-name="uni64AD" unicode="&#x64ad;" 
d="M229 327v-337q0 -42 -29 -55q-24 -9 -119 -9q-4 22 -16 45q81 -2 100 0q19 0 19 19v320l-137 -54l-13 48l150 56v219h-137v45h137v208h45v-208h118v-45h-118v-202l106 41l8 -45zM457 261v-102h162v102h-162zM843 261h-180v-102h180v102zM843 15v105h-180v-105h180z
M619 15v105h-162v-105h162zM412 302h476v-368h-45v41h-386v-48h-45v375zM715 523q101 -131 256 -196q-7 -5 -17 -17q-8 -9 -16 -20q-73 35 -149 98q-78 66 -125 133v-193h-45v190q-47 -72 -128 -140q-76 -64 -154 -102q-13 21 -33 37q164 68 267 210h-223v43h271v179
q-57 -6 -123 -11q-57 -5 -119 -8q-3 16 -13 38q70 4 135 10q74 6 138 13q71 8 126 17q61 10 101 21l31 -36q-44 -11 -106 -22q-55 -9 -125 -18v-183h72q22 38 45 82q24 49 37 83l44 -17l-40 -76q-23 -44 -41 -72h162v-43h-228zM471 712l38 -63q20 -36 29 -57l-41 -18
q-9 22 -29 60l-36 65z" />
    <glyph glyph-name="uni64BC" unicode="&#x64bc;" 
d="M859 713q-32 44 -93 97l30 21q64 -51 93 -92zM214 306v-308q0 -42 -27 -53q-26 -10 -109 -10q-3 20 -16 46q72 -2 90 0q16 0 16 16v290l-54 -22q-32 -12 -50 -20l-17 47q50 17 121 47v240h-112v45h112v208h46v-208h103v-45h-103v-223l94 39l9 -46zM270 -10q24 35 48 93
q21 50 34 100l39 -16q-16 -57 -35 -103q-24 -60 -48 -96zM398 662v-136q0 -41 -3 -77q-3 -45 -11 -84q-19 -97 -63 -161q-14 20 -34 30q40 58 57 146q6 35 9 75q2 33 2 71v178h337q-6 61 -9 131h44q2 -76 7 -131h206v-42h-203q15 -141 42 -233q48 83 77 187l41 -10
q-38 -130 -101 -228q44 -117 97 -117q15 0 22 22q8 24 12 88q19 -17 35 -21q-7 -80 -22 -108q-15 -24 -49 -24q-69 0 -123 120q-38 -55 -92 -101q-16 16 -35 28q60 46 110 119q-37 108 -55 278h-298zM661 83q-38 68 -117 138l33 24q83 -75 120 -136zM620 448h-137v-122h137
v122zM657 287h-211v200h211v-200zM662 555h-226v38h226v-38zM711 -18q28 0 36 17t11 83q16 -11 39 -17q-4 -76 -19 -99q-16 -25 -62 -25h-177q-59 0 -78 13q-20 14 -20 55v179h43v-179q0 -27 55 -27h172zM833 187q86 -102 114 -184l-38 -22q-30 89 -112 188z" />
    <glyph glyph-name="uni64CD" unicode="&#x64cd;" 
d="M769 749h-260v-129h260v129zM814 580h-349v209h349v-209zM712 352h165v138h-165v-138zM670 529h249v-217h-249v217zM561 490h-160v-138h160v138zM603 312h-243v217h243v-217zM220 308v-319q0 -39 -25 -52q-21 -8 -95 -8l-6 21q-5 14 -10 23q22 -1 48 0h28q14 0 14 15v302
l-113 -46l-15 46q50 17 128 48v241h-121v45h121v209h46v-209h100v-45h-100v-223l96 38l8 -44zM701 184q104 -125 258 -183q-7 -6 -18 -18l-8 -11q-4 -4 -7 -9q-160 70 -266 210v-248h-47v243q-53 -67 -138 -126q-80 -55 -165 -88l-14 20q-10 12 -18 18q181 59 295 192h-234
v43h274v81h47v-81h285v-43h-244z" />
    <glyph glyph-name="uni652F" unicode="&#x652f;" 
d="M265 397q79 -156 238 -263q83 52 144 115q65 67 106 148h-488zM824 425q-44 -100 -116 -181q-68 -76 -161 -137q172 -99 413 -132q-4 -4 -8 -10l-8 -11l-13 -22q-251 38 -429 147q-92 -53 -205 -92q-104 -35 -224 -59q-7 22 -26 45q116 20 215 53q109 35 196 83
q-158 110 -243 286l6 2h-94v47h348v176h-392v48h392v165h48v-165h393v-48h-393v-176h259l10 2z" />
    <glyph glyph-name="uni6539" unicode="&#x6539;" 
d="M425 176q1 -20 8 -44q-216 -85 -273 -110q-33 -14 -48 -22q-13 -7 -20 -14q-6 22 -21 50q5 2 9 5q6 4 10 10q9 14 9 37v385h280v238h-295v47h342v-332h-280v-352zM580 585q38 -204 120 -357q81 143 116 371h-231zM866 599q-41 -257 -138 -418q96 -149 229 -211
q-16 -12 -34 -40q-132 68 -224 209q-95 -133 -259 -216q-15 28 -31 42q167 77 264 219q-39 68 -70 154q-29 80 -52 176q-40 -90 -84 -150q-17 17 -39 33q58 76 104 194q42 109 69 241l48 -8q-21 -98 -48 -179h343v-46h-78z" />
    <glyph glyph-name="uni653E" unicode="&#x653e;" 
d="M272 682q-20 67 -56 136l41 15q37 -70 59 -133zM440 466v-10l-7 -226q-3 -88 -8 -140q-8 -100 -26 -125q-19 -24 -55 -25q-32 -3 -108 1l-2 11q-1 7 -3 12q-4 14 -9 23q30 -3 64 -3q12 -1 24 -1h17q22 0 31 12q14 17 21 110q8 94 13 316h-167v-18q0 -71 -5 -125
q-6 -67 -22 -123q-17 -64 -47 -119q-33 -60 -82 -111q-13 16 -36 32q47 47 78 105q28 51 44 112q14 53 19 116q5 49 5 114v215h-130v46h443v-46h-267v-153h215zM611 598q0 -2 -1 -6l-2 -6q35 -211 108 -358q42 73 71 167q28 88 47 203h-223zM883 598q-44 -260 -141 -418
q88 -150 220 -213q-20 -16 -35 -40q-127 65 -214 210q-92 -128 -252 -213q-15 28 -31 42q163 77 258 216q-36 68 -64 153q-26 79 -46 175q-38 -90 -84 -155l-8 8q-4 4 -11 9l-16 13q-3 3 -5 4q58 77 103 199q41 111 67 246l49 -9q-11 -51 -21 -92q-13 -48 -26 -89h328v-46
h-71z" />
    <glyph glyph-name="uni6548" unicode="&#x6548;" 
d="M291 685q-28 64 -84 128l37 20q60 -67 87 -126zM506 638h-440v45h440v-45zM452 417q-33 73 -107 161l36 20q76 -85 110 -158zM223 586q-54 -128 -141 -226q-18 18 -36 28q84 89 135 210zM417 32q-32 63 -109 160q-90 -144 -225 -237q-18 21 -35 33q138 89 229 241
q-69 80 -130 140l36 26q56 -54 118 -123q39 77 64 160l45 -10q-29 -97 -78 -187q86 -101 124 -172zM643 601q-12 -37 -26 -72q37 -182 104 -310q42 75 72 172q27 91 46 210h-196zM886 601q-42 -270 -139 -428q87 -144 210 -205q-4 -3 -9 -8l-25 -30q-118 64 -203 201
q-91 -126 -241 -206q-4 7 -15 19q-9 11 -17 19q159 77 247 212q-63 117 -105 285q-31 -68 -64 -115q-6 7 -16 17q-12 11 -20 16q57 79 100 203q38 113 63 253l46 -7q-8 -43 -19 -91q-10 -42 -23 -89h292v-46h-62z" />
    <glyph glyph-name="uni6563" unicode="&#x6563;" 
d="M216 524h153v138h-153v-138zM530 480h-482v44h123v138h-108v43h108v122h45v-122h153v122h46v-122h109v-43h-109v-138h115v-44zM417 144v89h-248v-89h248zM169 360v-87h248v87h-248zM463 -14q0 -38 -27 -49q-22 -8 -123 -8q-3 20 -16 42q31 -1 66 -1h38q16 1 16 17v116
h-248v-176h-46v474h340v-415zM630 587q35 -209 102 -356q74 145 105 369h-203zM886 600q-19 -131 -49 -232q-32 -106 -79 -189q82 -148 202 -213q-11 -9 -19 -18q-11 -12 -15 -22q-116 68 -195 209q-85 -129 -228 -211q-10 22 -30 42q148 78 233 217q-34 69 -60 152
q-24 79 -43 173q-32 -84 -72 -146l-18 17l-21 17q51 75 90 196q34 106 57 241l47 -8q-14 -86 -40 -180h308v-45h-68z" />
    <glyph glyph-name="uni6570" unicode="&#x6570;" 
d="M496 789l-44 -71q-26 -38 -45 -62l-33 16q52 74 80 138zM168 655q-17 62 -67 134l37 14q53 -72 67 -132zM272 551q-84 -113 -193 -171q-9 18 -27 39q125 57 206 181h-202v42h216v192h46v-192h213v-42h-213v-1l98 -63q67 -44 85 -58l-28 -37q-19 17 -68 54l-87 63v-153
h-46v146zM245 273q-27 -53 -54 -97q38 -15 67 -29q36 -16 66 -32q72 69 106 158h-185zM424 6q-43 31 -95 59q-104 -87 -253 -126q-9 22 -24 37q68 16 125 43q63 28 113 67q-42 21 -80 38q-44 19 -80 32q19 29 34 55q19 33 34 62h-121v42h142q20 43 28 69l45 -8
q-11 -27 -27 -61h185l9 3l27 -12q-37 -122 -123 -210q60 -33 94 -56zM634 588q16 -96 39 -178q25 -88 58 -160q62 132 93 338h-190zM870 588q-37 -238 -116 -388q84 -158 210 -226q-17 -13 -34 -38q-119 70 -201 220q-91 -145 -246 -230q-15 23 -30 39q163 82 252 236
q-31 65 -56 145q-23 73 -42 162q-34 -92 -77 -159q-16 14 -40 28q54 75 93 197q34 107 55 246l46 -7q-15 -92 -38 -179h294v-46h-70z" />
    <glyph glyph-name="uni6574" unicode="&#x6574;" 
d="M633 672l-3 -4q33 -97 106 -180q69 75 102 184h-205zM885 672q-38 -129 -119 -216q79 -77 187 -116q-17 -17 -29 -39q-55 22 -104 55q-44 30 -84 70q-82 -74 -207 -122q-12 18 -29 37q126 41 207 117q-33 38 -60 82q-24 40 -42 84q-34 -52 -68 -86l-16 16l-19 15
q100 97 146 264l45 -10q-19 -62 -40 -108h295v-43h-63zM136 533h133v88h-133v-88zM313 621v-88h124v88h-124zM269 454q-84 -98 -194 -145q-9 16 -30 33q133 51 212 154h-163v162h175v62h-208v40h208v73h44v-73h199v-40h-199v-62h167v-162h-167v-186h-44v144zM336 482
q95 -42 147 -89l-24 -32q-53 48 -145 94zM523 -1h429v-44h-900v44h173v175h47v-175h204v237h-354v43h764v-43h-363v-95h306v-41h-306v-101z" />
    <glyph glyph-name="uni6587" unicode="&#x6587;" 
d="M511 665q-24 69 -81 157l47 14q61 -89 85 -154zM260 604q84 -216 241 -370q150 149 233 370h-474zM789 604q-94 -247 -252 -404q176 -159 421 -223q-8 -7 -18 -21l-16 -23q-244 67 -423 232q-166 -147 -426 -236q-9 20 -31 46q257 79 421 224q-165 170 -255 405h-155v47
h893v-47h-159z" />
    <glyph glyph-name="uni65B0" unicode="&#x65b0;" 
d="M502 682h-435v43h213q-24 52 -52 98l43 12q19 -31 33 -56q18 -32 28 -54h170v-43zM184 503q-9 75 -44 157l40 9q37 -77 46 -154zM193 232q-38 -115 -104 -194q-21 17 -37 26q62 68 99 178zM310 286v-279q0 -37 -23 -48q-19 -8 -94 -8q-5 20 -17 44q24 -1 49 -1h28
q13 0 13 13v279h-209v44h209v121h-213v43h280q39 95 60 177l46 -12l-29 -84q-18 -49 -31 -81h139v-43h-208v-121h200v-44h-200zM399 244q59 -90 86 -166l-38 -19q-11 32 -36 81q-23 46 -48 87zM951 447h-119v-515h-47v515h-184v-48q0 -62 -4 -113q-4 -66 -14 -122
q-13 -66 -33 -121q-24 -61 -58 -108q-12 17 -36 30q32 44 54 102q19 50 30 112q9 52 13 113q3 47 3 107v337q93 15 174 33q93 21 142 41l42 -36q-126 -44 -313 -70v-212h350v-45z" />
    <glyph glyph-name="uni65B9" unicode="&#x65b9;" 
d="M525 663q-9 28 -30 74q-19 40 -40 80l45 17q22 -39 41 -78q21 -44 31 -72zM414 605v-3l-7 -88q-4 -50 -10 -91h426l-1 -10q0 -12 -1 -16q-16 -215 -33 -311q-17 -94 -45 -123q-24 -23 -74 -26q-59 -4 -165 6q-2 26 -17 46q48 -5 103 -7l66 -1q31 0 46 11q23 21 39 107
q16 87 30 277h-382q-12 -73 -33 -134q-22 -68 -56 -123q-36 -61 -86 -108q-54 -51 -124 -86q-12 21 -36 37q95 45 159 121q56 66 90 159q29 78 43 180q6 42 10 92q3 39 6 91h-283v47h847v-47h-512z" />
    <glyph glyph-name="uni65E0" unicode="&#x65e0;" 
d="M837 -4q41 0 53 30q11 29 15 136q21 -14 47 -20q-6 -118 -26 -154q-21 -39 -86 -39h-209q-68 0 -91 19q-24 18 -24 72v375h-37q-16 -79 -43 -146q-30 -74 -75 -135q-49 -66 -115 -117q-73 -55 -166 -92q-13 23 -33 39q89 33 158 84q64 46 111 107q43 56 73 125
q26 61 43 135h-374v47h382q11 59 16 130l4 63l2 61h-341v47h765v-47h-377q-1 -37 -3 -61q-1 -34 -3 -63q-6 -72 -16 -130h457v-47h-380v-376q0 -43 69 -43h204z" />
    <glyph glyph-name="uni65E5" unicode="&#x65e5;" 
d="M769 50v311h-530v-311h530zM239 712v-304h530v304h-530zM818 760v-816h-49v59h-530v-65h-48v822h627z" />
    <glyph glyph-name="uni65F6" unicode="&#x65f6;" 
d="M138 700v-244h201v244h-201zM339 158v254h-201v-254h201zM385 113h-247v-81h-46v713h293v-632zM954 576h-132v-564q0 -57 -44 -69q-21 -6 -69 -8h-122q-6 25 -20 49q132 -3 179 -1q28 1 28 29v564h-339v48h339v203h48v-203h132v-48zM641 214q-27 50 -71 120
q-47 76 -87 133l39 19l89 -130q48 -73 72 -117z" />
    <glyph glyph-name="uni660E" unicode="&#x660e;" 
d="M134 722v-219h194v219h-194zM328 228v230h-194v-230h194zM134 183v-97h-46v681h285v-584h-239zM864 295v204h-307v-63q0 -76 -8 -141h315zM557 743v-199h307v199h-307zM911 3q0 -52 -38 -65q-33 -9 -168 -9q-2 10 -8 24l-11 24q48 -1 96 -1q40 0 56 1q26 1 26 26v247
h-321q-17 -98 -56 -175q-47 -91 -126 -154q-17 24 -35 33q59 48 99 110q35 55 55 123q18 57 25 127q3 29 4 62q1 28 1 61v352h401v-786z" />
    <glyph glyph-name="uni662F" unicode="&#x662f;" 
d="M774 747h-555v-100h555v100zM774 608h-555v-100h555v100zM822 467h-650v321h650v-321zM955 -5q-6 -8 -12 -23q-4 -11 -7 -23h-267q-85 0 -145 8q-67 8 -116 28q-104 42 -162 151q-59 -133 -164 -211q-18 23 -37 35q158 107 201 342l48 -7q-11 -58 -26 -103
q59 -146 215 -180v329h-423v44h881v-44h-411v-134h345v-44h-345v-160q56 -8 140 -8h285z" />
    <glyph glyph-name="uni663E" unicode="&#x663e;" 
d="M677 110q40 45 81 101q45 61 71 106l42 -20q-74 -115 -156 -207zM779 741h-553v-124h553v124zM779 576h-553v-125h553v125zM827 409h-649v374h649v-374zM260 86q-43 95 -123 208l39 16q83 -116 124 -204zM952 20v-46h-904v46h320v344h46v-344h165v344h47v-344h326z" />
    <glyph glyph-name="uni666E" unicode="&#x666e;" 
d="M249 292v-120h509v120h-509zM758 7v124h-509v-124h509zM202 334h604v-401h-48v33h-509v-37h-47v405zM422 449h154v214h-154v-214zM945 449v-43h-887v43h318v214h-260v43h199q-23 57 -72 109l40 17q54 -51 75 -106l-41 -20h315q44 64 75 127l46 -18q-35 -62 -69 -109h210
v-43h-272v-214h323zM207 640q63 -72 88 -152l-43 -18q-24 78 -85 154zM694 482q61 85 97 163l43 -18q-25 -44 -51 -85q-30 -46 -53 -76z" />
    <glyph glyph-name="uni666F" unicode="&#x666f;" 
d="M775 755h-550v-74h550v74zM775 643h-550v-77h550v77zM823 528h-644v265h644v-265zM349 96q-49 -40 -123 -82q-68 -39 -135 -68l-17 18q-12 13 -19 18q71 26 134 59q72 37 115 73zM247 189h507v117h-507v-117zM523 149v-169q0 -38 -29 -46q-24 -8 -137 -8q-1 9 -7 20
l-10 20q90 -3 118 -1q18 1 18 16v168h-275v197h601v-197h-279zM664 109q165 -60 270 -132l-31 -35q-104 74 -268 137zM940 451v-42h-881v42h420q-13 25 -35 56l41 16q32 -41 46 -72h409z" />
    <glyph glyph-name="uni6682" unicode="&#x6682;" 
d="M299 414q-26 -3 -65 -7q-4 -1 -8 -1q-3 -1 -8 -1l-153 -17l-5 44l239 24v99h-128q-61 0 -77 -14q-6 22 -16 48q19 3 48 42l24 35l36 55h-129v40h152q21 38 38 76l48 -16l-33 -60h252v-40h-276q-46 -72 -88 -125h149v71h47v-71h169v-41h-169v-94l168 19l1 -41l-169 -19
v-109h-47v103zM230 250v-101h542v101h-542zM772 6v104h-542v-104h542zM184 291h635v-361h-47v35h-542v-38h-46v364zM945 605v-42h-127v-249h-46v249h-161q-4 -71 -20 -128q-20 -71 -57 -119q-19 17 -39 26q43 54 60 136q7 32 10 70q2 29 2 65v152q92 8 169 19q91 14 140 31
l34 -35q-52 -17 -138 -31q-72 -11 -160 -19v-125h333z" />
    <glyph glyph-name="uni66F2" unicode="&#x66f2;" 
d="M850 40v253h-209v-253h209zM153 40h197v253h-197v-253zM153 585v-246h197v246h-197zM397 293v-253h197v253h-197zM397 585v-246h197v246h-197zM641 585v-246h209v246h-209zM897 632v-701h-47v62h-697v-68h-46v707h243v190h47v-190h197v190h47v-190h256z" />
    <glyph glyph-name="uni66F4" unicode="&#x66f4;" 
d="M477 302q3 38 3 77v46h-271v-123h268zM209 466h271v122h-271v-122zM529 588v-122h291v122h-291zM820 425h-291v-46q0 -39 -3 -77h294v123zM520 260q-10 -55 -32 -98q-25 -49 -68 -89q91 -48 229 -72q64 -11 144 -18q72 -6 166 -10q-16 -20 -21 -48q-96 5 -170 13
q-82 9 -148 22q-145 28 -238 83q-52 -36 -123 -64q-77 -31 -177 -53q-11 21 -29 42q189 39 286 103q-84 62 -134 157l40 16q51 -91 132 -145q40 34 64 77q20 37 30 84h-309v371h318v99h-411v45h861v-45h-401v-99h339v-371h-348z" />
    <glyph glyph-name="uni66FE" unicode="&#x66fe;" 
d="M350 708q-23 47 -80 111l39 16q58 -62 82 -107zM252 290v-114h507v114h-507zM759 24v113h-507v-113h507zM204 331h605v-403h-50v55h-507v-59h-48v407zM280 638q80 -72 115 -141l-31 -23q-35 69 -115 145zM592 487q26 27 61 72q31 42 53 76l39 -20q-55 -81 -120 -147z
M818 662h-297v-216h297v216zM190 446h285v216h-285v-216zM869 703v-299h-728v299h446q61 72 93 136l48 -18q-41 -65 -88 -118h229z" />
    <glyph glyph-name="uni66FF" unicode="&#x66ff;" 
d="M421 377q-58 52 -155 119q-26 -52 -67 -94q-47 -49 -114 -86q-14 21 -32 34q78 39 126 94q40 46 59 105h-169v42h180q5 24 7 52q1 21 1 48v6h-160v42h160v94h47v-94h140v-42h-140v-6q0 -53 -8 -100h168v-42h-179l-4 -14q104 -68 171 -124zM249 298v-120h502v120h-502z
M751 10v127h-502v-127h502zM202 341h597v-411h-48v37h-502v-41h-47v415zM750 549q66 -138 205 -184q-15 -12 -32 -38q-147 60 -213 213q-22 -55 -65 -98q-50 -50 -128 -87q-11 17 -31 35q72 30 118 74q39 38 59 85h-155v42h169q10 40 10 92v14h-156v42h156v94h46v-94h168
v-42h-168v-14q0 -51 -9 -92h208v-42h-182z" />
    <glyph glyph-name="uni6700" unicode="&#x6700;" 
d="M776 762h-546v-86h546v86zM776 638h-546v-89h546v89zM824 511h-641v290h641v-290zM200 49l102 11l108 14v76h-210v-101zM200 402v-85h210v85h-210zM200 190h210v87h-210v-87zM457 40v-113h-47v106l-353 -46l-6 44l103 12v359h-100v42h889v-42h-486v-322l58 7v-39z
M594 281q40 -104 122 -181q88 77 132 181h-254zM905 312q-23 -71 -64 -134q-39 -58 -92 -107q87 -72 206 -104q-17 -17 -29 -39q-121 38 -212 114q-90 -71 -207 -112l-11 19q-8 12 -15 17q109 34 202 105q-88 87 -134 209l3 1h-52v42h368l10 3z" />
    <glyph glyph-name="uni6709" unicode="&#x6709;" 
d="M766 470h-452v-126h452v126zM766 173v128h-452v-128h452zM390 652q-31 -70 -73 -138h496v-515q0 -50 -36 -60q-20 -6 -64 -8q-19 -1 -48 -1h-60q-2 9 -7 24l-10 24q49 -2 98 -2q38 0 57 1q23 0 23 23v129h-452v-202h-47v515q-81 -110 -187 -186q-4 8 -14 19q-8 10 -16 18
q92 64 168 160q70 89 122 199h-270v46h290q25 58 47 134l47 -11q-22 -72 -44 -123h525v-46h-545z" />
    <glyph glyph-name="uni670D" unicode="&#x670d;" 
d="M348 314v197h-184v-72q0 -59 -3 -125h187zM164 749v-192h184v192h-184zM394 -8q0 -44 -31 -57q-26 -9 -130 -8q-2 20 -15 45q88 -2 110 0q20 1 20 21v275h-190q-7 -100 -23 -180q-20 -95 -53 -163q-18 18 -40 24q25 51 42 117q15 57 23 127q7 58 10 127l2 61v413h275
v-802zM626 411q47 -151 128 -265q84 117 123 265h-251zM930 447q-42 -196 -149 -337q79 -97 179 -148q-18 -15 -33 -37q-93 51 -173 150q-75 -86 -166 -139q-10 17 -29 35q91 48 168 140q-91 126 -144 300h-36v-484h-47v864h402v-193q0 -41 -31 -51q-18 -5 -56 -7
q-16 -1 -41 -1h-51q-2 10 -7 22l-11 21q109 -2 131 0q20 0 20 16v148h-309v-290h346l9 2z" />
    <glyph glyph-name="uni671D" unicode="&#x671d;" 
d="M135 291h293v102h-293v-102zM135 433h293v99h-293v-99zM307 110v-182h-47v182h-213v45h213v96h-170v322h170v95h-199v45h199v121h47v-121h199v-45h-199v-95h167v-322h-167v-96h203v-45h-203zM862 303v198h-232v-101q0 -47 -3 -97h235zM630 739v-194h232v194h-232zM909 -5
q0 -46 -32 -59q-24 -9 -136 -9q-6 28 -18 48q89 -3 118 -1q21 1 21 21v263h-238q-5 -47 -13 -88q-9 -47 -22 -88q-31 -93 -86 -157q-19 22 -39 30q38 45 64 103q23 51 36 114q11 53 16 116q3 48 3 111v385h326v-789z" />
    <glyph glyph-name="uni671F" unicode="&#x671f;" 
d="M192 217h215v122h-215v-122zM192 647v-106h215v106h-215zM192 380h215v119h-215v-119zM534 173h-489v44h102v430h-88v44h88v130h45v-130h215v130h46v-130h77v-44h-77v-430h81v-44zM238 131q-53 -119 -147 -204q-1 0 -2 1q-1 2 -2 2l-26 20l-10 6q92 76 141 188zM371 141
q70 -82 102 -150l-40 -24q-30 69 -100 153zM873 314v190h-239v-84q0 -50 -3 -106h242zM634 735v-186h239v186h-239zM920 1q0 -48 -33 -59q-28 -10 -142 -10q-3 22 -17 48q100 -2 124 0q21 1 21 22v267h-245q-4 -48 -11 -91q-7 -49 -18 -91q-26 -98 -70 -166q-18 20 -39 29
q32 48 53 110q19 55 29 121q9 57 13 123q2 28 2 60q1 26 1 56v361h332v-780z" />
    <glyph glyph-name="uni672A" unicode="&#x672a;" 
d="M560 367q155 -229 399 -338q-8 -6 -19 -18l-16 -21q-240 117 -401 355v-418h-49v414q-71 -107 -182 -204q-106 -93 -213 -148q-19 26 -35 40q242 108 394 338h-371v47h407v199h-336v48h336v171h49v-171h348v-48h-348v-199h414v-47h-377z" />
    <glyph glyph-name="uni672C" unicode="&#x672c;" 
d="M590 564q59 -140 157 -255q100 -119 212 -176q-8 -7 -19 -19q-9 -10 -17 -21q-116 66 -218 194q-101 126 -162 277h-19v-392h249v-48h-249v-197h-49v197h-247v48h247v392h-21q-131 -318 -372 -473q-15 22 -34 38q105 61 203 181q94 117 154 254h-335v48h405v220h49v-220
h409v-48h-343z" />
    <glyph glyph-name="uni672F" unicode="&#x672f;" 
d="M794 631q-71 71 -188 149l35 30q120 -77 188 -144zM546 528q164 -277 403 -429q-22 -20 -37 -40q-213 149 -386 417v-550h-51v531q-162 -274 -394 -406q-8 11 -17 21q-11 12 -19 19q118 61 234 183q113 119 182 254h-391v47h405v257h51v-257h395v-47h-375z" />
    <glyph glyph-name="uni673A" unicode="&#x673a;" 
d="M402 304q-15 27 -52 84l-68 98v-558h-47v547q-33 -101 -75 -189q-44 -94 -88 -148q-11 22 -30 41q123 155 185 410h-169v47h177v197h47v-197h155v-47h-155v-37q85 -102 153 -203zM873 -18q14 0 24 8q8 8 11 39q4 50 4 151q16 -16 41 -23l-2 -91q-2 -50 -5 -65
q-5 -36 -24 -52q-18 -12 -46 -12h-45q-28 0 -49 15q-11 9 -15 28q-4 22 -4 84v666h-215v-272q0 -72 -5 -132q-7 -76 -23 -140q-18 -76 -49 -138q-34 -70 -85 -123q-16 21 -37 33q49 51 81 116q29 58 46 128q14 60 20 132q2 30 3 63q1 28 1 61v318h311v-724q0 -57 7 -64
q11 -6 21 -6h34z" />
    <glyph glyph-name="uni6750" unicode="&#x6750;" 
d="M425 293q-16 27 -58 85l-75 100v-550h-48v536q-36 -102 -83 -193q-50 -95 -98 -151q-10 20 -30 42q134 149 202 405h-165v47h174v219h48v-219h143v-47h-143v-27l88 -106q58 -71 79 -99zM953 566h-109v-563q0 -55 -41 -68q-20 -6 -64 -7q-34 -2 -106 -2q-2 9 -8 25l-10 26
q24 -1 51 -1h104q25 1 25 25v501q-62 -120 -149 -230q-89 -113 -177 -180q-11 21 -33 40q94 66 190 188q93 120 151 246h-299v47h317v219h49v-219h109v-47z" />
    <glyph glyph-name="uni675F" unicode="&#x675f;" 
d="M198 323h276v178h-276v-178zM523 501v-178h278v178h-278zM551 279q69 -87 184 -163q110 -72 225 -110q-19 -17 -34 -42q-110 41 -218 116q-111 78 -185 167v-320h-49v315q-73 -86 -183 -162q-105 -73 -211 -115q-12 22 -33 41q111 38 219 111q113 76 181 162h-296v267
h323v127h-395v45h395v114h49v-114h400v-45h-400v-127h326v-267h-298z" />
    <glyph glyph-name="uni6765" unicode="&#x6765;" 
d="M565 340q159 -225 396 -328l-18 -19l-16 -21q-238 116 -403 352v-397h-49v397q-72 -106 -183 -203q-107 -93 -215 -146q-15 24 -34 40q233 100 392 325h-374v47h414v271h-366v47h366v126h49v-126h374v-47h-374v-271h417v-47h-376zM240 622q77 -109 101 -195l-45 -18
q-25 92 -97 197zM659 419q66 98 110 209l49 -18l-58 -108q-35 -62 -61 -97z" />
    <glyph glyph-name="uni677E" unicode="&#x677e;" 
d="M772 808q61 -219 174 -375q-27 -17 -39 -37q-113 159 -180 401zM263 524q69 -94 124 -185l-33 -41q-11 23 -40 73l-51 87v-530h-47v523q-30 -99 -67 -185q-39 -91 -78 -145q-13 25 -30 43q49 63 96 178q47 113 72 225h-153v45h160v220h47v-220h131v-45h-131v-43zM603 789
q-27 -121 -69 -221q-45 -106 -101 -176q-19 17 -42 30q56 65 99 167q39 94 63 209zM785 254q95 -159 138 -280l-45 -19q-8 29 -28 75l-210 -28q-80 -11 -120 -18q-41 -6 -60 -10q-16 -4 -26 -9v4q-8 28 -18 45q22 6 62 92q26 48 69 157q24 61 44 119q23 69 39 128l49 -18
q-38 -126 -85 -243q-49 -126 -100 -219l336 42q-39 86 -86 167z" />
    <glyph glyph-name="uni677F" unicode="&#x677f;" 
d="M346 335q-10 22 -37 70l-48 84v-561h-46v552q-29 -99 -66 -188q-40 -93 -79 -147q-11 24 -28 43q47 63 95 178q46 113 72 225h-143v46h149v196h46v-196h126v-46h-126v-40l61 -91q43 -65 55 -86zM569 482q49 -180 134 -305q98 130 140 305h-274zM898 518
q-22 -115 -65 -213q-41 -93 -100 -168q98 -120 224 -169q-19 -16 -34 -42q-130 58 -221 175q-50 -57 -112 -102q-58 -42 -127 -73q-14 27 -30 41q137 57 240 173q-96 139 -146 342h-48v-1q0 -70 -4 -132q-6 -78 -18 -146q-15 -79 -39 -146q-28 -74 -67 -132q-16 18 -40 28
q39 56 65 127q23 62 37 138q11 63 16 137l2 66q1 28 1 61v247q63 4 122 11q67 7 125 16q64 10 114 22q54 13 89 28l31 -38q-36 -15 -89 -29q-47 -12 -108 -22q-55 -9 -119 -16q-55 -7 -118 -12v-163h380l9 3z" />
    <glyph glyph-name="uni6781" unicode="&#x6781;" 
d="M348 335q-11 23 -38 71l-50 86v-564h-46v544q-29 -97 -66 -183q-39 -90 -78 -144q-4 9 -13 22l-16 21q48 64 96 179q46 112 71 224h-136v46h142v196h46v-196h122v-46h-122v-38q17 -23 63 -92l57 -88zM563 721q-2 -31 -3 -53l-10 -149q29 -109 71 -200q45 -96 104 -170
q96 121 138 291h-185q18 51 40 132q21 73 39 149h-194zM920 473q-48 -216 -165 -360q90 -98 205 -143q-21 -16 -34 -40q-110 48 -202 146q-87 -94 -204 -151q-19 26 -34 38q119 55 207 150q-95 121 -154 297q-22 -162 -66 -274q-48 -123 -131 -210q-21 18 -41 30
q61 58 103 138q38 74 63 174q21 89 33 209q5 54 9 118q4 56 6 126h-125v45h427l-38 -143q-23 -83 -40 -138h142l9 2z" />
    <glyph glyph-name="uni6784" unicode="&#x6784;" 
d="M263 536q18 -24 63 -92l56 -87l-32 -39q-28 59 -87 155v-545h-47v547q-30 -99 -67 -184q-40 -92 -78 -146q-6 11 -14 22q-9 13 -16 21q48 64 96 179q46 112 72 224h-152v46h159v196h47v-196h127v-46h-127v-55zM742 140q-6 26 -24 76q-166 -32 -224 -45l-41 -11
q-10 -3 -18 -7q-5 24 -14 45q9 2 21 19q8 13 23 42q8 15 19 42l28 67q17 43 30 83q16 48 26 89l47 -13q-52 -171 -127 -313l217 40q-31 80 -60 136l36 12q31 -62 59 -130q28 -71 40 -116zM930 637q-7 -188 -12 -301q-7 -125 -14 -200q-14 -142 -42 -177q-20 -28 -65 -31
q-44 -3 -124 2q-2 28 -15 48q36 -3 76 -4q14 -1 28 -1h20q27 -1 38 15q23 26 37 165t25 467h-378q-39 -95 -95 -172l-31 23l-11 6q51 62 93 159q39 89 65 197l47 -10q-19 -75 -49 -157h407v-29z" />
    <glyph glyph-name="uni679C" unicode="&#x679c;" 
d="M475 445v127h-262v-127h262zM213 614h262v126h-262v-126zM792 740h-268v-126h268v126zM792 572h-268v-127h268v127zM574 256q69 -76 177 -146q105 -67 206 -102q-23 -21 -34 -40q-105 42 -214 117q-113 79 -185 164v-321h-49v316q-70 -86 -182 -164q-106 -74 -214 -116
q-10 17 -34 39q233 80 382 253h-359v45h407v100h-311v383h677v-383h-317v-100h408v-45h-358z" />
    <glyph glyph-name="uni67E5" unicode="&#x67e5;" 
d="M83 6h840v-44h-840v44zM722 356h-443v-102h443v102zM722 216h-443v-103h443v103zM770 395v-321h-538v321h538zM583 652q146 -162 373 -236q-18 -17 -32 -40q-107 39 -215 114q-112 77 -180 162h-7v-225h-47v225h-7q-68 -86 -179 -166q-106 -76 -212 -119q-17 25 -32 39
q98 35 198 101q103 69 169 145h-350v44h413v136h47v-136h418v-44h-357z" />
    <glyph glyph-name="uni6807" unicode="&#x6807;" 
d="M896 702h-431v46h431v-46zM372 321q-13 23 -45 71l-59 85v-549h-48v542q-32 -91 -73 -170q-43 -84 -86 -134q-12 22 -31 41q51 58 102 160q49 100 77 200h-149v45h160v220h48v-220h139v-45h-139v-30l73 -92q51 -66 64 -86zM552 331q-50 -184 -137 -303l-19 14
q-14 9 -21 12q42 52 77 130q33 73 55 157zM825 343q88 -171 121 -297l-46 -16q-33 136 -118 300zM950 509v-45h-255v-467q0 -46 -33 -58q-28 -9 -140 -9q-1 10 -7 25l-10 24q40 -1 78 -1q31 0 44 1q19 1 19 18v467h-223v45h527z" />
    <glyph glyph-name="uni6821" unicode="&#x6821;" 
d="M663 691q-30 65 -85 125l38 20q61 -63 88 -123zM942 636h-544v45h544v-45zM759 598q52 -51 100 -109q52 -61 77 -104l-37 -28q-57 101 -176 217zM584 576q-66 -128 -173 -225q-11 12 -34 27q108 95 163 217zM254 520q17 -25 60 -98l55 -95l-33 -38q-9 22 -35 74l-47 89
v-524h-46v526q-28 -100 -64 -187q-38 -93 -76 -147q-10 23 -30 43q48 65 93 180q45 113 68 224h-128v45h137v220h46v-220h119v-45h-119v-47zM818 411q-42 -150 -129 -261q116 -125 265 -175q-22 -19 -34 -42q-146 55 -261 180q-102 -114 -257 -187q-16 23 -32 34
q161 76 258 189q-89 110 -142 254l41 13q50 -132 131 -231q78 100 112 237z" />
    <glyph glyph-name="uni6838" unicode="&#x6838;" 
d="M833 522q-132 -237 -397 -372q-10 18 -29 36q161 80 278 210q-138 -10 -186 -15q-24 -2 -36 -5q-9 -1 -16 -4q-6 24 -17 48l7 2q4 1 7 1l15 5q17 7 27 18q7 8 23 32q14 20 34 52l68 110h-206v46h276q-15 62 -57 134l44 14q46 -72 62 -137l-28 -11h249v-46h-286l-101 -162
l-33 -49l192 12q35 42 64 98zM342 332q-10 22 -37 70l-49 84v-557h-46v538q-28 -97 -63 -180q-38 -89 -76 -142q-11 24 -30 43q109 149 163 403h-135v46h141v196h46v-196h120v-46h-120v-43q9 -12 27 -39l35 -53l34 -51l13 -21q2 -4 5 -8l4 -6zM917 350q-60 -108 -161 -203
l55 -45q30 -24 54 -46q59 -51 88 -83l-36 -35q-75 84 -195 179q-143 -121 -336 -190q-13 23 -29 38q174 61 309 167q137 107 203 236z" />
    <glyph glyph-name="uni683C" unicode="&#x683c;" 
d="M342 343q-10 20 -37 66l-49 81v-562h-47v550q-29 -100 -65 -186q-40 -93 -78 -146q-14 27 -29 43q47 64 94 179q46 112 70 223h-144v46h152v196h47v-196h120v-46h-120v-39q18 -24 62 -88l56 -82zM491 240v-218h324v218h-324zM445 284h417v-356h-47v49h-324v-49h-46v356z
M519 663q49 -97 138 -175q108 87 164 192h-292zM888 707q-64 -142 -195 -248q116 -87 267 -132q-14 -16 -22 -41q-158 51 -278 147q-67 -50 -148 -91q-74 -38 -157 -66q-12 28 -28 41q168 53 297 146q-84 78 -129 159q-44 -69 -94 -120q-11 15 -34 35q119 116 184 296
l44 -12q-13 -33 -20 -49q-11 -27 -22 -48h296l10 2z" />
    <glyph glyph-name="uni68C0" unicode="&#x68c0;" 
d="M318 321q-9 20 -34 70l-45 86v-549h-45v541q-26 -96 -58 -178q-35 -89 -69 -141q-13 25 -29 44q44 63 86 177q41 111 62 221h-129v46h137v195h45v-195h119v-46h-119v-48q65 -98 112 -187zM896 377l-37 -88l-41 -94l-43 -91q-22 -45 -42 -80h203v-45h-594v45h348
q40 71 87 179q44 102 74 188zM798 478h-329v43h329v-43zM636 145q-3 45 -15 116q-11 61 -26 125l39 6q33 -121 44 -241zM438 369q56 -126 73 -241l-41 -11q-7 49 -27 118q-19 65 -43 125zM675 823q-2 -4 -4 -10l-14 -28q48 -77 135 -162q82 -81 163 -134q-15 -15 -28 -39
q-78 55 -157 134q-83 83 -136 161q-53 -91 -128 -170q-72 -76 -155 -132q-10 18 -31 38q211 131 312 356z" />
    <glyph glyph-name="uni6982" unicode="&#x6982;" 
d="M284 322q-8 19 -28 57l-37 69v-520h-44v486q-22 -89 -48 -162q-29 -81 -58 -129q-17 27 -30 39q40 66 77 183q35 112 53 224h-108v46h114v218h44v-218h91v-46h-91v-51q15 -22 52 -81l46 -77zM383 727v-134h151v134h-151zM534 409v144h-151v-144h151zM563 79
q-11 40 -26 74q-126 -79 -162 -104q-34 -23 -43 -35q-10 23 -28 37q14 10 24 29q13 24 13 54v636h232v-404h-190v-260l140 81q-23 55 -46 96l34 15q27 -46 54 -105q24 -54 37 -94zM874 -21q8 0 14 1q7 1 11 4q9 7 12 25q4 38 4 116q10 -11 34 -19l-2 -74q-2 -38 -5 -50
q-8 -27 -23 -35q-17 -10 -42 -10h-42q-30 0 -46 12t-16 62v282q-29 -101 -77 -189q-55 -99 -133 -181q-17 17 -37 26q90 94 148 210q50 100 76 218h-57q-54 0 -69 -13q-6 22 -20 44q19 5 26 25q3 8 9 39l11 66l18 122h43l-30 -181q-6 -36 -11 -59h88q13 73 19 157q2 34 2 72
q1 29 1 66v14h-154v43h302v-43h-106v-13q0 -36 -1 -67q-1 -37 -3 -72q-5 -83 -17 -157h143v-43h-151q-4 -23 -12 -55h32v-320q0 -14 7 -18q10 -5 21 -5h33z" />
    <glyph glyph-name="uni69FD" unicode="&#x69fd;" 
d="M223 517q58 -88 110 -180l-33 -38q-9 22 -33 68q-19 37 -44 81v-519h-45v485q-22 -89 -48 -163q-29 -80 -58 -128q-13 25 -29 39q40 65 77 182q35 113 52 225h-115v46h121v218h45v-218h98v-46h-98v-52zM454 213v-82h382v82h-382zM836 8v84h-382v-84h382zM409 253h473
v-323h-46v38h-382v-40h-45v325zM713 694h-124v-82h124v82zM870 573h-115v-90h115v90zM870 445h-115v-93h115v93zM416 352h131v93h-131v-93zM416 483h131v90h-131v-90zM587 445v-93h127v93h-127zM587 573v-90h127v90h-127zM756 694v-82h158v-299h-541v299h172v82h-199v42h199
v96h44v-96h124v98h43v-98h194v-42h-194z" />
    <glyph glyph-name="uni6A21" unicode="&#x6a21;" 
d="M517 699h-163v43h163v91h46v-91h175v91h47v-91h155v-43h-155v-86h-47v86h-175v-86h-46v86zM320 307q-9 24 -36 78l-48 94v-550h-46v519q-25 -92 -55 -169q-33 -84 -65 -134q-10 23 -29 43q43 64 84 179q40 112 62 224h-131v46h134v196h46v-196h112v-46h-112v-44
q17 -26 62 -103q42 -72 56 -100zM448 336h390v89h-390v-89zM448 464h390v88h-390v-88zM685 156q75 -147 272 -189q-16 -15 -31 -40q-213 55 -288 229h-7q-32 -87 -98 -140q-71 -58 -197 -89q-12 24 -26 38q113 26 179 75q61 44 91 116h-249v43h264q12 43 18 97h-210v296h482
v-296h-225q-6 -49 -17 -97h293v-43h-251z" />
    <glyph glyph-name="uni6B64" unicode="&#x6b64;" 
d="M531 82l3 -49q-29 -6 -64 -12l-307 -57l-101 -20l-10 52l85 15v623h47v-615l137 24v790h48v-316h157v-46h-157v-419zM857 12q35 0 46 37q10 33 14 149q23 -17 47 -23q-6 -124 -24 -164q-21 -45 -80 -45h-170q-62 0 -83 22q-22 22 -22 88v757h51v-382q77 41 137 80
q71 45 110 82l41 -37q-54 -42 -133 -89q-73 -43 -155 -83v-330q0 -39 11 -50q11 -12 47 -12h163z" />
    <glyph glyph-name="uni6BB5" unicode="&#x6bb5;" 
d="M593 677q0 -35 -5 -67q-6 -38 -20 -70q-32 -79 -104 -129q-15 21 -34 32q67 47 96 116q11 28 17 60q4 27 4 58v119h256v-264q0 -32 18 -32h103q14 1 22 3l1 -9q0 -7 1 -10l2 -19q-7 -2 -20 -3h-113q-60 0 -60 71v219h-164v-75zM432 161l-66 -11q-1 -1 -4 -1l-187 -32
v-179h-47v172l-77 -13l-9 47l86 13v591l2 -1v1q76 19 143 40q75 25 116 46l42 -35q-48 -23 -120 -45q-64 -20 -136 -36v-135h238v-44h-238v-160h239v-44h-239v-172l256 41zM547 333q46 -122 137 -212q86 87 125 212h-262zM868 367q-43 -167 -149 -276q97 -83 233 -120
q-19 -13 -31 -41q-133 41 -236 130q-106 -92 -264 -137q-9 24 -27 42q152 37 258 127q-98 99 -147 234l23 7h-55v44h355l9 2z" />
    <glyph glyph-name="uni6BCF" unicode="&#x6bcf;" 
d="M252 681q-73 -123 -163 -212q-18 16 -42 30q144 128 232 340l47 -14l-23 -50l-26 -49h644v-45h-669zM584 353q-70 66 -193 121l29 29q124 -53 193 -117zM386 277q135 -66 207 -136l-30 -34q-72 74 -205 141zM750 101q9 71 15 191h-525l-31 -191h541zM272 522l-12 -91
q-2 -20 -6 -47l-7 -48h519q3 46 4 87q3 50 4 99h-502zM812 292q-3 -57 -7 -107q-3 -46 -7 -84h125v-44h-131q-11 -76 -30 -101q-22 -26 -64 -29q-52 -2 -125 4q-2 22 -13 41q36 -3 75 -4q28 -1 48 -1q26 0 37 13q7 9 12 27q7 20 12 50h-591q10 50 20 107l21 128h-144v44h150
q17 116 31 230h591l-5 -136q-2 -58 -4 -94h140v-44h-141z" />
    <glyph glyph-name="uni6C14" unicode="&#x6c14;" 
d="M251 670q-77 -152 -167 -245q-10 8 -20 15q-14 10 -23 15q147 141 228 381l47 -12l-21 -56l-24 -55h653v-43h-673zM251 539v43h604v-43h-604zM762 445q4 -94 12 -171q9 -89 24 -152q33 -149 93 -149q25 0 28 138q19 -17 36 -25q-4 -91 -17 -124q-15 -36 -51 -36
q-83 0 -125 137q-18 60 -30 151q-10 78 -16 187h-560v44h606z" />
    <glyph glyph-name="uni6C34" unicode="&#x6c34;" 
d="M404 559q-37 -184 -124 -324q-80 -128 -192 -205q-16 24 -38 37q103 66 179 180q81 120 117 275h-266v48h283l10 2zM868 606l-108 -123q-63 -67 -113 -111q71 -99 151 -172q85 -80 171 -121q-20 -16 -36 -41q-118 62 -228 188q-105 120 -180 271v-498q0 -51 -35 -64
q-28 -10 -141 -10q-8 29 -20 52q94 -3 124 -1q22 1 22 22v832h50v-240q38 -91 99 -183q119 114 201 230z" />
    <glyph glyph-name="uni6C42" unicode="&#x6c42;" 
d="M815 668q-28 26 -82 62q-50 33 -100 60l30 31q111 -58 183 -118zM884 523q-100 -116 -220 -217q62 -90 134 -154q77 -68 163 -104q-20 -17 -35 -41q-130 61 -236 190q-100 121 -167 287v-483q0 -54 -41 -67q-32 -10 -174 -10q-6 29 -18 51q49 -1 100 -1q41 0 60 1
q25 1 25 25v259l-208 -122l-184 -106l-29 42q172 90 421 235v300h-404v47h404v174h48v-174h411v-47h-411v-8q44 -138 118 -259q120 106 201 211zM303 320q-54 90 -170 191l37 24q114 -95 172 -187z" />
    <glyph glyph-name="uni6C60" unicode="&#x6c60;" 
d="M286 676q-80 63 -189 110l27 36q53 -24 104 -52q55 -31 85 -55zM228 405q-74 59 -181 108l27 35q116 -51 180 -103zM79 -27q39 57 93 150l94 175l35 -30q-87 -179 -180 -326zM828 -18q47 0 62 30q14 26 20 119q23 -16 46 -21q-8 -103 -30 -136q-25 -37 -99 -37h-286
q-81 0 -109 23q-29 24 -29 94v355l-110 -42l-18 43l128 50v279h47v-261l175 68v286h47v-268l191 73l13 13l34 -14l-3 -10q0 -74 -1 -133q0 -66 -2 -115q-3 -110 -11 -139q-12 -54 -61 -61q-42 -5 -95 -3q-4 29 -14 46q20 -1 50 -1h36q30 0 39 33q7 25 10 116q3 86 3 218
l-189 -73v-373h-47v354l-175 -67v-375q0 -43 17 -56q17 -15 72 -15h289z" />
    <glyph glyph-name="uni6CA1" unicode="&#x6ca1;" 
d="M497 678q0 -38 -7 -71q-8 -38 -27 -72q-43 -79 -143 -129q-12 20 -32 36q93 45 133 114q16 28 24 62q6 28 6 61v115h321v-233q0 -38 22 -38h98q12 0 24 1q15 1 24 3q3 -21 5 -47q-13 -4 -52 -4h-101q-67 0 -67 86v187h-228v-71zM269 669q-28 23 -81 57q-48 32 -98 60
l28 33q112 -60 179 -110zM227 408q-79 56 -184 108l27 35q110 -52 183 -103zM285 269q-38 -81 -84 -169q-49 -92 -89 -158l-40 32q37 57 88 150q48 88 90 175zM439 342q59 -130 175 -220q128 90 191 220h-366zM872 374q-34 -86 -91 -159q-53 -68 -127 -123q131 -89 302 -122
q-20 -20 -31 -44q-178 38 -313 137q-71 -47 -158 -82q-79 -32 -169 -53q-11 29 -25 44q84 17 161 47q83 31 152 75q-119 101 -184 248h-51v46h493l10 3z" />
    </font>
</defs>
</svg>
